<?xml version="1.0" encoding="UTF-8" standalone="no"?>
<!-- Created with Inkscape (http://www.inkscape.org/) -->

<svg
   xmlns:dc="http://purl.org/dc/elements/1.1/"
   xmlns:cc="http://creativecommons.org/ns#"
   xmlns:rdf="http://www.w3.org/1999/02/22-rdf-syntax-ns#"
   xmlns:svg="http://www.w3.org/2000/svg"
   xmlns="http://www.w3.org/2000/svg"
   xmlns:sodipodi="http://sodipodi.sourceforge.net/DTD/sodipodi-0.dtd"
   xmlns:inkscape="http://www.inkscape.org/namespaces/inkscape"
   version="1.1"
   id="svg2"
   width="149"
   height="52"
   viewBox="0 0 149 52"
   sodipodi:docname="site-forum.svg"
   inkscape:version="0.92.1 unknown"
   inkscape:export-filename="/home/galviiz/kibojoe-logo-txt.png"
   inkscape:export-xdpi="96"
   inkscape:export-ydpi="96">
  <metadata
     id="metadata8">
    <rdf:RDF>
      <cc:Work
         rdf:about="">
        <dc:format>image/svg+xml</dc:format>
        <dc:type
           rdf:resource="http://purl.org/dc/dcmitype/StillImage" />
        <dc:title></dc:title>
      </cc:Work>
    </rdf:RDF>
  </metadata>
  <defs
     id="defs6" />
  <sodipodi:namedview
     pagecolor="#ffffff"
     bordercolor="#666666"
     borderopacity="1"
     objecttolerance="10"
     gridtolerance="10"
     guidetolerance="10"
     inkscape:pageopacity="0"
     inkscape:pageshadow="2"
     inkscape:window-width="640"
     inkscape:window-height="480"
     id="namedview4"
     showgrid="false"
     inkscape:zoom="1.8120805"
     inkscape:cx="78.396488"
     inkscape:cy="-73.072442"
     inkscape:current-layer="layer1"
     inkscape:snap-global="false"
     showguides="false"
     inkscape:guide-bbox="true"
     inkscape:showpageshadow="false">
    <sodipodi:guide
       position="0,0"
       orientation="0,149"
       id="guide4948"
       inkscape:locked="false" />
    <sodipodi:guide
       position="149,0"
       orientation="-52,0"
       id="guide4950"
       inkscape:locked="false" />
    <sodipodi:guide
       position="149,52"
       orientation="0,-149"
       id="guide4952"
       inkscape:locked="false" />
    <sodipodi:guide
       position="0,52"
       orientation="52,0"
       id="guide4954"
       inkscape:locked="false" />
    <sodipodi:guide
       position="72.568519,36.146296"
       orientation="0,1"
       id="guide5402"
       inkscape:locked="false" />
    <sodipodi:guide
       position="77.121296,13.796296"
       orientation="0,1"
       id="guide5404"
       inkscape:locked="false" />
  </sodipodi:namedview>
  <g
     inkscape:groupmode="layer"
     id="layer4"
     inkscape:label="shadow"
     style="opacity:0.19">
    <path
       sodipodi:nodetypes="cccccc"
       inkscape:connector-curvature="0"
       id="path5442"
       d="m 13.760779,18.269715 c 0,0 -12.2060674,13.964927 -12.3671849,22.956607 8.2404082,-7.150084 32.4692889,1.949919 44.8284709,-1.223653 4.606784,-1.3377 -20.313111,-22.648662 -20.313111,-22.648662 0,0 -0.549906,1.113814 -5.148716,1.371852 -4.599586,0.236675 -6.999459,-0.456144 -6.999459,-0.456144 z"
       style="font-style:normal;font-variant:normal;font-weight:normal;font-stretch:normal;font-size:29.22245026px;line-height:1.25;font-family:Lato;-inkscape-font-specification:Lato;letter-spacing:0px;word-spacing:0px;display:inline;opacity:1;vector-effect:none;fill:#1e1e1e;fill-opacity:1;fill-rule:evenodd;stroke:none;stroke-width:2.05560422;stroke-linecap:butt;stroke-linejoin:miter;stroke-miterlimit:4;stroke-dasharray:none;stroke-dashoffset:0;stroke-opacity:1" />
    <g
       style="display:inline;opacity:1;fill:#1e1e1e;fill-opacity:1"
       transform="matrix(0.12357169,0,0,0.11047667,46.916055,38.949533)"
       id="g5440">
      <g
         id="g5438"
         transform="translate(21.751411,5.6884181)"
         style="fill:#1e1e1e;fill-opacity:1">
        <path
           sodipodi:nodetypes="ccccc"
           inkscape:connector-curvature="0"
           id="path5406"
           style="font-style:normal;font-variant:normal;font-weight:500;font-stretch:normal;font-size:medium;line-height:2.47021818px;font-family:Roboto;-inkscape-font-specification:'Roboto, Medium';font-variant-ligatures:normal;font-variant-caps:normal;font-variant-numeric:normal;font-feature-settings:normal;text-align:center;letter-spacing:0px;word-spacing:0px;writing-mode:lr-tb;text-anchor:middle;fill:#1e1e1e;fill-opacity:1;stroke:none;stroke-width:4.82396555px;stroke-linecap:butt;stroke-linejoin:miter;stroke-opacity:1"
           d="M 212.00692,-12.156971 H 180.06303 V -142.05175 h 31.94389 z" />
        <g
           aria-label="j"
           transform="matrix(2.5259963,0,0,2.2065675,-459.23998,-454.45257)"
           style="font-style:normal;font-variant:normal;font-weight:500;font-stretch:normal;font-size:114.39238739px;line-height:2.44513774px;font-family:Roboto;-inkscape-font-specification:'Roboto, Medium';font-variant-ligatures:normal;font-variant-caps:normal;font-variant-numeric:normal;font-feature-settings:normal;text-align:center;letter-spacing:0px;word-spacing:0px;writing-mode:lr-tb;text-anchor:middle;fill:#1e1e1e;fill-opacity:1;stroke:none;stroke-width:2.14485741px;stroke-linecap:butt;stroke-linejoin:miter;stroke-opacity:1"
           id="g5410">
          <path
             d="m 384.89264,142.95526 v 63.95473 c 0,6.66545 -1.73152,11.80417 -5.19457,15.41616 -3.46305,3.64924 -8.28526,5.47386 -14.46662,5.47386 -1.34053,0 -2.55074,-0.0745 -3.63062,-0.22342 -1.07987,-0.14895 -2.2156,-0.391 -3.40719,-0.72613 l 0.78198,-10.83599 c 0.63303,0.18618 1.41501,0.33513 2.34594,0.44684 0.93093,0.14895 1.78738,0.22342 2.56936,0.22342 2.3087,0 4.1147,-0.8006 5.418,-2.40179 1.34053,-1.56396 2.0108,-4.02161 2.0108,-7.37295 v -63.95473 z"
             style="fill:#1e1e1e;fill-opacity:1;stroke-width:2.14485741px"
             id="path5408"
             inkscape:connector-curvature="0"
             sodipodi:nodetypes="cscsccccscscc" />
        </g>
        <rect
           ry="6.8138552"
           y="-204.74924"
           x="180.20569"
           height="50.955795"
           width="34.055668"
           id="rect5412"
           style="display:inline;opacity:1;vector-effect:none;fill:#1e1e1e;fill-opacity:1;fill-rule:evenodd;stroke:none;stroke-width:4.4209981;stroke-linecap:butt;stroke-linejoin:miter;stroke-miterlimit:4;stroke-dasharray:none;stroke-dashoffset:0;stroke-opacity:1" />
        <rect
           style="display:inline;opacity:1;vector-effect:none;fill:#1e1e1e;fill-opacity:1;fill-rule:evenodd;stroke:none;stroke-width:4.16825199;stroke-linecap:butt;stroke-linejoin:miter;stroke-miterlimit:4;stroke-dasharray:none;stroke-dashoffset:0;stroke-opacity:1"
           id="rect5414"
           width="31.485819"
           height="48.99313"
           x="480.48868"
           y="-206.26628"
           ry="6.5514059" />
        <g
           aria-label="K"
           transform="matrix(0.95947668,0,0,1.0422348,-6.9519897,4.7620674)"
           style="font-style:normal;font-variant:normal;font-weight:normal;font-stretch:normal;font-size:259.71939087px;line-height:125%;font-family:Roboto;-inkscape-font-specification:Roboto;letter-spacing:0px;word-spacing:0px;fill:#1e1e1e;fill-opacity:1;stroke:none;stroke-width:6.49298477px;stroke-linecap:butt;stroke-linejoin:miter;stroke-opacity:1"
           id="g5418">
          <path
             d="M 97.357441,-89.603064 H 85.436727 v 74.060607 H 42.572882 V -200.18671 h 42.863845 v 72.28518 h 8.877127 l 41.722496,-72.28518 h 53.89685 l -58.08178,83.95226 63.02761,100.691993 h -55.03819 z"
             style="fill:#1e1e1e;fill-opacity:1;stroke-width:6.49298477px"
             id="path5416"
             inkscape:connector-curvature="0" />
        </g>
        <g
           aria-label="b"
           transform="matrix(0.95947669,0,0,1.0422348,-9.7080817,4.7620674)"
           style="font-style:normal;font-variant:normal;font-weight:normal;font-stretch:normal;font-size:259.71939087px;line-height:125%;font-family:Roboto;-inkscape-font-specification:Roboto;letter-spacing:0px;word-spacing:0px;fill:#1e1e1e;fill-opacity:1;stroke:none;stroke-width:6.49298477px;stroke-linecap:butt;stroke-linejoin:miter;stroke-opacity:1"
           id="g5422">
          <path
             d="m 369.80076,-81.233201 q 0,31.323579 -13.44251,49.838731 -13.44251,18.515152 -39.82026,18.515152 -11.15981,0 -19.52968,-4.819012 -8.36986,-4.819013 -14.33022,-13.949772 l -2.53632,16.105645 H 242.73102 V -213.37559 h 42.86384 v 73.9338 q 5.70673,-7.60897 13.18888,-11.66709 7.60896,-4.18493 17.50062,-4.18493 26.50457,0 39.94707,19.40287 13.56933,19.40286 13.56933,51.994601 z m -42.73703,-2.663138 q 0,-18.261521 -4.56538,-28.279991 -4.56538,-10.14529 -16.99336,-10.14529 -6.97488,0 -12.04753,2.66314 -4.94583,2.53632 -7.8626,7.48215 v 57.701328 q 3.04359,4.311748 7.98942,6.467622 5.07264,2.155873 12.17434,2.155873 12.68161,0 16.99336,-8.750311 4.31175,-8.877128 4.31175,-26.631383 z"
             style="fill:#1e1e1e;fill-opacity:1;stroke-width:6.49298477px"
             id="path5420"
             inkscape:connector-curvature="0" />
        </g>
        <text
           xml:space="preserve"
           style="font-style:normal;font-variant:normal;font-weight:normal;font-stretch:normal;font-size:259.71939087px;line-height:125%;font-family:Roboto;-inkscape-font-specification:Roboto;letter-spacing:0px;word-spacing:0px;fill:#1e1e1e;fill-opacity:1;stroke:none;stroke-width:6.49298477px;stroke-linecap:butt;stroke-linejoin:miter;stroke-opacity:1"
           x="356.62427"
           y="-13.239079"
           id="text5426"
           transform="scale(0.95947669,1.0422348)"><tspan
             sodipodi:role="line"
             id="tspan5424"
             x="356.62427"
             y="-13.239079"
             style="fill:#1e1e1e;fill-opacity:1;stroke-width:6.49298477px">o</tspan></text>
        <text
           xml:space="preserve"
           style="font-style:normal;font-variant:normal;font-weight:normal;font-stretch:normal;font-size:253.87792969px;line-height:125%;font-family:Roboto;-inkscape-font-specification:Roboto;letter-spacing:0px;word-spacing:0px;fill:#1e1e1e;fill-opacity:1;stroke:none;stroke-width:6.34694815px;stroke-linecap:butt;stroke-linejoin:miter;stroke-opacity:1"
           x="655.09674"
           y="-14.574894"
           id="text5430"
           transform="scale(0.98155319,1.0187935)"><tspan
             sodipodi:role="line"
             id="tspan5428"
             x="655.09674"
             y="-14.574894"
             style="fill:#1e1e1e;fill-opacity:1;stroke-width:6.34694815px">e</tspan></text>
        <text
           transform="scale(0.95947669,1.0422348)"
           id="text5434"
           y="-14.046788"
           x="533.24255"
           style="font-style:normal;font-variant:normal;font-weight:normal;font-stretch:normal;font-size:259.71939087px;line-height:125%;font-family:Roboto;-inkscape-font-specification:Roboto;letter-spacing:0px;word-spacing:0px;fill:#1e1e1e;fill-opacity:1;stroke:none;stroke-width:6.49298477px;stroke-linecap:butt;stroke-linejoin:miter;stroke-opacity:1"
           xml:space="preserve"><tspan
             style="fill:#1e1e1e;fill-opacity:1;stroke-width:6.49298477px"
             y="-14.046788"
             x="533.24255"
             id="tspan5432"
             sodipodi:role="line">o</tspan></text>
        <rect
           ry="7.0932307"
           y="-166.50479"
           x="566.15137"
           height="53.045036"
           width="31.485819"
           id="rect5436"
           style="display:inline;opacity:1;vector-effect:none;fill:#1e1e1e;fill-opacity:1;fill-rule:evenodd;stroke:none;stroke-width:4.33719301;stroke-linecap:butt;stroke-linejoin:miter;stroke-miterlimit:4;stroke-dasharray:none;stroke-dashoffset:0;stroke-opacity:1" />
      </g>
    </g>
  </g>
  <g
     inkscape:groupmode="layer"
     id="layer1"
     inkscape:label="logo"
     style="display:inline">
    <g
       id="g4676"
       transform="matrix(0.95742296,0,0,0.95742296,3.8075667,0.45439171)">
      <path
         style="font-style:normal;font-variant:normal;font-weight:normal;font-stretch:normal;font-size:29.22245026px;line-height:1.25;font-family:Lato;-inkscape-font-specification:Lato;letter-spacing:0px;word-spacing:0px;display:inline;opacity:1;vector-effect:none;fill:#32c05c;fill-opacity:1;fill-rule:evenodd;stroke:none;stroke-width:2.20539308;stroke-linecap:butt;stroke-linejoin:miter;stroke-miterlimit:4;stroke-dasharray:none;stroke-dashoffset:0;stroke-opacity:1"
         d="m 14.746631,13.77524 c 0,0 -12.7488773,15.38989 -12.9171597,25.299068 8.6068627,-7.879669 33.9132127,2.148886 46.8220137,-1.348513 4.81165,-1.474197 -21.216444,-24.959701 -21.216444,-24.959701 0,0 -0.574362,1.227467 -5.377683,1.511835 -4.804131,0.260825 -7.310727,-0.502689 -7.310727,-0.502689 z"
         id="path4702-6"
         inkscape:connector-curvature="0"
         sodipodi:nodetypes="cccccc" />
      <path
         d="m 14.746631,13.77524 5.588032,11.708361 c 0.652081,1.366281 7.058414,-1.347805 7.465589,1.8144 -0.414612,0.742305 -1.63044,1.311361 -3.176459,1.501199 -2.924931,0.359173 -5.120979,-0.531654 -6.145431,-2.504658 L 17.911922,25.20359 5.9732248,26.80294 c 0,0 -0.2731578,-0.160831 0.521018,1.383005 0.7941723,1.543836 10.6856562,5.504533 15.9354232,5.141731 5.24988,-0.362798 13.120618,-5.761541 11.550477,-8.625078 L 27.435041,12.766094 c 0,0 -2.932404,1.028838 -5.663801,1.356191 -2.731394,0.327356 -7.024609,-0.347045 -7.024609,-0.347045 z"
         style="font-style:normal;font-variant:normal;font-weight:normal;font-stretch:normal;font-size:140.26776123px;line-height:1.25;font-family:'Nimbus Sans L';-inkscape-font-specification:'Nimbus Sans L, Normal';font-variant-ligatures:normal;font-variant-caps:normal;font-variant-numeric:normal;font-feature-settings:normal;text-align:start;letter-spacing:0px;word-spacing:0px;writing-mode:lr-tb;text-anchor:start;display:inline;fill:#105289;fill-opacity:1;stroke:none;stroke-width:0.16729505"
         id="path4721-7"
         inkscape:connector-curvature="0"
         sodipodi:nodetypes="cscsscczssczc"
         inkscape:label="j-txt" />
      <path
         inkscape:label="circle-top"
         inkscape:connector-curvature="0"
         id="path4723-5"
         d="m 27.394023,10.285767 a 2.2192888,7.005081 85.635921 0 1 -6.790379,2.751869 2.2192888,7.005081 85.635921 0 1 -7.177851,-1.670016 2.2192888,7.005081 85.635921 0 1 6.790336,-2.7518731 2.2192888,7.005081 85.635921 0 1 7.177894,1.6700201 z"
         style="display:inline;opacity:1;vector-effect:none;fill:#105289;fill-opacity:1;fill-rule:evenodd;stroke:none;stroke-width:1.06084514;stroke-linecap:butt;stroke-linejoin:miter;stroke-miterlimit:4;stroke-dasharray:none;stroke-dashoffset:0;stroke-opacity:1" />
    </g>
    <g
       id="g6062"
       transform="matrix(0.12357169,0,0,0.11375953,48.237521,37.088505)"
       style="display:inline">
      <g
         transform="translate(21.751411,5.6884181)"
         id="g6123">
        <path
           d="M 212.00692,-12.156971 H 180.06303 V -142.05175 h 31.94389 z"
           style="font-style:normal;font-variant:normal;font-weight:500;font-stretch:normal;font-size:medium;line-height:2.47021818px;font-family:Roboto;-inkscape-font-specification:'Roboto, Medium';font-variant-ligatures:normal;font-variant-caps:normal;font-variant-numeric:normal;font-feature-settings:normal;text-align:center;letter-spacing:0px;word-spacing:0px;writing-mode:lr-tb;text-anchor:middle;fill:#32c05c;fill-opacity:1;stroke:none;stroke-width:4.82396555px;stroke-linecap:butt;stroke-linejoin:miter;stroke-opacity:1"
           id="path6030"
           inkscape:connector-curvature="0"
           sodipodi:nodetypes="ccccc" />
        <g
           id="text5985"
           style="font-style:normal;font-variant:normal;font-weight:500;font-stretch:normal;font-size:114.39238739px;line-height:2.44513774px;font-family:Roboto;-inkscape-font-specification:'Roboto, Medium';font-variant-ligatures:normal;font-variant-caps:normal;font-variant-numeric:normal;font-feature-settings:normal;text-align:center;letter-spacing:0px;word-spacing:0px;writing-mode:lr-tb;text-anchor:middle;fill:#105289;fill-opacity:1;stroke:none;stroke-width:2.14485741px;stroke-linecap:butt;stroke-linejoin:miter;stroke-opacity:1"
           transform="matrix(2.5259963,0,0,2.2065675,-459.23998,-454.45257)"
           aria-label="j">
          <path
             sodipodi:nodetypes="cscsccccscscc"
             inkscape:connector-curvature="0"
             id="path6010"
             style="fill:#105289;fill-opacity:1;stroke-width:2.14485741px"
             d="m 384.89264,142.95526 v 63.95473 c 0,6.66545 -1.73152,11.80417 -5.19457,15.41616 -3.46305,3.64924 -8.28526,5.47386 -14.46662,5.47386 -1.34053,0 -2.55074,-0.0745 -3.63062,-0.22342 -1.07987,-0.14895 -2.2156,-0.391 -3.40719,-0.72613 l 0.78198,-10.83599 c 0.63303,0.18618 1.41501,0.33513 2.34594,0.44684 0.93093,0.14895 1.78738,0.22342 2.56936,0.22342 2.3087,0 4.1147,-0.8006 5.418,-2.40179 1.34053,-1.56396 2.0108,-4.02161 2.0108,-7.37295 v -63.95473 z" />
        </g>
        <rect
           style="display:inline;opacity:1;vector-effect:none;fill:#105289;fill-opacity:1;fill-rule:evenodd;stroke:none;stroke-width:4.4209981;stroke-linecap:butt;stroke-linejoin:miter;stroke-miterlimit:4;stroke-dasharray:none;stroke-dashoffset:0;stroke-opacity:1"
           id="rect6041"
           width="34.055668"
           height="50.955795"
           x="180.20569"
           y="-204.74924"
           ry="6.8138552" />
        <rect
           ry="6.5514059"
           y="-206.26628"
           x="480.48868"
           height="48.99313"
           width="31.485819"
           id="rect6045"
           style="display:inline;opacity:1;vector-effect:none;fill:#105289;fill-opacity:1;fill-rule:evenodd;stroke:none;stroke-width:4.16825199;stroke-linecap:butt;stroke-linejoin:miter;stroke-miterlimit:4;stroke-dasharray:none;stroke-dashoffset:0;stroke-opacity:1" />
        <g
           id="text4572"
           style="font-style:normal;font-variant:normal;font-weight:normal;font-stretch:normal;font-size:259.71939087px;line-height:125%;font-family:Roboto;-inkscape-font-specification:Roboto;letter-spacing:0px;word-spacing:0px;fill:#105289;fill-opacity:1;stroke:none;stroke-width:6.49298477px;stroke-linecap:butt;stroke-linejoin:miter;stroke-opacity:1"
           transform="matrix(0.95947668,0,0,1.0422348,-6.9519897,4.7620674)"
           aria-label="K">
          <path
             inkscape:connector-curvature="0"
             id="path4622"
             style="fill:#105289;fill-opacity:1;stroke-width:6.49298477px"
             d="M 97.357441,-89.603064 H 85.436727 v 74.060607 H 42.572882 V -200.18671 h 42.863845 v 72.28518 h 8.877127 l 41.722496,-72.28518 h 53.89685 l -58.08178,83.95226 63.02761,100.691993 h -55.03819 z" />
        </g>
        <g
           id="text4581"
           style="font-style:normal;font-variant:normal;font-weight:normal;font-stretch:normal;font-size:259.71939087px;line-height:125%;font-family:Roboto;-inkscape-font-specification:Roboto;letter-spacing:0px;word-spacing:0px;fill:#105289;fill-opacity:1;stroke:none;stroke-width:6.49298477px;stroke-linecap:butt;stroke-linejoin:miter;stroke-opacity:1"
           transform="matrix(0.95947669,0,0,1.0422348,-9.7080817,4.7620674)"
           aria-label="b">
          <path
             inkscape:connector-curvature="0"
             id="path4619"
             style="fill:#105289;fill-opacity:1;stroke-width:6.49298477px"
             d="m 369.80076,-81.233201 q 0,31.323579 -13.44251,49.838731 -13.44251,18.515152 -39.82026,18.515152 -11.15981,0 -19.52968,-4.819012 -8.36986,-4.819013 -14.33022,-13.949772 l -2.53632,16.105645 H 242.73102 V -213.37559 h 42.86384 v 73.9338 q 5.70673,-7.60897 13.18888,-11.66709 7.60896,-4.18493 17.50062,-4.18493 26.50457,0 39.94707,19.40287 13.56933,19.40286 13.56933,51.994601 z m -42.73703,-2.663138 q 0,-18.261521 -4.56538,-28.279991 -4.56538,-10.14529 -16.99336,-10.14529 -6.97488,0 -12.04753,2.66314 -4.94583,2.53632 -7.8626,7.48215 v 57.701328 q 3.04359,4.311748 7.98942,6.467622 5.07264,2.155873 12.17434,2.155873 12.68161,0 16.99336,-8.750311 4.31175,-8.877128 4.31175,-26.631383 z" />
        </g>
        <text
           transform="scale(0.95947669,1.0422348)"
           id="text4644"
           y="-13.239079"
           x="356.62427"
           style="font-style:normal;font-variant:normal;font-weight:normal;font-stretch:normal;font-size:259.71939087px;line-height:125%;font-family:Roboto;-inkscape-font-specification:Roboto;letter-spacing:0px;word-spacing:0px;fill:#105289;fill-opacity:1;stroke:none;stroke-width:6.49298477px;stroke-linecap:butt;stroke-linejoin:miter;stroke-opacity:1"
           xml:space="preserve"><tspan
             style="fill:#105289;fill-opacity:1;stroke-width:6.49298477px"
             y="-13.239079"
             x="356.62427"
             id="tspan4642"
             sodipodi:role="line">o</tspan></text>
        <text
           transform="scale(0.98155319,1.0187935)"
           id="text4650"
           y="-14.574894"
           x="655.09674"
           style="font-style:normal;font-variant:normal;font-weight:normal;font-stretch:normal;font-size:253.87792969px;line-height:125%;font-family:Roboto;-inkscape-font-specification:Roboto;letter-spacing:0px;word-spacing:0px;fill:#105289;fill-opacity:1;stroke:none;stroke-width:6.34694815px;stroke-linecap:butt;stroke-linejoin:miter;stroke-opacity:1"
           xml:space="preserve"><tspan
             style="fill:#105289;fill-opacity:1;stroke-width:6.34694815px"
             y="-14.574894"
             x="655.09674"
             id="tspan4648"
             sodipodi:role="line">e</tspan></text>
        <text
           xml:space="preserve"
           style="font-style:normal;font-variant:normal;font-weight:normal;font-stretch:normal;font-size:259.71939087px;line-height:125%;font-family:Roboto;-inkscape-font-specification:Roboto;letter-spacing:0px;word-spacing:0px;fill:#32c05c;fill-opacity:1;stroke:none;stroke-width:6.49298477px;stroke-linecap:butt;stroke-linejoin:miter;stroke-opacity:1"
           x="533.24255"
           y="-14.046788"
           id="text4946"
           transform="scale(0.95947669,1.0422348)"><tspan
             sodipodi:role="line"
             id="tspan4944"
             x="533.24255"
             y="-14.046788"
             style="fill:#32c05c;fill-opacity:1;stroke-width:6.49298477px">o</tspan></text>
        <rect
           style="display:inline;opacity:1;vector-effect:none;fill:#105289;fill-opacity:1;fill-rule:evenodd;stroke:none;stroke-width:4.33719301;stroke-linecap:butt;stroke-linejoin:miter;stroke-miterlimit:4;stroke-dasharray:none;stroke-dashoffset:0;stroke-opacity:1"
           id="rect4956"
           width="31.485819"
           height="53.045036"
           x="566.15137"
           y="-166.50479"
           ry="7.0932307" />
      </g>
    </g>
  </g>
</svg>
