<?xml version="1.0" encoding="UTF-8" standalone="no"?>
<!-- Created with Inkscape (http://www.inkscape.org/) -->

<svg
   xmlns:dc="http://purl.org/dc/elements/1.1/"
   xmlns:cc="http://creativecommons.org/ns#"
   xmlns:rdf="http://www.w3.org/1999/02/22-rdf-syntax-ns#"
   xmlns:svg="http://www.w3.org/2000/svg"
   xmlns="http://www.w3.org/2000/svg"
   xmlns:sodipodi="http://sodipodi.sourceforge.net/DTD/sodipodi-0.dtd"
   xmlns:inkscape="http://www.inkscape.org/namespaces/inkscape"
   width="20in"
   height="20in"
   viewBox="0 0 508 508.00001"
   version="1.1"
   id="svg4752"
   inkscape:version="0.92.1 unknown"
   sodipodi:docname="kibo-logos-2017.svg"
   inkscape:export-filename="/home/beerto/kibojoe-linux-set1.png"
   inkscape:export-xdpi="96"
   inkscape:export-ydpi="96">
  <defs
     id="defs4746">
    <inkscape:path-effect
       fuse_tolerance="0"
       vertical_pattern="false"
       prop_units="false"
       tang_offset="0"
       normal_offset="0"
       spacing="0"
       scale_y_rel="false"
       prop_scale="0.50918193"
       copytype="single_stretched"
       pattern="m 99.649471,-37.445002 a 8.8198939,4.5435822 0 0 1 -8.819892,4.543582 8.8198939,4.5435822 0 0 1 -8.819894,-4.543582 8.8198939,4.5435822 0 0 1 8.819894,-4.543582 8.8198939,4.5435822 0 0 1 8.819892,4.543582 z"
       is_visible="true"
       id="path-effect4555"
       effect="skeletal" />
    <inkscape:path-effect
       effect="skeletal"
       id="path-effect4541"
       is_visible="true"
       pattern="m 100.49334,-44.303197 a 8.8198939,4.5435822 0 0 1 -8.819892,4.543582 8.8198939,4.5435822 0 0 1 -8.819894,-4.543582 8.8198939,4.5435822 0 0 1 8.819894,-4.543582 8.8198939,4.5435822 0 0 1 8.819892,4.543582 z"
       copytype="single_stretched"
       prop_scale="0.50918193"
       scale_y_rel="false"
       spacing="0"
       normal_offset="0"
       tang_offset="0"
       prop_units="false"
       vertical_pattern="false"
       fuse_tolerance="0" />
  </defs>
  <sodipodi:namedview
     id="base"
     pagecolor="#ffffff"
     bordercolor="#666666"
     borderopacity="1.0"
     inkscape:pageopacity="0"
     inkscape:pageshadow="2"
     inkscape:zoom="0.175"
     inkscape:cx="1018.7405"
     inkscape:cy="350.84031"
     inkscape:document-units="mm"
     inkscape:current-layer="layer1"
     showgrid="false"
     units="in"
     inkscape:snap-global="false"
     inkscape:showpageshadow="false"
     showguides="false"
     inkscape:lockguides="false"
     inkscape:guide-bbox="true">
    <sodipodi:guide
       position="0,0"
       orientation="0,1920"
       id="guide4588"
       inkscape:locked="false" />
    <sodipodi:guide
       position="508,0"
       orientation="-1920,0"
       id="guide4590"
       inkscape:locked="false" />
    <sodipodi:guide
       position="508,508"
       orientation="0,-1920"
       id="guide4592"
       inkscape:locked="false" />
    <sodipodi:guide
       position="0,508"
       orientation="1920,0"
       id="guide4594"
       inkscape:locked="false" />
    <sodipodi:guide
       position="254.17332,254.70787"
       orientation="1,0"
       id="guide4606"
       inkscape:locked="false" />
    <sodipodi:guide
       position="160.36172,283.30571"
       orientation="0,1"
       id="guide4639"
       inkscape:locked="false" />
  </sodipodi:namedview>
  <metadata
     id="metadata4749">
    <rdf:RDF>
      <cc:Work
         rdf:about="">
        <dc:format>image/svg+xml</dc:format>
        <dc:type
           rdf:resource="http://purl.org/dc/dcmitype/StillImage" />
        <dc:title></dc:title>
      </cc:Work>
    </rdf:RDF>
  </metadata>
  <g
     inkscape:groupmode="layer"
     id="layer2"
     inkscape:label="bg"
     style="display:inline;opacity:0" />
  <g
     inkscape:label="logos-all"
     inkscape:groupmode="layer"
     id="layer1"
     style="display:inline"
     transform="translate(0,211.00001)">
    <ellipse
       ry="41.996094"
       rx="52.623775"
       cy="-139.14331"
       cx="55.376553"
       id="ellipse5394"
       style="opacity:1;vector-effect:none;fill:#242424;fill-opacity:1;fill-rule:evenodd;stroke:none;stroke-width:0.10896727;stroke-linecap:butt;stroke-linejoin:miter;stroke-miterlimit:4;stroke-dasharray:none;stroke-dashoffset:0;stroke-opacity:1" />
    <path
       style="font-style:normal;font-variant:normal;font-weight:normal;font-stretch:normal;font-size:29.22245026px;line-height:1.25;font-family:Lato;-inkscape-font-specification:Lato;letter-spacing:0px;word-spacing:0px;display:inline;opacity:1;vector-effect:none;fill:#8b8b8b;fill-opacity:1;fill-rule:evenodd;stroke:none;stroke-width:4.65706062;stroke-linecap:butt;stroke-linejoin:miter;stroke-miterlimit:4;stroke-dasharray:none;stroke-dashoffset:0;stroke-opacity:1"
       d="m 41.643718,-168.03113 c 0,0 -28.181065,32.39035 -29.318536,53.9651 18.202612,-16.10821 69.06323,8.87689 95.697378,2.85112 9.9413,-2.61779 -38.449933,-56.81622 -38.449933,-56.81622 0,0 -4.135646,2.40071 -13.96465,2.42648 -9.82873,-0.0257 -13.964259,-2.42648 -13.964259,-2.42648 z"
       id="path5396"
       inkscape:connector-curvature="0"
       sodipodi:nodetypes="cccccc" />
    <path
       inkscape:label="j-txt"
       sodipodi:nodetypes="cscssccsssczc"
       inkscape:connector-curvature="0"
       id="path5398"
       style="font-style:normal;font-variant:normal;font-weight:normal;font-stretch:normal;font-size:140.26776123px;line-height:1.25;font-family:'Nimbus Sans L';-inkscape-font-specification:'Nimbus Sans L, Normal';font-variant-ligatures:normal;font-variant-caps:normal;font-variant-numeric:normal;font-feature-settings:normal;text-align:start;letter-spacing:0px;word-spacing:0px;writing-mode:lr-tb;text-anchor:start;display:inline;fill:#242424;fill-opacity:1;stroke:none;stroke-width:0.38660151"
       d="m 41.643718,-168.03113 15.234864,32.48571 c 1.771857,3.77819 13.8759,-2.10249 15.725201,6.41862 -0.600411,1.89234 -2.881492,3.15314 -5.954889,3.33259 -5.814544,0.33952 -10.555805,-2.50115 -13.271766,-7.98066 l -1.501729,-3.02983 -24.230891,1.41491 2.044949,4.12574 c 3.770355,7.60685 22.21522,14.41279 32.598281,13.80649 10.549196,-0.61599 26.03263,-9.16286 22.006669,-17.28543 l -14.72178,-33.28814 c 0,0 -7.97828,0.0355 -12.801546,0.14113 -4.823248,0.10545 -15.127363,-0.14113 -15.127363,-0.14113 z" />
    <path
       style="display:inline;opacity:1;vector-effect:none;fill:#a4a4a4;fill-opacity:1;fill-rule:evenodd;stroke:none;stroke-width:1.87692809;stroke-linecap:butt;stroke-linejoin:miter;stroke-miterlimit:4;stroke-dasharray:none;stroke-dashoffset:0;stroke-opacity:1"
       d="m 69.530074,-174.06631 a 14.153538,3.4383746 0 0 1 -14.153552,3.43838 14.153538,3.4383746 0 0 1 -14.153493,-3.43838 14.153538,3.4383746 0 0 1 14.153493,-3.43838 14.153538,3.4383746 0 0 1 14.153552,3.43838 z"
       id="path5400"
       inkscape:connector-curvature="0"
       inkscape:label="circle-top" />
    <text
       xml:space="preserve"
       style="font-style:normal;font-variant:normal;font-weight:normal;font-stretch:normal;font-size:19.69259453px;line-height:125%;font-family:Roboto;-inkscape-font-specification:'Roboto, Normal';font-variant-ligatures:normal;font-variant-caps:normal;font-variant-numeric:normal;text-align:start;letter-spacing:0px;word-spacing:0px;writing-mode:lr-tb;text-anchor:start;fill:#242424;fill-opacity:1;stroke:none;stroke-width:0.49231488px;stroke-linecap:butt;stroke-linejoin:miter;stroke-opacity:1"
       x="6.8870869"
       y="-63.279591"
       id="text5419"
       transform="scale(0.81866169,1.2215058)"><tspan
         sodipodi:role="line"
         x="6.8870869"
         y="-63.279591"
         style="fill:#242424;fill-opacity:1;stroke-width:0.49231488px"
         id="tspan5417">Kibojoe Linux</tspan></text>
    <ellipse
       style="opacity:1;vector-effect:none;fill:#242424;fill-opacity:1;fill-rule:evenodd;stroke:none;stroke-width:0.10827156;stroke-linecap:butt;stroke-linejoin:miter;stroke-miterlimit:4;stroke-dasharray:none;stroke-dashoffset:0;stroke-opacity:1"
       id="ellipse4526"
       cx="179.92416"
       cy="-136.47067"
       rx="52.623775"
       ry="41.461555" />
    <path
       sodipodi:nodetypes="cccccc"
       inkscape:connector-curvature="0"
       id="path4528"
       d="m 154.966,-168.03113 c 0,0 -28.18107,32.39035 -29.31854,53.9651 18.20262,-16.10821 69.06323,8.87689 95.69738,2.85112 9.9413,-2.61779 -38.44993,-56.81622 -38.44993,-56.81622 0,0 -4.13565,2.40071 -13.96465,2.42648 -9.82873,-0.0257 -13.96426,-2.42648 -13.96426,-2.42648 z"
       style="font-style:normal;font-variant:normal;font-weight:normal;font-stretch:normal;font-size:29.22245026px;line-height:1.25;font-family:Lato;-inkscape-font-specification:Lato;letter-spacing:0px;word-spacing:0px;display:inline;opacity:1;vector-effect:none;fill:#8b8b8b;fill-opacity:1;fill-rule:evenodd;stroke:none;stroke-width:4.65706062;stroke-linecap:butt;stroke-linejoin:miter;stroke-miterlimit:4;stroke-dasharray:none;stroke-dashoffset:0;stroke-opacity:1" />
    <path
       d="m 164.65398,-159.26725 16.59433,29.03279 c 1.92997,3.37661 13.48798,-2.69177 15.7372,5.04103 -0.49119,1.77258 -2.66154,3.05645 -5.6637,3.3895 -5.67978,0.63012 -10.47111,-1.72218 -13.41343,-6.61127 l -1.6269,-2.70337 -23.66926,2.62593 2.21538,3.68119 c 4.08459,6.78722 22.50645,12.0356 32.64884,10.91038 10.3047,-1.14323 25.03708,-9.8476 20.67558,-17.09497 l -16.13278,-29.79857 c 0,0 -7.81544,0.46895 -12.53594,0.82983 -4.72051,0.36072 -14.82932,0.69753 -14.82932,0.69753 z"
       style="font-style:normal;font-variant:normal;font-weight:normal;font-stretch:normal;font-size:140.26776123px;line-height:1.25;font-family:'Nimbus Sans L';-inkscape-font-specification:'Nimbus Sans L, Normal';font-variant-ligatures:normal;font-variant-caps:normal;font-variant-numeric:normal;font-feature-settings:normal;text-align:start;letter-spacing:0px;word-spacing:0px;writing-mode:lr-tb;text-anchor:start;display:inline;fill:#242424;fill-opacity:1;stroke:none;stroke-width:0.36749697"
       id="path4530"
       inkscape:connector-curvature="0"
       sodipodi:nodetypes="cscssccsssczc"
       inkscape:label="j-txt" />
    <path
       inkscape:label="circle-top"
       inkscape:connector-curvature="0"
       id="path4532"
       d="m 181.43291,-172.4789 a 12.547138,3.69826 0 0 1 -12.54716,3.69826 12.547138,3.69826 0 0 1 -12.54709,-3.69826 12.547138,3.69826 0 0 1 12.54709,-3.69827 12.547138,3.69826 0 0 1 12.54716,3.69827 z"
       style="display:inline;opacity:1;vector-effect:none;fill:#a4a4a4;fill-opacity:1;fill-rule:evenodd;stroke:none;stroke-width:1.83277678;stroke-linecap:butt;stroke-linejoin:miter;stroke-miterlimit:4;stroke-dasharray:none;stroke-dashoffset:0;stroke-opacity:1" />
    <text
       transform="scale(0.81866169,1.2215058)"
       id="text4536"
       y="30.863621"
       x="166.03719"
       style="font-style:normal;font-variant:normal;font-weight:normal;font-stretch:normal;font-size:19.69259453px;line-height:125%;font-family:Roboto;-inkscape-font-specification:'Roboto, Normal';font-variant-ligatures:normal;font-variant-caps:normal;font-variant-numeric:normal;text-align:start;letter-spacing:0px;word-spacing:0px;writing-mode:lr-tb;text-anchor:start;fill:#242424;fill-opacity:1;stroke:none;stroke-width:0.49231488px;stroke-linecap:butt;stroke-linejoin:miter;stroke-opacity:1"
       xml:space="preserve"><tspan
         id="tspan4534"
         style="fill:#242424;fill-opacity:1;stroke-width:0.49231488px"
         y="30.863621"
         x="166.03719"
         sodipodi:role="line">Kibojoe Linux</tspan></text>
    <path
       style="opacity:1;vector-effect:none;fill:#242424;fill-opacity:1;fill-rule:evenodd;stroke:none;stroke-width:0.10896727;stroke-linecap:butt;stroke-linejoin:miter;stroke-miterlimit:4;stroke-dasharray:none;stroke-dashoffset:0;stroke-opacity:1"
       d="m 326.00749,-181.13967 a 52.623775,41.996092 0 0 0 -52.62367,41.99588 52.623775,41.996092 0 0 0 9.63972,24.13858 c 1.87728,-21.56224 29.25094,-53.0257 29.25094,-53.0257 l 15.23523,32.48535 c 1.77186,3.77819 13.87584,-2.10238 15.72514,6.41873 -0.60039,1.89234 -2.88179,3.15317 -5.95519,3.33262 -5.81453,0.33951 -10.55557,-2.50141 -13.27152,-7.98091 l -1.50172,-3.02979 -24.2311,1.4149 2.04486,4.12585 c 3.77034,7.60684 22.21545,14.41269 32.59852,13.80639 10.54917,-0.61599 26.03288,-9.16268 22.00693,-17.28525 l -14.72211,-33.28789 c 0,0 24.22583,27.13454 34.8728,43.93168 a 52.623775,41.996092 0 0 0 3.55483,-15.04456 52.623775,41.996092 0 0 0 -52.62366,-41.99588 z m 0,3.63492 a 14.153537,3.4383747 0 0 1 14.15364,3.43855 14.153537,3.4383747 0 0 1 -14.15364,3.43803 14.153537,3.4383747 0 0 1 -14.15365,-3.43803 14.153537,3.4383747 0 0 1 14.15365,-3.43855 z m -24.16442,57.93599 c -7.4562,0.0164 -13.84351,1.37029 -18.36995,5.06533 a 52.623775,41.996092 0 0 0 42.53437,17.356114 52.623775,41.996092 0 0 0 38.28603,-13.260234 c -19.43706,-1.19923 -44.15761,-9.20132 -62.45045,-9.16121 z"
       id="ellipse4538"
       inkscape:connector-curvature="0" />
    <text
       transform="scale(0.81866169,1.2215058)"
       id="text4548"
       y="-63.279591"
       x="337.46439"
       style="font-style:normal;font-variant:normal;font-weight:normal;font-stretch:normal;font-size:19.69259453px;line-height:125%;font-family:Roboto;-inkscape-font-specification:'Roboto, Normal';font-variant-ligatures:normal;font-variant-caps:normal;font-variant-numeric:normal;text-align:start;letter-spacing:0px;word-spacing:0px;writing-mode:lr-tb;text-anchor:start;fill:#242424;fill-opacity:1;stroke:none;stroke-width:0.49231488px;stroke-linecap:butt;stroke-linejoin:miter;stroke-opacity:1"
       xml:space="preserve"><tspan
         id="tspan4546"
         style="fill:#242424;fill-opacity:1;stroke-width:0.49231488px"
         y="-63.279591"
         x="337.46439"
         sodipodi:role="line">Kibojoe Linux</tspan></text>
    <path
       style="opacity:1;vector-effect:none;fill:#242424;fill-opacity:1;fill-rule:evenodd;stroke:none;stroke-width:0.50800002;stroke-linecap:butt;stroke-linejoin:miter;stroke-miterlimit:4;stroke-dasharray:none;stroke-dashoffset:0;stroke-opacity:1"
       d="m 450.55493,-177.93263 a 52.623775,41.461555 0 0 0 -16.51786,2.1301 12.547138,3.6982601 0 0 1 5.47976,-0.37465 12.547138,3.6982601 0 0 1 12.54705,3.69848 12.547138,3.6982601 0 0 1 -12.54705,3.69796 12.547138,3.6982601 0 0 1 -12.54704,-3.69796 12.547138,3.6982601 0 0 1 0.85061,-1.32757 52.623775,41.461555 0 0 0 -29.88914,37.33519 52.623775,41.461555 0 0 0 1.45521,9.46712 c 7.5733,-19.60534 26.21029,-41.02695 26.21029,-41.02695 0,0 4.13578,2.40051 13.96452,2.42621 9.82901,-0.0258 13.96452,-2.42621 13.96452,-2.42621 0,0 2.60295,2.91751 6.45541,7.40213 -2.58619,0.15999 -6.54716,0.41024 -9.86707,0.66404 -4.72052,0.36072 -14.82908,0.69763 -14.82908,0.69763 l 16.59432,29.03285 c 1.92998,3.37662 13.48783,-2.69176 15.73702,5.04104 -0.49117,1.77258 -2.66157,3.05641 -5.66372,3.38946 -5.67979,0.63012 -10.47081,-1.72239 -13.41313,-6.61148 l -1.6273,-2.7032 -23.66883,2.62568 2.21536,3.68143 c 1.82972,3.04039 6.53899,5.76946 12.08971,7.75767 -7.94578,-1.43815 -15.60706,-2.52999 -22.38364,-2.5151 -4.30909,0.009 -8.26027,0.46637 -11.70266,1.5627 a 52.623775,41.461555 0 0 0 47.09274,22.996598 52.623775,41.461555 0 0 0 41.77832,-16.336018 c -0.11012,0.0515 -0.22784,0.0966 -0.35761,0.13074 -10.03777,2.27098 -23.5172,0.13616 -37.39203,-2.54248 1.24981,0.0199 2.43647,-0.023 3.52383,-0.14366 10.3047,-1.14323 25.03723,-9.84772 20.67573,-17.09508 l -11.10578,-20.51348 c 12.17255,14.68971 27.48097,34.55793 25.46098,39.32938 a 52.623775,41.461555 0 0 0 10.04073,-24.29102 52.623775,41.461555 0 0 0 -52.62417,-41.46155 z"
       id="ellipse4550"
       inkscape:connector-curvature="0" />
    <text
       xml:space="preserve"
       style="font-style:normal;font-variant:normal;font-weight:normal;font-stretch:normal;font-size:19.69259453px;line-height:125%;font-family:Roboto;-inkscape-font-specification:'Roboto, Normal';font-variant-ligatures:normal;font-variant-caps:normal;font-variant-numeric:normal;text-align:start;letter-spacing:0px;word-spacing:0px;writing-mode:lr-tb;text-anchor:start;fill:#242424;fill-opacity:1;stroke:none;stroke-width:0.49231488px;stroke-linecap:butt;stroke-linejoin:miter;stroke-opacity:1"
       x="489.59998"
       y="-61.529163"
       id="text4560"
       transform="scale(0.81866169,1.2215058)"><tspan
         sodipodi:role="line"
         x="489.59998"
         y="-61.529163"
         style="fill:#242424;fill-opacity:1;stroke-width:0.49231488px"
         id="tspan4558">Kibojoe Linux</tspan></text>
    <text
       xml:space="preserve"
       style="font-style:normal;font-variant:normal;font-weight:normal;font-stretch:normal;font-size:10.58333302px;line-height:125%;font-family:Roboto;-inkscape-font-specification:'Roboto, Normal';font-variant-ligatures:normal;font-variant-caps:normal;font-variant-numeric:normal;text-align:start;letter-spacing:0px;word-spacing:0px;writing-mode:lr-tb;text-anchor:start;fill:#000000;fill-opacity:1;stroke:none;stroke-width:0.26458332px;stroke-linecap:butt;stroke-linejoin:miter;stroke-opacity:1"
       x="85.800598"
       y="-190.13557"
       id="text4621"><tspan
         sodipodi:role="line"
         id="tspan4619"
         x="85.800598"
         y="-190.13557"
         style="font-size:19.75555611px;stroke-width:0.26458332px">INTACT</tspan></text>
    <text
       id="text4625"
       y="-190.13557"
       x="349.86288"
       style="font-style:normal;font-variant:normal;font-weight:normal;font-stretch:normal;font-size:10.58333302px;line-height:125%;font-family:Roboto;-inkscape-font-specification:'Roboto, Normal';font-variant-ligatures:normal;font-variant-caps:normal;font-variant-numeric:normal;text-align:start;letter-spacing:0px;word-spacing:0px;writing-mode:lr-tb;text-anchor:start;fill:#000000;fill-opacity:1;stroke:none;stroke-width:0.26458332px;stroke-linecap:butt;stroke-linejoin:miter;stroke-opacity:1"
       xml:space="preserve"><tspan
         style="font-size:19.75555611px;stroke-width:0.26458332px"
         y="-190.13557"
         x="349.86288"
         id="tspan4623"
         sodipodi:role="line">CUT-OUT</tspan></text>
    <path
       style="opacity:1;vector-effect:none;fill:#000000;fill-opacity:1;fill-rule:evenodd;stroke:#000018;stroke-width:2.365;stroke-linecap:butt;stroke-linejoin:miter;stroke-miterlimit:4;stroke-dasharray:none;stroke-dashoffset:0;stroke-opacity:1"
       d="M 254.17331,-211 V 296.99998 Z"
       id="path4633"
       inkscape:connector-curvature="0" />
    <path
       style="font-style:normal;font-variant:normal;font-weight:normal;font-stretch:normal;font-size:29.22245026px;line-height:1.25;font-family:Lato;-inkscape-font-specification:Lato;letter-spacing:0px;word-spacing:0px;display:inline;opacity:1;vector-effect:none;fill:#bababa;fill-opacity:1;fill-rule:evenodd;stroke:none;stroke-width:5.20517778;stroke-linecap:butt;stroke-linejoin:miter;stroke-miterlimit:4;stroke-dasharray:none;stroke-dashoffset:0;stroke-opacity:1"
       d="m 164.21286,-36.388748 c 0,0 -32.96945,35.2118908 -34.55694,58.549024 21.23453,-17.5391827 79.68006,9.140666 110.52826,2.448099 11.51888,-2.896661 -47.38871,-62.895194 -47.38871,-62.895194 0,0 -1.12338,4.336193 -12.47968,4.429266 -11.35536,0.03742 -16.10293,-2.531195 -16.10293,-2.531195 z"
       id="path4678"
       inkscape:connector-curvature="0"
       sodipodi:nodetypes="cccccc" />
    <path
       d="m 168.48061,-27.614672 12.75363,27.95054676 c 1.48326,3.25073814 16.71988,-2.84565706 17.53071,4.63560924 -1.01358,1.7319551 -3.9096,3.0171002 -7.5668,3.3917472 -6.91907,0.7088204 -12.05889,-1.4974764 -14.38274,-6.2018157 l -1.2849,-2.60121141 -28.42198,3.49969011 c 0,0 -0.17252,-0.386361 1.33791,2.9962812 1.51043,3.3826462 23.90506,11.3225596 36.26046,10.0568066 12.55315,-1.286015 31.71512,-9.8522896 28.764,-16.97283758 L 201.35052,-30.104236 c 0,0 -9.42452,0.588231 -15.13565,1.019015 -5.71111,0.430629 -17.73426,1.470549 -17.73426,1.470549 z"
       style="font-style:normal;font-variant:normal;font-weight:normal;font-stretch:normal;font-size:140.26776123px;line-height:1.25;font-family:'Nimbus Sans L';-inkscape-font-specification:'Nimbus Sans L, Normal';font-variant-ligatures:normal;font-variant-caps:normal;font-variant-numeric:normal;font-feature-settings:normal;text-align:start;letter-spacing:0px;word-spacing:0px;writing-mode:lr-tb;text-anchor:start;display:inline;fill:#242424;fill-opacity:1;stroke:none;stroke-width:0.39485046"
       id="path4680"
       inkscape:connector-curvature="0"
       sodipodi:nodetypes="cscsscczssccc"
       inkscape:label="j-txt" />
    <path
       inkscape:label="circle-top"
       inkscape:connector-curvature="0"
       id="path4682"
       d="m 192.96984,-37.474319 a 16.533421,5.2379744 0.42488389 0 1 -16.51297,5.134289 16.533421,5.2379744 0.42488389 0 1 -16.55299,-5.342176 16.533421,5.2379744 0.42488389 0 1 16.51288,-5.134305 16.533421,5.2379744 0.42488389 0 1 16.55308,5.342192 z"
       style="display:inline;opacity:1;vector-effect:none;fill:#242424;fill-opacity:1;fill-rule:evenodd;stroke:none;stroke-width:2.50381112;stroke-linecap:butt;stroke-linejoin:miter;stroke-miterlimit:4;stroke-dasharray:none;stroke-dashoffset:0;stroke-opacity:1" />
    <path
       style="font-style:normal;font-variant:normal;font-weight:normal;font-stretch:normal;font-size:29.22245026px;line-height:1.25;font-family:Lato;-inkscape-font-specification:Lato;letter-spacing:0px;word-spacing:0px;display:inline;opacity:1;vector-effect:none;fill:#242424;fill-opacity:1;fill-rule:evenodd;stroke:none;stroke-width:5.20517778;stroke-linecap:butt;stroke-linejoin:miter;stroke-miterlimit:4;stroke-dasharray:none;stroke-dashoffset:0;stroke-opacity:1"
       d="m 326.96357,-39.798733 c 0,0 -0.0174,0.04477 -0.0212,0.05685 a 16.53342,5.2379744 0.42488389 0 1 0.19587,0.75551 16.53342,5.2379744 0.42488389 0 1 -16.51323,5.13457 16.53342,5.2379744 0.42488389 0 1 -13.73558,-2.409155 c -6.43145,7.176963 -31.68045,36.55333576 -33.06515,56.909186 21.23453,-17.5391828 79.67993,9.140999 110.52813,2.448417 8.62594,-2.16916 -22.2372,-36.354025 -38.28603,-53.391043 l 11.57292,27.9228447 c 2.95114,7.1205503 -16.21096,15.6865853 -28.76412,16.9726003 -12.35541,1.265754 -34.7499,-6.6740998 -36.26032,-10.0567447 -1.51043,-3.3826432 -1.3379,-2.9961985 -1.3379,-2.9961985 l 28.42152,-3.5000437 1.28519,2.60138933 c 2.32386,4.70433927 7.46352,6.91050507 14.38259,6.20168737 3.6572,-0.3746477 6.55338,-1.6595688 7.56697,-3.3915229 -0.81084,-7.4812682 -16.04745,-1.3851534 -17.53071,-4.6358911 L 302.64879,-29.126515 c 0,0 12.02319,-1.040083 17.7343,-1.470711 5.36168,-0.404426 13.43488,-0.911719 14.47147,-0.976685 -4.68127,-4.94752 -7.89099,-8.224822 -7.89099,-8.224822 z"
       id="path4684"
       inkscape:connector-curvature="0" />
    <text
       xml:space="preserve"
       style="font-style:normal;font-variant:normal;font-weight:normal;font-stretch:normal;font-size:19.69259453px;line-height:125%;font-family:Roboto;-inkscape-font-specification:'Roboto, Normal';font-variant-ligatures:normal;font-variant-caps:normal;font-variant-numeric:normal;text-align:start;letter-spacing:0px;word-spacing:0px;writing-mode:lr-tb;text-anchor:start;fill:#242424;fill-opacity:1;stroke:none;stroke-width:0.49231488px;stroke-linecap:butt;stroke-linejoin:miter;stroke-opacity:1"
       x="329.92465"
       y="36.35836"
       id="text4694"
       transform="scale(0.81866169,1.2215058)"><tspan
         sodipodi:role="line"
         x="329.92465"
         y="36.35836"
         style="fill:#242424;fill-opacity:1;stroke-width:0.49231488px"
         id="tspan4692">Kibojoe Linux</tspan></text>
    <path
       sodipodi:nodetypes="cccccc"
       inkscape:connector-curvature="0"
       id="path4696"
       d="m 44.01643,-36.388748 c 0,0 -32.96945,35.2118908 -34.5569403,58.549024 C 30.69402,4.6210933 89.13955,31.300942 119.98775,24.608375 131.50663,21.711714 72.59904,-38.286819 72.59904,-38.286819 c 0,0 -1.12338,4.336193 -12.47968,4.429266 -11.35536,0.03742 -16.10293,-2.531195 -16.10293,-2.531195 z"
       style="font-style:normal;font-variant:normal;font-weight:normal;font-stretch:normal;font-size:29.22245026px;line-height:1.25;font-family:Lato;-inkscape-font-specification:Lato;letter-spacing:0px;word-spacing:0px;display:inline;opacity:1;vector-effect:none;fill:#242424;fill-opacity:1;fill-rule:evenodd;stroke:none;stroke-width:5.20517778;stroke-linecap:butt;stroke-linejoin:miter;stroke-miterlimit:4;stroke-dasharray:none;stroke-dashoffset:0;stroke-opacity:1" />
    <path
       inkscape:label="j-txt"
       sodipodi:nodetypes="cscsscczssccc"
       inkscape:connector-curvature="0"
       id="path4698"
       style="font-style:normal;font-variant:normal;font-weight:normal;font-stretch:normal;font-size:140.26776123px;line-height:1.25;font-family:'Nimbus Sans L';-inkscape-font-specification:'Nimbus Sans L, Normal';font-variant-ligatures:normal;font-variant-caps:normal;font-variant-numeric:normal;font-feature-settings:normal;text-align:start;letter-spacing:0px;word-spacing:0px;writing-mode:lr-tb;text-anchor:start;display:inline;fill:#bababa;fill-opacity:1;stroke:none;stroke-width:0.39485046"
       d="M 48.28418,-27.614672 61.03781,0.33587476 C 62.52107,3.5866129 77.75769,-2.5097823 78.56852,4.971484 77.55494,6.7034391 74.65892,7.9885842 71.00172,8.3632312 64.08265,9.0720516 58.94283,6.8657548 56.61898,2.1614155 L 55.33408,-0.43979591 26.9121,3.0598942 c 0,0 -0.17252,-0.386361 1.33791,2.9962812 1.51043,3.3826462 23.90506,11.3225596 36.26046,10.0568066 12.55315,-1.286015 31.71512,-9.8522896 28.764,-16.97283758 L 81.15409,-30.104236 c 0,0 -9.42452,0.588231 -15.13565,1.019015 -5.71111,0.430629 -17.73426,1.470549 -17.73426,1.470549 z" />
    <path
       style="display:inline;opacity:1;vector-effect:none;fill:#bababa;fill-opacity:1;fill-rule:evenodd;stroke:none;stroke-width:2.50381112;stroke-linecap:butt;stroke-linejoin:miter;stroke-miterlimit:4;stroke-dasharray:none;stroke-dashoffset:0;stroke-opacity:1"
       d="m 72.77341,-37.474319 a 16.533421,5.2379744 0.42488389 0 1 -16.51297,5.134289 16.533421,5.2379744 0.42488389 0 1 -16.55299,-5.342176 16.533421,5.2379744 0.42488389 0 1 16.51288,-5.134305 16.533421,5.2379744 0.42488389 0 1 16.55308,5.342192 z"
       id="path4700"
       inkscape:connector-curvature="0"
       inkscape:label="circle-top" />
    <path
       style="font-style:normal;font-variant:normal;font-weight:normal;font-stretch:normal;font-size:29.22245026px;line-height:1.25;font-family:Lato;-inkscape-font-specification:Lato;letter-spacing:0px;word-spacing:0px;display:inline;opacity:1;vector-effect:none;fill:#242424;fill-opacity:1;fill-rule:evenodd;stroke:none;stroke-width:5.20517778;stroke-linecap:butt;stroke-linejoin:miter;stroke-miterlimit:4;stroke-dasharray:none;stroke-dashoffset:0;stroke-opacity:1"
       d="m 42.947352,85.787312 c 0,0 -31.900372,34.744088 -33.4878623,58.081228 21.2345303,-17.53919 79.6800603,9.14067 110.5282603,2.4481 11.51888,-2.89666 -47.010734,-61.383228 -47.010734,-61.383228 0,0 -1.501356,2.8243 -12.857656,2.917367 -11.35536,0.0374 -17.172008,-2.063467 -17.172008,-2.063467 z"
       id="path4702"
       inkscape:connector-curvature="0"
       sodipodi:nodetypes="cccccc" />
    <text
       transform="scale(0.81866169,1.2215058)"
       id="text4706"
       y="30.788536"
       x="17.369743"
       style="font-style:normal;font-variant:normal;font-weight:normal;font-stretch:normal;font-size:19.69259453px;line-height:125%;font-family:Roboto;-inkscape-font-specification:'Roboto, Normal';font-variant-ligatures:normal;font-variant-caps:normal;font-variant-numeric:normal;text-align:start;letter-spacing:0px;word-spacing:0px;writing-mode:lr-tb;text-anchor:start;fill:#242424;fill-opacity:1;stroke:none;stroke-width:0.49231488px;stroke-linecap:butt;stroke-linejoin:miter;stroke-opacity:1"
       xml:space="preserve"><tspan
         id="tspan4704"
         style="fill:#242424;fill-opacity:1;stroke-width:0.49231488px"
         y="30.788536"
         x="17.369743"
         sodipodi:role="line">Kibojoe Linux</tspan></text>
    <path
       style="font-style:normal;font-variant:normal;font-weight:normal;font-stretch:normal;font-size:29.22245026px;line-height:1.25;font-family:Lato;-inkscape-font-specification:Lato;letter-spacing:0px;word-spacing:0px;display:inline;opacity:1;vector-effect:none;fill:#242424;fill-opacity:1;fill-rule:evenodd;stroke:none;stroke-width:5.20517778;stroke-linecap:butt;stroke-linejoin:miter;stroke-miterlimit:4;stroke-dasharray:none;stroke-dashoffset:0;stroke-opacity:1"
       d="m 446.03945,-38.286828 c 0,0 -0.0174,0.04477 -0.0212,0.05685 a 16.53342,5.2379744 0.42488389 0 1 0.19585,0.75551 16.53342,5.2379744 0.42488389 0 1 -16.5132,5.13457 16.53342,5.2379744 0.42488389 0 1 -13.73561,-2.409156 c -6.43138,7.176937 -31.68047,36.5533378 -33.06516,56.909186 12.73336,-10.517425 38.84615,-5.135684 64.36611,-0.582908 v 16.031072 h 7.58042 v -3.053587 h -4.91961 V 22.049025 c 6.69316,1.176284 13.31082,2.254403 19.60089,2.931604 v 7.201112 c 0,1.934077 0.24918,3.363092 0.74774,4.28707 0.50379,0.923978 1.19626,1.385967 2.0779,1.385967 0.5248,0 0.98661,-0.183886 1.38547,-0.551895 0.40407,-0.375867 0.73202,-0.908261 0.9839,-1.597316 l 0.32298,1.902725 h 2.14095 V 25.596606 c 0.3786,0.01844 0.75253,0.03138 1.12758,0.04548 l 2.18644,5.541778 -2.558,6.424427 h 2.98329 l 1.13379,-3.864372 h 0.047 l 1.13379,3.864372 h 2.98328 l -2.55852,-6.424427 2.19885,-5.590884 c 2.66393,-0.155496 5.19586,-0.470668 7.56388,-0.984435 8.62594,-2.169152 -22.2372,-36.353969 -38.28603,-53.391043 l 11.57293,27.92284742 C 469.66627,6.2608994 450.50416,14.826936 437.95101,16.112951 425.59563,17.378705 403.20114,9.4388506 401.69071,6.0562044 400.18028,2.6735612 400.35279,3.0600062 400.35279,3.0600062 l 28.42154,-3.50004311 1.28519,2.60138941 c 2.32383,4.7043393 7.46352,6.9105051 14.38256,6.2016867 3.65721,-0.374647 6.55342,-1.6595691 7.56701,-3.3915222 -0.81084,-7.4812671 -16.04746,-1.3851541 -17.53074,-4.63589124 L 421.72461,-27.614611 c 0,0 12.02323,-1.040083 17.73434,-1.470711 5.36165,-0.404426 13.43488,-0.91172 14.47146,-0.976685 -4.6813,-4.947534 -7.89098,-8.224822 -7.89098,-8.224822 z M 398.83042,19.28537 v 2.666502 h 2.66859 V 19.28537 Z m 4.2902,0 v 18.322922 h 2.32232 l 0.15762,-1.491403 c 0.24664,0.5638 0.543,0.994383 0.88934,1.291933 0.34637,0.297551 0.75052,0.445956 1.21235,0.445956 1.09156,0 1.9154,-0.571394 2.47168,-1.714633 0.55626,-1.143211 0.83458,-2.681657 0.83458,-4.615735 v -0.247015 c 0,-2.012368 -0.2808,-3.617172 -0.84233,-4.815205 -0.55629,-1.198033 -1.38314,-1.797315 -2.47997,-1.797315 -0.40933,0 -0.77136,0.129196 -1.08622,0.387588 -0.30964,0.250561 -0.5824,0.610738 -0.81856,1.080559 V 19.28537 Z m 18.23918,0 v 2.654617 h 2.66859 V 19.28537 Z m -32.78611,1.221629 V 37.608292 H 391.234 V 30.74926 h 0.74001 l 2.63705,6.859032 h 3.41683 l -3.91242,-9.325531 3.60495,-7.775762 h -3.34553 l -2.5895,6.694675 H 391.234 v -6.694675 z m 27.37819,4.157876 c -1.29625,0 -2.30661,0.602827 -3.03083,1.808692 -0.72422,1.198033 -1.08625,2.752698 -1.08625,4.663281 v 0.246486 c 0,1.918414 0.36203,3.476625 1.08625,4.674658 0.72422,1.198034 1.74011,1.796786 3.04683,1.796786 1.29099,0 2.29836,-0.598752 3.02255,-1.796786 0.72422,-1.198033 1.08625,-2.756244 1.08625,-4.674658 v -0.246486 c 0,-1.910583 -0.36203,-3.465248 -1.08625,-4.663281 -0.72419,-1.205865 -1.73709,-1.808692 -3.03855,-1.808692 z m 13.38212,0 c -1.29625,0 -2.30661,0.602827 -3.03083,1.808692 -0.72422,1.198033 -1.08625,2.752698 -1.08625,4.663281 v 0.246486 c 0,1.918414 0.36203,3.476625 1.08625,4.674658 0.72422,1.198034 1.74011,1.796786 3.04684,1.796786 1.29098,0 2.29835,-0.598752 3.02257,-1.796786 0.72419,-1.198033 1.08622,-2.756244 1.08622,-4.674658 v -0.246486 c 0,-1.910583 -0.36203,-3.465248 -1.08622,-4.663281 -0.72422,-1.205865 -1.7371,-1.808692 -3.03858,-1.808692 z m 8.98189,0 c -1.30675,-0.0078 -2.30659,0.599043 -2.99932,1.820572 -0.68747,1.221528 -1.03095,2.803022 -1.03095,4.744931 v 0.446485 c 0,1.785302 0.36455,3.261439 1.094,4.428146 0.7347,1.166706 1.7476,1.749769 3.03858,1.749769 0.68223,0 1.33308,-0.136763 1.95234,-0.410819 0.61925,-0.274082 1.11265,-0.610949 1.48,-1.010285 l -0.63768,-2.419482 c -0.43558,0.274055 -0.8242,0.473631 -1.1653,0.598911 -0.33586,0.125306 -0.75806,0.188118 -1.26712,0.188118 -0.54054,0 -0.95522,-0.203649 -1.24386,-0.610817 -0.28863,-0.414999 -0.4541,-0.955013 -0.49609,-1.620573 l 0.016,-0.0708 h 4.88032 v -2.078937 c 0,-1.785303 -0.31739,-3.190505 -0.95239,-4.216294 -0.62976,-1.025763 -1.51929,-1.538923 -2.66856,-1.538923 z m 27.15802,0 c -0.50379,0 -0.96065,0.18034 -1.36993,0.540544 -0.40934,0.352372 -0.75282,0.845238 -1.03095,1.479497 l -0.10234,-1.784905 h -2.49545 v 12.708281 h 2.65256 v -9.032028 c 0.15219,-0.274056 0.34123,-0.485802 0.56689,-0.634577 0.22567,-0.148775 0.48038,-0.222726 0.76378,-0.222726 0.33062,0 0.58232,0.172243 0.75552,0.516757 0.17316,0.336709 0.25992,0.908103 0.25992,1.714633 v 7.657941 h 2.66031 V 29.96223 c 0,-1.840097 -0.23567,-3.183016 -0.70797,-4.028678 -0.46707,-0.845687 -1.11792,-1.268677 -1.95234,-1.268677 z m -66.64349,0.235136 v 12.708281 h 2.66859 V 24.900011 Z m 22.57642,0 v 12.884493 c 0,0.626428 -0.0782,1.100058 -0.23566,1.421104 -0.15219,0.321045 -0.37531,0.481621 -0.66921,0.481621 -0.16267,0 -0.29657,-0.01164 -0.40153,-0.03514 -0.11018,-0.02349 -0.24157,-0.05897 -0.39376,-0.105939 l -0.11006,2.995163 c 0.2204,0.07046 0.42748,0.121629 0.62166,0.152955 0.18892,0.03133 0.39902,0.04704 0.62992,0.04704 1.01285,0 1.80261,-0.431112 2.36937,-1.292436 0.57203,-0.861325 0.85783,-2.082668 0.85783,-3.664374 V 24.900011 Z m 34.82526,0 v 12.708281 h 2.66856 V 24.900011 Z m 15.94836,0.342609 c 0.78841,0.07096 1.57007,0.133746 2.34612,0.189653 v 8.664072 c -0.15219,0.234924 -0.33621,0.411189 -0.55139,0.528664 -0.21516,0.117449 -0.46437,0.176212 -0.74774,0.176212 -0.35687,0 -0.62162,-0.183885 -0.79478,-0.55192 -0.16794,-0.368009 -0.25221,-1.049338 -0.25221,-2.043801 z m 10.74407,0.455268 -0.84905,2.948675 h -0.047 L 481.213,25.706169 c 0.57557,0.0033 1.14601,6.35e-4 1.71153,-0.0083 z m -75.907,2.021073 c 0.5143,0 0.8658,0.313055 1.05471,0.939482 0.18894,0.618596 0.28318,1.491404 0.28318,2.618952 v 0.247015 c 0,1.096248 -0.0892,1.918414 -0.26767,2.466525 -0.17844,0.540279 -0.52994,0.810286 -1.05471,0.810286 -0.2939,0 -0.5456,-0.06636 -0.75552,-0.199469 -0.20466,-0.133112 -0.37015,-0.333216 -0.49609,-0.59944 v -5.343869 c 0.1207,-0.305382 0.28315,-0.53639 0.48783,-0.692996 0.2099,-0.164413 0.45964,-0.246486 0.74827,-0.246486 z m 8.93435,0 c 0.53004,0 0.9081,0.313055 1.13376,0.939482 0.22567,0.618596 0.33848,1.44481 0.33848,2.478405 v 0.246486 c 0,1.05709 -0.11281,1.890898 -0.33848,2.501662 -0.22566,0.610764 -0.59822,0.916225 -1.11776,0.916225 -0.53527,0 -0.91588,-0.301413 -1.14151,-0.904345 -0.22043,-0.610765 -0.33073,-1.448621 -0.33073,-2.513542 v -0.246486 c 0,-1.025763 0.1103,-1.851977 0.33073,-2.478405 0.22563,-0.626427 0.60071,-0.939482 1.12551,-0.939482 z m 13.38212,0 c 0.53004,0 0.90813,0.313055 1.13376,0.939482 0.22567,0.618596 0.33849,1.44481 0.33849,2.478405 v 0.246486 c 0,1.05709 -0.11282,1.890898 -0.33849,2.501662 -0.22563,0.610764 -0.59819,0.916225 -1.11775,0.916225 -0.53528,0 -0.91586,-0.301413 -1.14152,-0.904345 -0.22043,-0.610765 -0.33073,-1.448621 -0.33073,-2.513542 v -0.246486 c 0,-1.025763 0.1103,-1.851977 0.33073,-2.478405 0.22566,-0.626427 0.60071,-0.939482 1.12551,-0.939482 z m 8.98189,0 c 0.37258,0 0.63484,0.168169 0.78703,0.504878 0.15742,0.336708 0.23614,0.833649 0.23614,1.491376 v 0.305409 h -2.29857 l -0.0155,-0.05839 c 0.0315,-0.689054 0.14681,-1.233619 0.34623,-1.632981 0.20468,-0.407168 0.51956,-0.610288 0.94467,-0.610288 z"
       id="path4708"
       inkscape:connector-curvature="0" />
    <path
       d="m 42.826411,85.726682 11.885694,28.330448 c 1.382316,3.29493 16.799677,-2.32874 17.379432,5.17397 -1.066504,1.69988 -4.000775,2.89511 -7.667788,3.15681 -6.937637,0.49513 -12.00698,-1.86861 -14.184664,-6.64237 l -1.204079,-2.63959 -28.51638,2.62162 c 0,0 -0.160524,-0.3915 1.244882,3.03611 1.405406,3.42761 23.544555,12.0543 35.93311,11.17014 12.586835,-0.89832 32.003839,-8.86965 29.273689,-16.07782 L 75.757458,84.251862 c 0,0 -9.438177,0.29734 -15.159875,0.55182 -5.721673,0.25432 -17.771172,0.923 -17.771172,0.923 z"
       style="font-style:normal;font-variant:normal;font-weight:normal;font-stretch:normal;font-size:140.26776123px;line-height:1.25;font-family:'Nimbus Sans L';-inkscape-font-specification:'Nimbus Sans L, Normal';font-variant-ligatures:normal;font-variant-caps:normal;font-variant-numeric:normal;font-feature-settings:normal;text-align:start;letter-spacing:0px;word-spacing:0px;writing-mode:lr-tb;text-anchor:start;display:inline;fill:#bababa;fill-opacity:1;stroke:none;stroke-width:0.39485046"
       id="path4721"
       inkscape:connector-curvature="0"
       sodipodi:nodetypes="cscsscczssccc"
       inkscape:label="j-txt" />
    <path
       inkscape:label="circle-top"
       inkscape:connector-curvature="0"
       id="path4723"
       d="m 73.178395,79.587542 a 5.2379744,16.533421 88.554475 0 1 -16.336594,5.67053 5.2379744,16.533421 88.554475 0 1 -16.718534,-4.79906 5.2379744,16.533421 88.554475 0 1 16.336504,-5.67054 5.2379744,16.533421 88.554475 0 1 16.718624,4.79907 z"
       style="display:inline;opacity:1;vector-effect:none;fill:#bababa;fill-opacity:1;fill-rule:evenodd;stroke:none;stroke-width:2.50381112;stroke-linecap:butt;stroke-linejoin:miter;stroke-miterlimit:4;stroke-dasharray:none;stroke-dashoffset:0;stroke-opacity:1" />
    <text
       xml:space="preserve"
       style="font-style:normal;font-variant:normal;font-weight:normal;font-stretch:normal;font-size:19.69259453px;line-height:125%;font-family:Roboto;-inkscape-font-specification:'Roboto, Normal';font-variant-ligatures:normal;font-variant-caps:normal;font-variant-numeric:normal;text-align:start;letter-spacing:0px;word-spacing:0px;writing-mode:lr-tb;text-anchor:start;fill:#242424;fill-opacity:1;stroke:none;stroke-width:0.49231488px;stroke-linecap:butt;stroke-linejoin:miter;stroke-opacity:1"
       x="19.221741"
       y="136.6151"
       id="text4727"
       transform="scale(0.81866169,1.2215058)"><tspan
         sodipodi:role="line"
         x="19.221741"
         y="136.6151"
         style="fill:#242424;fill-opacity:1;stroke-width:0.49231488px"
         id="tspan4725">Kibojoe Linux</tspan></text>
    <path
       style="font-style:normal;font-variant:normal;font-weight:normal;font-stretch:normal;font-size:29.22245026px;line-height:1.25;font-family:Lato;-inkscape-font-specification:Lato;letter-spacing:0px;word-spacing:0px;display:inline;opacity:1;vector-effect:none;fill:#242424;fill-opacity:1;fill-rule:evenodd;stroke:none;stroke-width:5.20517778;stroke-linecap:butt;stroke-linejoin:miter;stroke-miterlimit:4;stroke-dasharray:none;stroke-dashoffset:0;stroke-opacity:1"
       d="m 311.48229,74.770873 a 5.2379744,16.533421 88.554475 0 0 -1.65108,0.01757 5.2379744,16.533421 88.554475 0 0 -16.33646,5.670444 5.2379744,16.533421 88.554475 0 0 16.71836,4.799198 5.2379744,16.533421 88.554475 0 0 16.33699,-5.670444 5.2379744,16.533421 88.554475 0 0 -15.06781,-4.816766 z m -15.22855,11.088713 c -0.71035,0.776473 -31.85335,34.937444 -33.42276,58.008794 21.23452,-17.53918 79.67995,9.14101 110.52814,2.44843 9.45666,-2.37808 -28.2475,-42.16913 -42.06928,-56.359793 l 9.05216,23.898723 c 2.73016,7.20818 -16.68682,15.17978 -29.27365,16.0781 -12.38856,0.88415 -34.52781,-7.74277 -35.9332,-11.17037 -1.40541,-3.42762 -1.24489,-3.03599 -1.24489,-3.03599 l 28.51608,-2.62154 1.20406,2.63961 c 2.17768,4.77378 7.24705,7.13764 14.18466,6.6425 3.66702,-0.2617 6.60125,-1.45703 7.66776,-3.1569 -0.57976,-7.50271 -15.99698,-1.87894 -17.37929,-5.17385 z"
       id="path4729"
       inkscape:connector-curvature="0" />
    <text
       transform="scale(0.81866169,1.2215058)"
       id="text4737"
       y="136.6151"
       x="328.71652"
       style="font-style:normal;font-variant:normal;font-weight:normal;font-stretch:normal;font-size:19.69259453px;line-height:125%;font-family:Roboto;-inkscape-font-specification:'Roboto, Normal';font-variant-ligatures:normal;font-variant-caps:normal;font-variant-numeric:normal;text-align:start;letter-spacing:0px;word-spacing:0px;writing-mode:lr-tb;text-anchor:start;fill:#242424;fill-opacity:1;stroke:none;stroke-width:0.49231488px;stroke-linecap:butt;stroke-linejoin:miter;stroke-opacity:1"
       xml:space="preserve"><tspan
         id="tspan4735"
         style="fill:#242424;fill-opacity:1;stroke-width:0.49231488px"
         y="136.6151"
         x="328.71652"
         sodipodi:role="line">Kibojoe Linux</tspan></text>
    <path
       sodipodi:nodetypes="cccccc"
       inkscape:connector-curvature="0"
       id="path4743"
       d="m 164.65569,85.787312 c 0,0 -31.90037,34.744088 -33.48787,58.081228 21.23454,-17.53919 79.68007,9.14067 110.52827,2.4481 11.51888,-2.89666 -47.01074,-61.383228 -47.01074,-61.383228 0,0 -1.50135,2.8243 -12.85765,2.917367 -11.35536,0.0374 -17.17201,-2.063467 -17.17201,-2.063467 z"
       style="font-style:normal;font-variant:normal;font-weight:normal;font-stretch:normal;font-size:29.22245026px;line-height:1.25;font-family:Lato;-inkscape-font-specification:Lato;letter-spacing:0px;word-spacing:0px;display:inline;opacity:1;vector-effect:none;fill:#bababa;fill-opacity:1;fill-rule:evenodd;stroke:none;stroke-width:5.20517778;stroke-linecap:butt;stroke-linejoin:miter;stroke-miterlimit:4;stroke-dasharray:none;stroke-dashoffset:0;stroke-opacity:1" />
    <path
       inkscape:label="j-txt"
       sodipodi:nodetypes="cscsscczssccc"
       inkscape:connector-curvature="0"
       id="path4745"
       style="font-style:normal;font-variant:normal;font-weight:normal;font-stretch:normal;font-size:140.26776123px;line-height:1.25;font-family:'Nimbus Sans L';-inkscape-font-specification:'Nimbus Sans L, Normal';font-variant-ligatures:normal;font-variant-caps:normal;font-variant-numeric:normal;font-feature-settings:normal;text-align:start;letter-spacing:0px;word-spacing:0px;writing-mode:lr-tb;text-anchor:start;display:inline;fill:#242424;fill-opacity:1;stroke:none;stroke-width:0.39485046"
       d="m 166.04665,97.065908 11.88569,28.330502 c 1.38232,3.29493 16.79968,-2.32874 17.37943,5.17397 -1.0665,1.69988 -4.00077,2.89511 -7.66779,3.15681 -6.93763,0.49513 -12.00698,-1.86861 -14.18466,-6.64237 l -1.20408,-2.63959 -28.51638,2.62162 c 0,0 -0.16052,-0.3915 1.24488,3.03611 1.40541,3.42761 23.54456,12.0543 35.93311,11.17014 12.58684,-0.89832 32.00384,-8.86965 29.27369,-16.07782 L 198.97769,95.591097 c 0,0 -9.43817,0.297337 -15.15987,0.551817 -5.72167,0.254317 -17.77117,0.922994 -17.77117,0.922994 z" />
    <path
       style="display:inline;opacity:1;vector-effect:none;fill:#242424;fill-opacity:1;fill-rule:evenodd;stroke:none;stroke-width:2.50381112;stroke-linecap:butt;stroke-linejoin:miter;stroke-miterlimit:4;stroke-dasharray:none;stroke-dashoffset:0;stroke-opacity:1"
       d="m 196.39863,90.926804 a 5.2379744,16.533421 88.554475 0 1 -16.33659,5.670497 5.2379744,16.533421 88.554475 0 1 -16.71854,-4.799033 5.2379744,16.533421 88.554475 0 1 16.33651,-5.670516 5.2379744,16.533421 88.554475 0 1 16.71862,4.799052 z"
       id="path4747"
       inkscape:connector-curvature="0"
       inkscape:label="circle-top" />
    <text
       transform="scale(0.81866169,1.2215058)"
       id="text4751"
       y="136.6151"
       x="167.88918"
       style="font-style:normal;font-variant:normal;font-weight:normal;font-stretch:normal;font-size:19.69259453px;line-height:125%;font-family:Roboto;-inkscape-font-specification:'Roboto, Normal';font-variant-ligatures:normal;font-variant-caps:normal;font-variant-numeric:normal;text-align:start;letter-spacing:0px;word-spacing:0px;writing-mode:lr-tb;text-anchor:start;fill:#242424;fill-opacity:1;stroke:none;stroke-width:0.49231488px;stroke-linecap:butt;stroke-linejoin:miter;stroke-opacity:1"
       xml:space="preserve"><tspan
         id="tspan4749"
         style="fill:#242424;fill-opacity:1;stroke-width:0.49231488px"
         y="136.6151"
         x="167.88918"
         sodipodi:role="line">Kibojoe Linux</tspan></text>
    <path
       style="font-style:normal;font-variant:normal;font-weight:normal;font-stretch:normal;font-size:29.22245026px;line-height:1.25;font-family:Lato;-inkscape-font-specification:Lato;letter-spacing:0px;word-spacing:0px;display:inline;opacity:1;vector-effect:none;fill:#242424;fill-opacity:1;fill-rule:evenodd;stroke:none;stroke-width:5.20517778;stroke-linecap:butt;stroke-linejoin:miter;stroke-miterlimit:4;stroke-dasharray:none;stroke-dashoffset:0;stroke-opacity:1"
       d="m 444.90565,84.933545 c 0,0 -0.30207,0.557027 -1.62573,1.184434 a 5.2379744,16.533421 88.554475 0 1 4.09535,3.296944 5.2379744,16.533421 88.554475 0 1 -10.1234,5.11645 c 5.62962,-0.22651 12.70206,-0.452137 12.70206,-0.452137 l 11.21325,29.603814 c 2.73019,7.20818 -16.68732,15.17978 -29.27416,16.0781 -12.38856,0.88416 -34.52728,-7.74277 -35.93269,-11.17037 -1.40539,-3.42762 -1.24489,-3.03601 -1.24489,-3.03601 l 28.51608,-2.62155 1.20406,2.63965 c 2.17768,4.77377 7.24702,7.13763 14.18466,6.64249 3.66702,-0.2617 6.60127,-1.45706 7.66776,-3.15693 -0.57973,-7.50271 -15.997,-1.87893 -17.37929,-5.17384 L 417.02312,95.554067 c 0,0 4.88413,-0.26924 9.89706,-0.531227 a 5.2379744,16.533421 88.554475 0 1 -12.60025,-4.736653 5.2379744,16.533421 88.554475 0 1 4.10879,-3.601841 c -2.35207,-0.467069 -3.55275,-0.897097 -3.55275,-0.897097 0,0 -31.90038,34.744011 -33.48788,58.081131 21.23453,-17.53918 79.67993,9.14101 110.52812,2.44843 11.5189,-2.89666 -47.01056,-61.383265 -47.01056,-61.383265 z"
       id="path4753"
       inkscape:connector-curvature="0" />
    <text
       xml:space="preserve"
       style="font-style:normal;font-variant:normal;font-weight:normal;font-stretch:normal;font-size:19.69259453px;line-height:125%;font-family:Roboto;-inkscape-font-specification:'Roboto, Normal';font-variant-ligatures:normal;font-variant-caps:normal;font-variant-numeric:normal;text-align:start;letter-spacing:0px;word-spacing:0px;writing-mode:lr-tb;text-anchor:start;fill:#242424;fill-opacity:1;stroke:none;stroke-width:0.49231488px;stroke-linecap:butt;stroke-linejoin:miter;stroke-opacity:1"
       x="473.53464"
       y="136.6151"
       id="text4761"
       transform="scale(0.81866169,1.2215058)"><tspan
         sodipodi:role="line"
         x="473.53464"
         y="136.6151"
         style="fill:#242424;fill-opacity:1;stroke-width:0.49231488px"
         id="tspan4759">Kibojoe Linux</tspan></text>
    <text
       transform="scale(0.81866169,1.2215058)"
       id="text4770"
       y="-63.279591"
       x="159.02272"
       style="font-style:normal;font-variant:normal;font-weight:normal;font-stretch:normal;font-size:19.69259453px;line-height:125%;font-family:Roboto;-inkscape-font-specification:'Roboto, Normal';font-variant-ligatures:normal;font-variant-caps:normal;font-variant-numeric:normal;text-align:start;letter-spacing:0px;word-spacing:0px;writing-mode:lr-tb;text-anchor:start;fill:#242424;fill-opacity:1;stroke:none;stroke-width:0.49231488px;stroke-linecap:butt;stroke-linejoin:miter;stroke-opacity:1"
       xml:space="preserve"><tspan
         id="tspan4768"
         style="fill:#242424;fill-opacity:1;stroke-width:0.49231488px"
         y="-63.279591"
         x="159.02272"
         sodipodi:role="line">Kibojoe Linux</tspan></text>
    <path
       sodipodi:nodetypes="cccccc"
       inkscape:connector-curvature="0"
       id="path4778"
       d="m 45.998634,196.04226 c 0,0 -25.91912,36.56431 -27.23057,59.90903 17.5421,-17.64052 64.69071,13.29616 91.308696,1.92069 C 83.684904,220.14653 70.928394,195.2029 70.928394,195.2029 c 0,0 -3.16749,3.68633 -12.54906,3.83359 -9.3808,0.0916 -12.3807,-2.99423 -12.3807,-2.99423 z"
       style="font-style:normal;font-variant:normal;font-weight:normal;font-stretch:normal;font-size:29.22245026px;line-height:1.25;font-family:Lato;-inkscape-font-specification:Lato;letter-spacing:0px;word-spacing:0px;display:inline;opacity:1;vector-effect:none;fill:#242424;fill-opacity:1;fill-rule:evenodd;stroke:none;stroke-width:4.73102188;stroke-linecap:butt;stroke-linejoin:miter;stroke-miterlimit:4;stroke-dasharray:none;stroke-dashoffset:0;stroke-opacity:1" />
    <path
       inkscape:label="j-txt"
       sodipodi:nodetypes="cscsscczsscccc"
       inkscape:connector-curvature="0"
       id="path4780"
       style="font-style:normal;font-variant:normal;font-weight:normal;font-stretch:normal;font-size:140.26776123px;line-height:1.25;font-family:'Nimbus Sans L';-inkscape-font-specification:'Nimbus Sans L, Normal';font-variant-ligatures:normal;font-variant-caps:normal;font-variant-numeric:normal;font-feature-settings:normal;text-align:start;letter-spacing:0px;word-spacing:0px;writing-mode:lr-tb;text-anchor:start;display:inline;fill:#bababa;fill-opacity:1;stroke:none;stroke-width:0.33405781"
       d="m 46.25504,202.4503 1.77901,33.62439 c 0.171294,3.23752 12.631453,-1.72036 10.279205,5.81892 -1.372544,1.66443 -3.868693,2.75502 -6.535204,2.88344 -5.044779,0.24291 -7.728879,-2.31069 -7.500031,-7.17373 l 0.126553,-2.68895 -20.951621,1.58617 -0.243755,3.08779 c -0.275196,3.48593 12.070692,12.93836 21.07917,12.50454 9.15267,-0.44077 26.600839,-7.94274 26.430042,-15.04234 l -0.839076,-34.87612 c 0,0 -6.724732,-0.0466 -10.828756,-4.2e-4 -4.10395,0.046 -12.795547,0.27628 -12.795547,0.27628 z" />
    <path
       inkscape:label="circle-top"
       inkscape:connector-curvature="0"
       id="path4782"
       d="m 70.471934,191.39387 a 3.8828008,12.255879 88.554475 0 1 -12.10998,4.20345 3.8828008,12.255879 88.554475 0 1 -12.3931,-3.55745 3.8828008,12.255879 88.554475 0 1 12.10991,-4.20345 3.8828008,12.255879 88.554475 0 1 12.39317,3.55745 z"
       style="display:inline;opacity:1;vector-effect:none;fill:#242424;fill-opacity:1;fill-rule:evenodd;stroke:none;stroke-width:1.85602283;stroke-linecap:butt;stroke-linejoin:miter;stroke-miterlimit:4;stroke-dasharray:none;stroke-dashoffset:0;stroke-opacity:1" />
    <path
       style="font-style:normal;font-variant:normal;font-weight:normal;font-stretch:normal;font-size:29.22245026px;line-height:1.25;font-family:Lato;-inkscape-font-specification:Lato;letter-spacing:0px;word-spacing:0px;display:inline;opacity:1;vector-effect:none;fill:#bababa;fill-opacity:1;fill-rule:evenodd;stroke:none;stroke-width:4.73102188;stroke-linecap:butt;stroke-linejoin:miter;stroke-miterlimit:4;stroke-dasharray:none;stroke-dashoffset:0;stroke-opacity:1"
       d="m 168.94262,196.04226 c 0,0 -25.91912,36.56431 -27.23057,59.90903 17.5421,-17.64052 64.69071,13.29616 91.30869,1.92069 -26.39185,-37.72545 -39.14836,-62.66908 -39.14836,-62.66908 0,0 -3.16749,3.68633 -12.54906,3.83359 -9.3808,0.0916 -12.3807,-2.99423 -12.3807,-2.99423 z"
       id="path4790"
       inkscape:connector-curvature="0"
       sodipodi:nodetypes="cccccc" />
    <path
       d="m 169.19902,202.4503 1.77901,33.62439 c 0.1713,3.23752 12.63146,-1.72036 10.27921,5.81892 -1.37254,1.66443 -3.86869,2.75502 -6.5352,2.88344 -5.04478,0.24291 -7.72888,-2.31069 -7.50004,-7.17373 l 0.12656,-2.68895 -20.95162,1.58617 -0.24376,3.08779 c -0.27519,3.48593 12.07069,12.93836 21.07917,12.50454 9.15267,-0.44077 26.60084,-7.94274 26.43004,-15.04234 l -0.83907,-34.87612 c 0,0 -6.72473,-0.0466 -10.82876,-4.2e-4 -4.10395,0.046 -12.79555,0.27628 -12.79555,0.27628 z"
       style="font-style:normal;font-variant:normal;font-weight:normal;font-stretch:normal;font-size:140.26776123px;line-height:1.25;font-family:'Nimbus Sans L';-inkscape-font-specification:'Nimbus Sans L, Normal';font-variant-ligatures:normal;font-variant-caps:normal;font-variant-numeric:normal;font-feature-settings:normal;text-align:start;letter-spacing:0px;word-spacing:0px;writing-mode:lr-tb;text-anchor:start;display:inline;fill:#242424;fill-opacity:1;stroke:none;stroke-width:0.33405781"
       id="path4792"
       inkscape:connector-curvature="0"
       sodipodi:nodetypes="cscsscczsscccc"
       inkscape:label="j-txt" />
    <path
       style="display:inline;opacity:1;vector-effect:none;fill:#bababa;fill-opacity:1;fill-rule:evenodd;stroke:none;stroke-width:1.85602283;stroke-linecap:butt;stroke-linejoin:miter;stroke-miterlimit:4;stroke-dasharray:none;stroke-dashoffset:0;stroke-opacity:1"
       d="m 193.41592,191.39387 a 3.8828008,12.255879 88.554475 0 1 -12.10998,4.20345 3.8828008,12.255879 88.554475 0 1 -12.3931,-3.55745 3.8828008,12.255879 88.554475 0 1 12.10991,-4.20345 3.8828008,12.255879 88.554475 0 1 12.39317,3.55745 z"
       id="path4794"
       inkscape:connector-curvature="0"
       inkscape:label="circle-top" />
    <text
       transform="scale(0.81866169,1.2215058)"
       id="text4798"
       y="228.9501"
       x="17.936657"
       style="font-style:normal;font-variant:normal;font-weight:normal;font-stretch:normal;font-size:19.69259453px;line-height:125%;font-family:Roboto;-inkscape-font-specification:'Roboto, Normal';font-variant-ligatures:normal;font-variant-caps:normal;font-variant-numeric:normal;text-align:start;letter-spacing:0px;word-spacing:0px;writing-mode:lr-tb;text-anchor:start;fill:#242424;fill-opacity:1;stroke:none;stroke-width:0.49231488px;stroke-linecap:butt;stroke-linejoin:miter;stroke-opacity:1"
       xml:space="preserve"><tspan
         id="tspan4796"
         style="fill:#242424;fill-opacity:1;stroke-width:0.49231488px"
         y="228.9501"
         x="17.936657"
         sodipodi:role="line">Kibojoe Linux</tspan></text>
    <text
       xml:space="preserve"
       style="font-style:normal;font-variant:normal;font-weight:normal;font-stretch:normal;font-size:19.69259453px;line-height:125%;font-family:Roboto;-inkscape-font-specification:'Roboto, Normal';font-variant-ligatures:normal;font-variant-caps:normal;font-variant-numeric:normal;text-align:start;letter-spacing:0px;word-spacing:0px;writing-mode:lr-tb;text-anchor:start;fill:#242424;fill-opacity:1;stroke:none;stroke-width:0.49231488px;stroke-linecap:butt;stroke-linejoin:miter;stroke-opacity:1"
       x="168.11345"
       y="228.9501"
       id="text4802"
       transform="scale(0.81866169,1.2215058)"><tspan
         sodipodi:role="line"
         x="168.11345"
         y="228.9501"
         style="fill:#242424;fill-opacity:1;stroke-width:0.49231488px"
         id="tspan4800">Kibojoe Linux</tspan></text>
    <path
       style="font-style:normal;font-variant:normal;font-weight:normal;font-stretch:normal;font-size:29.22245026px;line-height:1.25;font-family:Lato;-inkscape-font-specification:Lato;letter-spacing:0px;word-spacing:0px;display:inline;opacity:1;vector-effect:none;fill:#242424;fill-opacity:1;fill-rule:evenodd;stroke:none;stroke-width:17.88102722;stroke-linecap:butt;stroke-linejoin:miter;stroke-miterlimit:4;stroke-dasharray:none;stroke-dashoffset:0;stroke-opacity:1"
       d="M 1189.8418 1507.3652 A 14.675153 46.321431 88.554475 0 0 1185.2168 1507.4141 A 14.675153 46.321431 88.554475 0 0 1139.4473 1523.3008 A 14.675153 46.321431 88.554475 0 0 1186.2871 1536.7461 A 14.675153 46.321431 88.554475 0 0 1232.0566 1520.8594 A 14.675153 46.321431 88.554475 0 0 1189.8418 1507.3652 z M 1233.7812 1535.2559 C 1233.7812 1535.2559 1221.8095 1549.1876 1186.3516 1549.7441 C 1150.8966 1550.0903 1139.5586 1538.4277 1139.5586 1538.4277 C 1139.5586 1538.4277 1084.9307 1615.4983 1055.1992 1691.2754 L 1133.5332 1685.3457 L 1133.0566 1695.5078 C 1132.1917 1713.8878 1142.3355 1723.5392 1161.4023 1722.6211 C 1171.4805 1722.1357 1180.914 1718.0154 1186.1016 1711.7246 C 1194.9919 1683.2297 1147.8994 1701.9668 1147.252 1689.7305 L 1140.5273 1562.6465 C 1140.5273 1562.6465 1173.3777 1561.7754 1188.8887 1561.6016 C 1204.3999 1561.427 1229.8164 1561.6035 1229.8164 1561.6035 L 1232.9883 1693.4199 C 1233.5613 1717.2381 1181.6807 1742.2366 1145.8184 1748.7227 C 1223.5601 1762.5799 1318.1509 1799.2925 1381.7441 1772.1152 C 1281.9954 1629.5309 1233.7813 1535.2559 1233.7812 1535.2559 z M 1054.1367 1694.0215 C 1044.6155 1718.7855 1037.851 1743.3102 1036.6406 1764.8555 C 1052.7549 1748.6508 1075.4917 1743.3107 1102.1055 1743.8652 C 1076.2032 1733.2629 1052.684 1712.4075 1053.4258 1703.0117 L 1054.1367 1694.0215 z "
       transform="matrix(0.26458333,0,0,0.26458333,0,-211.00001)"
       id="path4804" />
    <path
       style="font-style:normal;font-variant:normal;font-weight:normal;font-stretch:normal;font-size:29.22245026px;line-height:1.25;font-family:Lato;-inkscape-font-specification:Lato;letter-spacing:0px;word-spacing:0px;display:inline;opacity:1;vector-effect:none;fill:#666666;fill-opacity:1;fill-rule:evenodd;stroke:none;stroke-width:17.88102722;stroke-linecap:butt;stroke-linejoin:miter;stroke-miterlimit:4;stroke-dasharray:none;stroke-dashoffset:0;stroke-opacity:1"
       d="M 1654.5117 1507.3652 A 14.675153 46.321431 88.554475 0 0 1649.8867 1507.4141 A 14.675153 46.321431 88.554475 0 0 1604.1172 1523.3008 A 14.675153 46.321431 88.554475 0 0 1650.957 1536.7461 A 14.675153 46.321431 88.554475 0 0 1696.7266 1520.8594 A 14.675153 46.321431 88.554475 0 0 1654.5117 1507.3652 z M 1698.4512 1535.2559 C 1698.4512 1535.2559 1686.4794 1549.1876 1651.0215 1549.7441 C 1615.5665 1550.0903 1604.2285 1538.4277 1604.2285 1538.4277 C 1604.2285 1538.4277 1549.6006 1615.4983 1519.8691 1691.2754 L 1598.2051 1685.3457 L 1597.7266 1695.5078 C 1596.8617 1713.8878 1607.0054 1723.5392 1626.0723 1722.6211 C 1636.1504 1722.1357 1645.5859 1718.0154 1650.7734 1711.7246 C 1659.6638 1683.2297 1612.5693 1701.9668 1611.9219 1689.7305 L 1605.1973 1562.6465 C 1605.1973 1562.6465 1638.0476 1561.7754 1653.5586 1561.6016 C 1669.0699 1561.427 1694.4863 1561.6035 1694.4863 1561.6035 L 1697.6582 1693.4199 C 1698.2312 1717.2381 1646.3506 1742.2366 1610.4883 1748.7227 C 1688.2301 1762.5799 1782.8208 1799.2925 1846.4141 1772.1152 C 1746.6653 1629.5309 1698.4512 1535.2559 1698.4512 1535.2559 z M 1518.8066 1694.0215 C 1509.2855 1718.7855 1502.5209 1743.3102 1501.3105 1764.8555 C 1517.4252 1748.6504 1540.1627 1743.3104 1566.7773 1743.8652 C 1540.8749 1733.2629 1517.354 1712.4075 1518.0957 1703.0117 L 1518.8066 1694.0215 z "
       transform="matrix(0.26458333,0,0,0.26458333,0,-211.00001)"
       id="path4810" />
    <text
       transform="scale(0.81866169,1.2215058)"
       id="text4818"
       y="228.9501"
       x="480.22"
       style="font-style:normal;font-variant:normal;font-weight:normal;font-stretch:normal;font-size:19.69259453px;line-height:125%;font-family:Roboto;-inkscape-font-specification:'Roboto, Normal';font-variant-ligatures:normal;font-variant-caps:normal;font-variant-numeric:normal;text-align:start;letter-spacing:0px;word-spacing:0px;writing-mode:lr-tb;text-anchor:start;fill:#242424;fill-opacity:1;stroke:none;stroke-width:0.49231488px;stroke-linecap:butt;stroke-linejoin:miter;stroke-opacity:1"
       xml:space="preserve"><tspan
         id="tspan4816"
         style="fill:#242424;fill-opacity:1;stroke-width:0.49231488px"
         y="228.9501"
         x="480.22"
         sodipodi:role="line">Kibojoe Linux</tspan></text>
    <text
       xml:space="preserve"
       style="font-style:normal;font-variant:normal;font-weight:normal;font-stretch:normal;font-size:19.69259453px;line-height:125%;font-family:Roboto;-inkscape-font-specification:'Roboto, Normal';font-variant-ligatures:normal;font-variant-caps:normal;font-variant-numeric:normal;text-align:start;letter-spacing:0px;word-spacing:0px;writing-mode:lr-tb;text-anchor:start;fill:#242424;fill-opacity:1;stroke:none;stroke-width:0.49231488px;stroke-linecap:butt;stroke-linejoin:miter;stroke-opacity:1"
       x="330.04321"
       y="228.9501"
       id="text4822"
       transform="scale(0.81866169,1.2215058)"><tspan
         sodipodi:role="line"
         x="330.04321"
         y="228.9501"
         style="fill:#242424;fill-opacity:1;stroke-width:0.49231488px"
         id="tspan4820">Kibojoe Linux</tspan></text>
  </g>
</svg>
