<?xml version="1.0" encoding="UTF-8" standalone="no"?>
<!-- Created with Inkscape (http://www.inkscape.org/) -->

<svg
   xmlns:dc="http://purl.org/dc/elements/1.1/"
   xmlns:cc="http://creativecommons.org/ns#"
   xmlns:rdf="http://www.w3.org/1999/02/22-rdf-syntax-ns#"
   xmlns:svg="http://www.w3.org/2000/svg"
   xmlns="http://www.w3.org/2000/svg"
   xmlns:sodipodi="http://sodipodi.sourceforge.net/DTD/sodipodi-0.dtd"
   xmlns:inkscape="http://www.inkscape.org/namespaces/inkscape"
   width="20in"
   height="20in"
   viewBox="0 0 508 508.00001"
   version="1.1"
   id="svg4752"
   inkscape:version="0.92.1 unknown"
   sodipodi:docname="kibo-logos-no-txt.svg"
   inkscape:export-filename="/home/beerto/finalized-logos/kibo-logos-no-text.png"
   inkscape:export-xdpi="96"
   inkscape:export-ydpi="96">
  <defs
     id="defs4746">
    <inkscape:path-effect
       fuse_tolerance="0"
       vertical_pattern="false"
       prop_units="false"
       tang_offset="0"
       normal_offset="0"
       spacing="0"
       scale_y_rel="false"
       prop_scale="0.50918193"
       copytype="single_stretched"
       pattern="m 99.649471,-37.445002 a 8.8198939,4.5435822 0 0 1 -8.819892,4.543582 8.8198939,4.5435822 0 0 1 -8.819894,-4.543582 8.8198939,4.5435822 0 0 1 8.819894,-4.543582 8.8198939,4.5435822 0 0 1 8.819892,4.543582 z"
       is_visible="true"
       id="path-effect4555"
       effect="skeletal" />
    <inkscape:path-effect
       effect="skeletal"
       id="path-effect4541"
       is_visible="true"
       pattern="m 100.49334,-44.303197 a 8.8198939,4.5435822 0 0 1 -8.819892,4.543582 8.8198939,4.5435822 0 0 1 -8.819894,-4.543582 8.8198939,4.5435822 0 0 1 8.819894,-4.543582 8.8198939,4.5435822 0 0 1 8.819892,4.543582 z"
       copytype="single_stretched"
       prop_scale="0.50918193"
       scale_y_rel="false"
       spacing="0"
       normal_offset="0"
       tang_offset="0"
       prop_units="false"
       vertical_pattern="false"
       fuse_tolerance="0" />
  </defs>
  <sodipodi:namedview
     id="base"
     pagecolor="#ffffff"
     bordercolor="#666666"
     borderopacity="1.0"
     inkscape:pageopacity="0"
     inkscape:pageshadow="2"
     inkscape:zoom="0.175"
     inkscape:cx="912.92188"
     inkscape:cy="202.44555"
     inkscape:document-units="mm"
     inkscape:current-layer="layer1"
     showgrid="false"
     units="in"
     inkscape:snap-global="false"
     inkscape:showpageshadow="false"
     showguides="false"
     inkscape:lockguides="false"
     inkscape:guide-bbox="true">
    <sodipodi:guide
       position="0,0"
       orientation="0,1920"
       id="guide4588"
       inkscape:locked="false" />
    <sodipodi:guide
       position="508,0"
       orientation="-1920,0"
       id="guide4590"
       inkscape:locked="false" />
    <sodipodi:guide
       position="508,508"
       orientation="0,-1920"
       id="guide4592"
       inkscape:locked="false" />
    <sodipodi:guide
       position="0,508"
       orientation="1920,0"
       id="guide4594"
       inkscape:locked="false" />
    <sodipodi:guide
       position="254.17332,254.70787"
       orientation="1,0"
       id="guide4606"
       inkscape:locked="false" />
    <sodipodi:guide
       position="160.36172,283.30571"
       orientation="0,1"
       id="guide4639"
       inkscape:locked="false" />
  </sodipodi:namedview>
  <metadata
     id="metadata4749">
    <rdf:RDF>
      <cc:Work
         rdf:about="">
        <dc:format>image/svg+xml</dc:format>
        <dc:type
           rdf:resource="http://purl.org/dc/dcmitype/StillImage" />
        <dc:title />
      </cc:Work>
    </rdf:RDF>
  </metadata>
  <g
     inkscape:groupmode="layer"
     id="layer2"
     inkscape:label="bg"
     style="display:inline;opacity:0" />
  <g
     inkscape:label="logos-all"
     inkscape:groupmode="layer"
     id="layer1"
     style="display:inline"
     transform="translate(0,211.00001)">
    <ellipse
       ry="41.996094"
       rx="52.623775"
       cy="-139.14331"
       cx="55.376553"
       id="ellipse5394"
       style="opacity:1;vector-effect:none;fill:#242424;fill-opacity:1;fill-rule:evenodd;stroke:none;stroke-width:0.10896727;stroke-linecap:butt;stroke-linejoin:miter;stroke-miterlimit:4;stroke-dasharray:none;stroke-dashoffset:0;stroke-opacity:1" />
    <path
       style="font-style:normal;font-variant:normal;font-weight:normal;font-stretch:normal;font-size:29.22245026px;line-height:1.25;font-family:Lato;-inkscape-font-specification:Lato;letter-spacing:0px;word-spacing:0px;display:inline;opacity:1;vector-effect:none;fill:#8b8b8b;fill-opacity:1;fill-rule:evenodd;stroke:none;stroke-width:4.65706062;stroke-linecap:butt;stroke-linejoin:miter;stroke-miterlimit:4;stroke-dasharray:none;stroke-dashoffset:0;stroke-opacity:1"
       d="m 41.643718,-168.03113 c 0,0 -28.181065,32.39035 -29.318536,53.9651 18.202612,-16.10821 69.06323,8.87689 95.697378,2.85112 9.9413,-2.61779 -38.449933,-56.81622 -38.449933,-56.81622 0,0 -4.135646,2.40071 -13.96465,2.42648 -9.82873,-0.0257 -13.964259,-2.42648 -13.964259,-2.42648 z"
       id="path5396"
       inkscape:connector-curvature="0"
       sodipodi:nodetypes="cccccc" />
    <path
       inkscape:label="j-txt"
       sodipodi:nodetypes="cscssccsssczc"
       inkscape:connector-curvature="0"
       id="path5398"
       style="font-style:normal;font-variant:normal;font-weight:normal;font-stretch:normal;font-size:140.26776123px;line-height:1.25;font-family:'Nimbus Sans L';-inkscape-font-specification:'Nimbus Sans L, Normal';font-variant-ligatures:normal;font-variant-caps:normal;font-variant-numeric:normal;font-feature-settings:normal;text-align:start;letter-spacing:0px;word-spacing:0px;writing-mode:lr-tb;text-anchor:start;display:inline;fill:#242424;fill-opacity:1;stroke:none;stroke-width:0.38660151"
       d="m 41.643718,-168.03113 15.234864,32.48571 c 1.771857,3.77819 13.8759,-2.10249 15.725201,6.41862 -0.600411,1.89234 -2.881492,3.15314 -5.954889,3.33259 -5.814544,0.33952 -10.555805,-2.50115 -13.271766,-7.98066 l -1.501729,-3.02983 -24.230891,1.41491 2.044949,4.12574 c 3.770355,7.60685 22.21522,14.41279 32.598281,13.80649 10.549196,-0.61599 26.03263,-9.16286 22.006669,-17.28543 l -14.72178,-33.28814 c 0,0 -7.97828,0.0355 -12.801546,0.14113 -4.823248,0.10545 -15.127363,-0.14113 -15.127363,-0.14113 z" />
    <path
       style="display:inline;opacity:1;vector-effect:none;fill:#a4a4a4;fill-opacity:1;fill-rule:evenodd;stroke:none;stroke-width:1.87692809;stroke-linecap:butt;stroke-linejoin:miter;stroke-miterlimit:4;stroke-dasharray:none;stroke-dashoffset:0;stroke-opacity:1"
       d="m 69.530074,-174.06631 a 14.153538,3.4383746 0 0 1 -14.153552,3.43838 14.153538,3.4383746 0 0 1 -14.153493,-3.43838 14.153538,3.4383746 0 0 1 14.153493,-3.43838 14.153538,3.4383746 0 0 1 14.153552,3.43838 z"
       id="path5400"
       inkscape:connector-curvature="0"
       inkscape:label="circle-top" />
    <ellipse
       style="opacity:1;vector-effect:none;fill:#242424;fill-opacity:1;fill-rule:evenodd;stroke:none;stroke-width:0.10827156;stroke-linecap:butt;stroke-linejoin:miter;stroke-miterlimit:4;stroke-dasharray:none;stroke-dashoffset:0;stroke-opacity:1"
       id="ellipse4526"
       cx="179.92416"
       cy="-136.47067"
       rx="52.623775"
       ry="41.461555" />
    <path
       sodipodi:nodetypes="cccccc"
       inkscape:connector-curvature="0"
       id="path4528"
       d="m 154.966,-168.03113 c 0,0 -28.18107,32.39035 -29.31854,53.9651 18.20262,-16.10821 69.06323,8.87689 95.69738,2.85112 9.9413,-2.61779 -38.44993,-56.81622 -38.44993,-56.81622 0,0 -4.13565,2.40071 -13.96465,2.42648 -9.82873,-0.0257 -13.96426,-2.42648 -13.96426,-2.42648 z"
       style="font-style:normal;font-variant:normal;font-weight:normal;font-stretch:normal;font-size:29.22245026px;line-height:1.25;font-family:Lato;-inkscape-font-specification:Lato;letter-spacing:0px;word-spacing:0px;display:inline;opacity:1;vector-effect:none;fill:#8b8b8b;fill-opacity:1;fill-rule:evenodd;stroke:none;stroke-width:4.65706062;stroke-linecap:butt;stroke-linejoin:miter;stroke-miterlimit:4;stroke-dasharray:none;stroke-dashoffset:0;stroke-opacity:1" />
    <path
       d="m 164.65398,-159.26725 16.59433,29.03279 c 1.92997,3.37661 13.48798,-2.69177 15.7372,5.04103 -0.49119,1.77258 -2.66154,3.05645 -5.6637,3.3895 -5.67978,0.63012 -10.47111,-1.72218 -13.41343,-6.61127 l -1.6269,-2.70337 -23.66926,2.62593 2.21538,3.68119 c 4.08459,6.78722 22.50645,12.0356 32.64884,10.91038 10.3047,-1.14323 25.03708,-9.8476 20.67558,-17.09497 l -16.13278,-29.79857 c 0,0 -7.81544,0.46895 -12.53594,0.82983 -4.72051,0.36072 -14.82932,0.69753 -14.82932,0.69753 z"
       style="font-style:normal;font-variant:normal;font-weight:normal;font-stretch:normal;font-size:140.26776123px;line-height:1.25;font-family:'Nimbus Sans L';-inkscape-font-specification:'Nimbus Sans L, Normal';font-variant-ligatures:normal;font-variant-caps:normal;font-variant-numeric:normal;font-feature-settings:normal;text-align:start;letter-spacing:0px;word-spacing:0px;writing-mode:lr-tb;text-anchor:start;display:inline;fill:#242424;fill-opacity:1;stroke:none;stroke-width:0.36749697"
       id="path4530"
       inkscape:connector-curvature="0"
       sodipodi:nodetypes="cscssccsssczc"
       inkscape:label="j-txt" />
    <path
       inkscape:label="circle-top"
       inkscape:connector-curvature="0"
       id="path4532"
       d="m 181.43291,-172.4789 a 12.547138,3.69826 0 0 1 -12.54716,3.69826 12.547138,3.69826 0 0 1 -12.54709,-3.69826 12.547138,3.69826 0 0 1 12.54709,-3.69827 12.547138,3.69826 0 0 1 12.54716,3.69827 z"
       style="display:inline;opacity:1;vector-effect:none;fill:#a4a4a4;fill-opacity:1;fill-rule:evenodd;stroke:none;stroke-width:1.83277678;stroke-linecap:butt;stroke-linejoin:miter;stroke-miterlimit:4;stroke-dasharray:none;stroke-dashoffset:0;stroke-opacity:1" />
    <path
       style="opacity:1;vector-effect:none;fill:#242424;fill-opacity:1;fill-rule:evenodd;stroke:none;stroke-width:0.10896727;stroke-linecap:butt;stroke-linejoin:miter;stroke-miterlimit:4;stroke-dasharray:none;stroke-dashoffset:0;stroke-opacity:1"
       d="m 326.00749,-181.13967 a 52.623775,41.996092 0 0 0 -52.62367,41.99588 52.623775,41.996092 0 0 0 9.63972,24.13858 c 1.87728,-21.56224 29.25094,-53.0257 29.25094,-53.0257 l 15.23523,32.48535 c 1.77186,3.77819 13.87584,-2.10238 15.72514,6.41873 -0.60039,1.89234 -2.88179,3.15317 -5.95519,3.33262 -5.81453,0.33951 -10.55557,-2.50141 -13.27152,-7.98091 l -1.50172,-3.02979 -24.2311,1.4149 2.04486,4.12585 c 3.77034,7.60684 22.21545,14.41269 32.59852,13.80639 10.54917,-0.61599 26.03288,-9.16268 22.00693,-17.28525 l -14.72211,-33.28789 c 0,0 24.22583,27.13454 34.8728,43.93168 a 52.623775,41.996092 0 0 0 3.55483,-15.04456 52.623775,41.996092 0 0 0 -52.62366,-41.99588 z m 0,3.63492 a 14.153537,3.4383747 0 0 1 14.15364,3.43855 14.153537,3.4383747 0 0 1 -14.15364,3.43803 14.153537,3.4383747 0 0 1 -14.15365,-3.43803 14.153537,3.4383747 0 0 1 14.15365,-3.43855 z m -24.16442,57.93599 c -7.4562,0.0164 -13.84351,1.37029 -18.36995,5.06533 a 52.623775,41.996092 0 0 0 42.53437,17.356114 52.623775,41.996092 0 0 0 38.28603,-13.260234 c -19.43706,-1.19923 -44.15761,-9.20132 -62.45045,-9.16121 z"
       id="ellipse4538"
       inkscape:connector-curvature="0" />
    <path
       style="opacity:1;vector-effect:none;fill:#242424;fill-opacity:1;fill-rule:evenodd;stroke:none;stroke-width:0.50800002;stroke-linecap:butt;stroke-linejoin:miter;stroke-miterlimit:4;stroke-dasharray:none;stroke-dashoffset:0;stroke-opacity:1"
       d="m 450.55493,-177.93263 a 52.623775,41.461555 0 0 0 -16.51786,2.1301 12.547138,3.6982601 0 0 1 5.47976,-0.37465 12.547138,3.6982601 0 0 1 12.54705,3.69848 12.547138,3.6982601 0 0 1 -12.54705,3.69796 12.547138,3.6982601 0 0 1 -12.54704,-3.69796 12.547138,3.6982601 0 0 1 0.85061,-1.32757 52.623775,41.461555 0 0 0 -29.88914,37.33519 52.623775,41.461555 0 0 0 1.45521,9.46712 c 7.5733,-19.60534 26.21029,-41.02695 26.21029,-41.02695 0,0 4.13578,2.40051 13.96452,2.42621 9.82901,-0.0258 13.96452,-2.42621 13.96452,-2.42621 0,0 2.60295,2.91751 6.45541,7.40213 -2.58619,0.15999 -6.54716,0.41024 -9.86707,0.66404 -4.72052,0.36072 -14.82908,0.69763 -14.82908,0.69763 l 16.59432,29.03285 c 1.92998,3.37662 13.48783,-2.69176 15.73702,5.04104 -0.49117,1.77258 -2.66157,3.05641 -5.66372,3.38946 -5.67979,0.63012 -10.47081,-1.72239 -13.41313,-6.61148 l -1.6273,-2.7032 -23.66883,2.62568 2.21536,3.68143 c 1.82972,3.04039 6.53899,5.76946 12.08971,7.75767 -7.94578,-1.43815 -15.60706,-2.52999 -22.38364,-2.5151 -4.30909,0.009 -8.26027,0.46637 -11.70266,1.5627 a 52.623775,41.461555 0 0 0 47.09274,22.996598 52.623775,41.461555 0 0 0 41.77832,-16.336018 c -0.11012,0.0515 -0.22784,0.0966 -0.35761,0.13074 -10.03777,2.27098 -23.5172,0.13616 -37.39203,-2.54248 1.24981,0.0199 2.43647,-0.023 3.52383,-0.14366 10.3047,-1.14323 25.03723,-9.84772 20.67573,-17.09508 l -11.10578,-20.51348 c 12.17255,14.68971 27.48097,34.55793 25.46098,39.32938 a 52.623775,41.461555 0 0 0 10.04073,-24.29102 52.623775,41.461555 0 0 0 -52.62417,-41.46155 z"
       id="ellipse4550"
       inkscape:connector-curvature="0" />
    <text
       xml:space="preserve"
       style="font-style:normal;font-variant:normal;font-weight:normal;font-stretch:normal;font-size:10.58333302px;line-height:125%;font-family:Roboto;-inkscape-font-specification:'Roboto, Normal';font-variant-ligatures:normal;font-variant-caps:normal;font-variant-numeric:normal;text-align:start;letter-spacing:0px;word-spacing:0px;writing-mode:lr-tb;text-anchor:start;fill:#000000;fill-opacity:1;stroke:none;stroke-width:0.26458332px;stroke-linecap:butt;stroke-linejoin:miter;stroke-opacity:1"
       x="85.800598"
       y="-190.13557"
       id="text4621"><tspan
         sodipodi:role="line"
         id="tspan4619"
         x="85.800598"
         y="-190.13557"
         style="font-size:19.75555611px;stroke-width:0.26458332px">INTACT</tspan></text>
    <text
       id="text4625"
       y="-190.13557"
       x="349.86288"
       style="font-style:normal;font-variant:normal;font-weight:normal;font-stretch:normal;font-size:10.58333302px;line-height:125%;font-family:Roboto;-inkscape-font-specification:'Roboto, Normal';font-variant-ligatures:normal;font-variant-caps:normal;font-variant-numeric:normal;text-align:start;letter-spacing:0px;word-spacing:0px;writing-mode:lr-tb;text-anchor:start;fill:#000000;fill-opacity:1;stroke:none;stroke-width:0.26458332px;stroke-linecap:butt;stroke-linejoin:miter;stroke-opacity:1"
       xml:space="preserve"><tspan
         style="font-size:19.75555611px;stroke-width:0.26458332px"
         y="-190.13557"
         x="349.86288"
         id="tspan4623"
         sodipodi:role="line">CUT-OUT</tspan></text>
    <path
       style="opacity:1;vector-effect:none;fill:#000000;fill-opacity:1;fill-rule:evenodd;stroke:#000018;stroke-width:2.365;stroke-linecap:butt;stroke-linejoin:miter;stroke-miterlimit:4;stroke-dasharray:none;stroke-dashoffset:0;stroke-opacity:1"
       d="M 254.17331,-211 V 296.99998 Z"
       id="path4633"
       inkscape:connector-curvature="0" />
    <path
       style="font-style:normal;font-variant:normal;font-weight:normal;font-stretch:normal;font-size:29.22245026px;line-height:1.25;font-family:Lato;-inkscape-font-specification:Lato;letter-spacing:0px;word-spacing:0px;display:inline;opacity:1;vector-effect:none;fill:#bababa;fill-opacity:1;fill-rule:evenodd;stroke:none;stroke-width:5.20517778;stroke-linecap:butt;stroke-linejoin:miter;stroke-miterlimit:4;stroke-dasharray:none;stroke-dashoffset:0;stroke-opacity:1"
       d="m 164.21286,-36.388748 c 0,0 -32.96945,35.2118908 -34.55694,58.549024 21.23453,-17.5391827 79.68006,9.140666 110.52826,2.448099 11.51888,-2.896661 -47.38871,-62.895194 -47.38871,-62.895194 0,0 -1.12338,4.336193 -12.47968,4.429266 -11.35536,0.03742 -16.10293,-2.531195 -16.10293,-2.531195 z"
       id="path4678"
       inkscape:connector-curvature="0"
       sodipodi:nodetypes="cccccc" />
    <path
       d="m 168.48061,-27.614672 12.75363,27.95054676 c 1.48326,3.25073814 16.71988,-2.84565706 17.53071,4.63560924 -1.01358,1.7319551 -3.9096,3.0171002 -7.5668,3.3917472 -6.91907,0.7088204 -12.05889,-1.4974764 -14.38274,-6.2018157 l -1.2849,-2.60121141 -28.42198,3.49969011 c 0,0 -0.17252,-0.386361 1.33791,2.9962812 1.51043,3.3826462 23.90506,11.3225596 36.26046,10.0568066 12.55315,-1.286015 31.71512,-9.8522896 28.764,-16.97283758 L 201.35052,-30.104236 c 0,0 -9.42452,0.588231 -15.13565,1.019015 -5.71111,0.430629 -17.73426,1.470549 -17.73426,1.470549 z"
       style="font-style:normal;font-variant:normal;font-weight:normal;font-stretch:normal;font-size:140.26776123px;line-height:1.25;font-family:'Nimbus Sans L';-inkscape-font-specification:'Nimbus Sans L, Normal';font-variant-ligatures:normal;font-variant-caps:normal;font-variant-numeric:normal;font-feature-settings:normal;text-align:start;letter-spacing:0px;word-spacing:0px;writing-mode:lr-tb;text-anchor:start;display:inline;fill:#242424;fill-opacity:1;stroke:none;stroke-width:0.39485046"
       id="path4680"
       inkscape:connector-curvature="0"
       sodipodi:nodetypes="cscsscczssccc"
       inkscape:label="j-txt" />
    <path
       inkscape:label="circle-top"
       inkscape:connector-curvature="0"
       id="path4682"
       d="m 192.96984,-37.474319 a 16.533421,5.2379744 0.42488389 0 1 -16.51297,5.134289 16.533421,5.2379744 0.42488389 0 1 -16.55299,-5.342176 16.533421,5.2379744 0.42488389 0 1 16.51288,-5.134305 16.533421,5.2379744 0.42488389 0 1 16.55308,5.342192 z"
       style="display:inline;opacity:1;vector-effect:none;fill:#242424;fill-opacity:1;fill-rule:evenodd;stroke:none;stroke-width:2.50381112;stroke-linecap:butt;stroke-linejoin:miter;stroke-miterlimit:4;stroke-dasharray:none;stroke-dashoffset:0;stroke-opacity:1" />
    <path
       style="font-style:normal;font-variant:normal;font-weight:normal;font-stretch:normal;font-size:29.22245026px;line-height:1.25;font-family:Lato;-inkscape-font-specification:Lato;letter-spacing:0px;word-spacing:0px;display:inline;opacity:1;vector-effect:none;fill:#242424;fill-opacity:1;fill-rule:evenodd;stroke:none;stroke-width:5.20517778;stroke-linecap:butt;stroke-linejoin:miter;stroke-miterlimit:4;stroke-dasharray:none;stroke-dashoffset:0;stroke-opacity:1"
       d="m 382.55563,-37.660577 c 0,0 -0.0174,0.04477 -0.0212,0.05685 a 16.53342,5.2379744 0.42488389 0 1 0.19587,0.75551 16.53342,5.2379744 0.42488389 0 1 -16.51323,5.13457 16.53342,5.2379744 0.42488389 0 1 -13.73558,-2.409155 c -6.43145,7.176963 -31.68045,36.553336 -33.06515,56.909186 21.23453,-17.5391826 79.67993,9.140999 110.52813,2.448417 8.62594,-2.16916 -22.2372,-36.354025 -38.28603,-53.391043 l 11.57292,27.92284492 C 406.1825,6.8871532 387.0204,15.453188 374.46724,16.739203 362.11183,18.004957 339.71734,10.065103 338.20692,6.6824585 336.69649,3.2998153 336.86902,3.68626 336.86902,3.68626 l 28.42152,-3.50004368 1.28519,2.60138928 c 2.32386,4.7043393 7.46352,6.9105051 14.38259,6.2016874 3.6572,-0.3746477 6.55338,-1.6595688 7.56697,-3.3915229 -0.81084,-7.4812682 -16.04745,-1.3851534 -17.53071,-4.63589108 L 358.24085,-26.988359 c 0,0 12.02319,-1.040083 17.7343,-1.470711 5.36168,-0.404426 13.43488,-0.911719 14.47147,-0.976685 -4.68127,-4.94752 -7.89099,-8.224822 -7.89099,-8.224822 z"
       id="path4684"
       inkscape:connector-curvature="0" />
    <path
       sodipodi:nodetypes="cccccc"
       inkscape:connector-curvature="0"
       id="path4696"
       d="m 44.01643,-36.388748 c 0,0 -32.96945,35.2118908 -34.5569403,58.549024 C 30.69402,4.6210933 89.13955,31.300942 119.98775,24.608375 131.50663,21.711714 72.59904,-38.286819 72.59904,-38.286819 c 0,0 -1.12338,4.336193 -12.47968,4.429266 -11.35536,0.03742 -16.10293,-2.531195 -16.10293,-2.531195 z"
       style="font-style:normal;font-variant:normal;font-weight:normal;font-stretch:normal;font-size:29.22245026px;line-height:1.25;font-family:Lato;-inkscape-font-specification:Lato;letter-spacing:0px;word-spacing:0px;display:inline;opacity:1;vector-effect:none;fill:#242424;fill-opacity:1;fill-rule:evenodd;stroke:none;stroke-width:5.20517778;stroke-linecap:butt;stroke-linejoin:miter;stroke-miterlimit:4;stroke-dasharray:none;stroke-dashoffset:0;stroke-opacity:1" />
    <path
       inkscape:label="j-txt"
       sodipodi:nodetypes="cscsscczssccc"
       inkscape:connector-curvature="0"
       id="path4698"
       style="font-style:normal;font-variant:normal;font-weight:normal;font-stretch:normal;font-size:140.26776123px;line-height:1.25;font-family:'Nimbus Sans L';-inkscape-font-specification:'Nimbus Sans L, Normal';font-variant-ligatures:normal;font-variant-caps:normal;font-variant-numeric:normal;font-feature-settings:normal;text-align:start;letter-spacing:0px;word-spacing:0px;writing-mode:lr-tb;text-anchor:start;display:inline;fill:#bababa;fill-opacity:1;stroke:none;stroke-width:0.39485046"
       d="M 48.28418,-27.614672 61.03781,0.33587476 C 62.52107,3.5866129 77.75769,-2.5097823 78.56852,4.971484 77.55494,6.7034391 74.65892,7.9885842 71.00172,8.3632312 64.08265,9.0720516 58.94283,6.8657548 56.61898,2.1614155 L 55.33408,-0.43979591 26.9121,3.0598942 c 0,0 -0.17252,-0.386361 1.33791,2.9962812 1.51043,3.3826462 23.90506,11.3225596 36.26046,10.0568066 12.55315,-1.286015 31.71512,-9.8522896 28.764,-16.97283758 L 81.15409,-30.104236 c 0,0 -9.42452,0.588231 -15.13565,1.019015 -5.71111,0.430629 -17.73426,1.470549 -17.73426,1.470549 z" />
    <path
       style="display:inline;opacity:1;vector-effect:none;fill:#bababa;fill-opacity:1;fill-rule:evenodd;stroke:none;stroke-width:2.50381112;stroke-linecap:butt;stroke-linejoin:miter;stroke-miterlimit:4;stroke-dasharray:none;stroke-dashoffset:0;stroke-opacity:1"
       d="m 72.77341,-37.474319 a 16.533421,5.2379744 0.42488389 0 1 -16.51297,5.134289 16.533421,5.2379744 0.42488389 0 1 -16.55299,-5.342176 16.533421,5.2379744 0.42488389 0 1 16.51288,-5.134305 16.533421,5.2379744 0.42488389 0 1 16.55308,5.342192 z"
       id="path4700"
       inkscape:connector-curvature="0"
       inkscape:label="circle-top" />
    <path
       style="font-style:normal;font-variant:normal;font-weight:normal;font-stretch:normal;font-size:29.22245026px;line-height:1.25;font-family:Lato;-inkscape-font-specification:Lato;letter-spacing:0px;word-spacing:0px;display:inline;opacity:1;vector-effect:none;fill:#242424;fill-opacity:1;fill-rule:evenodd;stroke:none;stroke-width:5.20517778;stroke-linecap:butt;stroke-linejoin:miter;stroke-miterlimit:4;stroke-dasharray:none;stroke-dashoffset:0;stroke-opacity:1"
       d="m 42.947352,85.787312 c 0,0 -31.900372,34.744088 -33.4878623,58.081228 21.2345303,-17.53919 79.6800603,9.14067 110.5282603,2.4481 11.51888,-2.89666 -47.010734,-61.383228 -47.010734,-61.383228 0,0 -1.501356,2.8243 -12.857656,2.917367 -11.35536,0.0374 -17.172008,-2.063467 -17.172008,-2.063467 z"
       id="path4702"
       inkscape:connector-curvature="0"
       sodipodi:nodetypes="cccccc" />
    <path
       d="m 42.826411,85.726682 11.885694,28.330448 c 1.382316,3.29493 16.799677,-2.32874 17.379432,5.17397 -1.066504,1.69988 -4.000775,2.89511 -7.667788,3.15681 -6.937637,0.49513 -12.00698,-1.86861 -14.184664,-6.64237 l -1.204079,-2.63959 -28.51638,2.62162 c 0,0 -0.160524,-0.3915 1.244882,3.03611 1.405406,3.42761 23.544555,12.0543 35.93311,11.17014 12.586835,-0.89832 32.003839,-8.86965 29.273689,-16.07782 L 75.757458,84.251862 c 0,0 -9.438177,0.29734 -15.159875,0.55182 -5.721673,0.25432 -17.771172,0.923 -17.771172,0.923 z"
       style="font-style:normal;font-variant:normal;font-weight:normal;font-stretch:normal;font-size:140.26776123px;line-height:1.25;font-family:'Nimbus Sans L';-inkscape-font-specification:'Nimbus Sans L, Normal';font-variant-ligatures:normal;font-variant-caps:normal;font-variant-numeric:normal;font-feature-settings:normal;text-align:start;letter-spacing:0px;word-spacing:0px;writing-mode:lr-tb;text-anchor:start;display:inline;fill:#bababa;fill-opacity:1;stroke:none;stroke-width:0.39485046"
       id="path4721"
       inkscape:connector-curvature="0"
       sodipodi:nodetypes="cscsscczssccc"
       inkscape:label="j-txt" />
    <path
       inkscape:label="circle-top"
       inkscape:connector-curvature="0"
       id="path4723"
       d="m 73.178395,79.587542 a 5.2379744,16.533421 88.554475 0 1 -16.336594,5.67053 5.2379744,16.533421 88.554475 0 1 -16.718534,-4.79906 5.2379744,16.533421 88.554475 0 1 16.336504,-5.67054 5.2379744,16.533421 88.554475 0 1 16.718624,4.79907 z"
       style="display:inline;opacity:1;vector-effect:none;fill:#bababa;fill-opacity:1;fill-rule:evenodd;stroke:none;stroke-width:2.50381112;stroke-linecap:butt;stroke-linejoin:miter;stroke-miterlimit:4;stroke-dasharray:none;stroke-dashoffset:0;stroke-opacity:1" />
    <path
       style="font-style:normal;font-variant:normal;font-weight:normal;font-stretch:normal;font-size:29.22245026px;line-height:1.25;font-family:Lato;-inkscape-font-specification:Lato;letter-spacing:0px;word-spacing:0px;display:inline;opacity:1;vector-effect:none;fill:#242424;fill-opacity:1;fill-rule:evenodd;stroke:none;stroke-width:5.20517778;stroke-linecap:butt;stroke-linejoin:miter;stroke-miterlimit:4;stroke-dasharray:none;stroke-dashoffset:0;stroke-opacity:1"
       d="m 311.48229,74.770873 a 5.2379744,16.533421 88.554475 0 0 -1.65108,0.01757 5.2379744,16.533421 88.554475 0 0 -16.33646,5.670444 5.2379744,16.533421 88.554475 0 0 16.71836,4.799198 5.2379744,16.533421 88.554475 0 0 16.33699,-5.670444 5.2379744,16.533421 88.554475 0 0 -15.06781,-4.816766 z m -15.22855,11.088713 c -0.71035,0.776473 -31.85335,34.937444 -33.42276,58.008794 21.23452,-17.53918 79.67995,9.14101 110.52814,2.44843 9.45666,-2.37808 -28.2475,-42.16913 -42.06928,-56.359793 l 9.05216,23.898723 c 2.73016,7.20818 -16.68682,15.17978 -29.27365,16.0781 -12.38856,0.88415 -34.52781,-7.74277 -35.9332,-11.17037 -1.40541,-3.42762 -1.24489,-3.03599 -1.24489,-3.03599 l 28.51608,-2.62154 1.20406,2.63961 c 2.17768,4.77378 7.24705,7.13764 14.18466,6.6425 3.66702,-0.2617 6.60125,-1.45703 7.66776,-3.1569 -0.57976,-7.50271 -15.99698,-1.87894 -17.37929,-5.17385 z"
       id="path4729"
       inkscape:connector-curvature="0" />
    <path
       sodipodi:nodetypes="cccccc"
       inkscape:connector-curvature="0"
       id="path4743"
       d="m 164.65569,85.787312 c 0,0 -31.90037,34.744088 -33.48787,58.081228 21.23454,-17.53919 79.68007,9.14067 110.52827,2.4481 11.51888,-2.89666 -47.01074,-61.383228 -47.01074,-61.383228 0,0 -1.50135,2.8243 -12.85765,2.917367 -11.35536,0.0374 -17.17201,-2.063467 -17.17201,-2.063467 z"
       style="font-style:normal;font-variant:normal;font-weight:normal;font-stretch:normal;font-size:29.22245026px;line-height:1.25;font-family:Lato;-inkscape-font-specification:Lato;letter-spacing:0px;word-spacing:0px;display:inline;opacity:1;vector-effect:none;fill:#bababa;fill-opacity:1;fill-rule:evenodd;stroke:none;stroke-width:5.20517778;stroke-linecap:butt;stroke-linejoin:miter;stroke-miterlimit:4;stroke-dasharray:none;stroke-dashoffset:0;stroke-opacity:1" />
    <path
       inkscape:label="j-txt"
       sodipodi:nodetypes="cscsscczssccc"
       inkscape:connector-curvature="0"
       id="path4745"
       style="font-style:normal;font-variant:normal;font-weight:normal;font-stretch:normal;font-size:140.26776123px;line-height:1.25;font-family:'Nimbus Sans L';-inkscape-font-specification:'Nimbus Sans L, Normal';font-variant-ligatures:normal;font-variant-caps:normal;font-variant-numeric:normal;font-feature-settings:normal;text-align:start;letter-spacing:0px;word-spacing:0px;writing-mode:lr-tb;text-anchor:start;display:inline;fill:#242424;fill-opacity:1;stroke:none;stroke-width:0.39485046"
       d="m 166.04665,97.065908 11.88569,28.330502 c 1.38232,3.29493 16.79968,-2.32874 17.37943,5.17397 -1.0665,1.69988 -4.00077,2.89511 -7.66779,3.15681 -6.93763,0.49513 -12.00698,-1.86861 -14.18466,-6.64237 l -1.20408,-2.63959 -28.51638,2.62162 c 0,0 -0.16052,-0.3915 1.24488,3.03611 1.40541,3.42761 23.54456,12.0543 35.93311,11.17014 12.58684,-0.89832 32.00384,-8.86965 29.27369,-16.07782 L 198.97769,95.591097 c 0,0 -9.43817,0.297337 -15.15987,0.551817 -5.72167,0.254317 -17.77117,0.922994 -17.77117,0.922994 z" />
    <path
       style="display:inline;opacity:1;vector-effect:none;fill:#242424;fill-opacity:1;fill-rule:evenodd;stroke:none;stroke-width:2.50381112;stroke-linecap:butt;stroke-linejoin:miter;stroke-miterlimit:4;stroke-dasharray:none;stroke-dashoffset:0;stroke-opacity:1"
       d="m 196.39863,90.926804 a 5.2379744,16.533421 88.554475 0 1 -16.33659,5.670497 5.2379744,16.533421 88.554475 0 1 -16.71854,-4.799033 5.2379744,16.533421 88.554475 0 1 16.33651,-5.670516 5.2379744,16.533421 88.554475 0 1 16.71862,4.799052 z"
       id="path4747"
       inkscape:connector-curvature="0"
       inkscape:label="circle-top" />
    <path
       style="font-style:normal;font-variant:normal;font-weight:normal;font-stretch:normal;font-size:29.22245026px;line-height:1.25;font-family:Lato;-inkscape-font-specification:Lato;letter-spacing:0px;word-spacing:0px;display:inline;opacity:1;vector-effect:none;fill:#242424;fill-opacity:1;fill-rule:evenodd;stroke:none;stroke-width:5.20517778;stroke-linecap:butt;stroke-linejoin:miter;stroke-miterlimit:4;stroke-dasharray:none;stroke-dashoffset:0;stroke-opacity:1"
       d="m 444.90565,84.933545 c 0,0 -0.30207,0.557027 -1.62573,1.184434 a 5.2379744,16.533421 88.554475 0 1 4.09535,3.296944 5.2379744,16.533421 88.554475 0 1 -10.1234,5.11645 c 5.62962,-0.22651 12.70206,-0.452137 12.70206,-0.452137 l 11.21325,29.603814 c 2.73019,7.20818 -16.68732,15.17978 -29.27416,16.0781 -12.38856,0.88416 -34.52728,-7.74277 -35.93269,-11.17037 -1.40539,-3.42762 -1.24489,-3.03601 -1.24489,-3.03601 l 28.51608,-2.62155 1.20406,2.63965 c 2.17768,4.77377 7.24702,7.13763 14.18466,6.64249 3.66702,-0.2617 6.60127,-1.45706 7.66776,-3.15693 -0.57973,-7.50271 -15.997,-1.87893 -17.37929,-5.17384 L 417.02312,95.554067 c 0,0 4.88413,-0.26924 9.89706,-0.531227 a 5.2379744,16.533421 88.554475 0 1 -12.60025,-4.736653 5.2379744,16.533421 88.554475 0 1 4.10879,-3.601841 c -2.35207,-0.467069 -3.55275,-0.897097 -3.55275,-0.897097 0,0 -31.90038,34.744011 -33.48788,58.081131 21.23453,-17.53918 79.67993,9.14101 110.52812,2.44843 11.5189,-2.89666 -47.01056,-61.383265 -47.01056,-61.383265 z"
       id="path4753"
       inkscape:connector-curvature="0" />
    <path
       sodipodi:nodetypes="cccccc"
       inkscape:connector-curvature="0"
       id="path4778"
       d="m 45.998634,196.04226 c 0,0 -25.91912,36.56431 -27.23057,59.90903 17.5421,-17.64052 64.69071,13.29616 91.308696,1.92069 C 83.684904,220.14653 70.928394,195.2029 70.928394,195.2029 c 0,0 -3.16749,3.68633 -12.54906,3.83359 -9.3808,0.0916 -12.3807,-2.99423 -12.3807,-2.99423 z"
       style="font-style:normal;font-variant:normal;font-weight:normal;font-stretch:normal;font-size:29.22245026px;line-height:1.25;font-family:Lato;-inkscape-font-specification:Lato;letter-spacing:0px;word-spacing:0px;display:inline;opacity:1;vector-effect:none;fill:#242424;fill-opacity:1;fill-rule:evenodd;stroke:none;stroke-width:4.73102188;stroke-linecap:butt;stroke-linejoin:miter;stroke-miterlimit:4;stroke-dasharray:none;stroke-dashoffset:0;stroke-opacity:1" />
    <path
       inkscape:label="j-txt"
       sodipodi:nodetypes="cscsscczsscccc"
       inkscape:connector-curvature="0"
       id="path4780"
       style="font-style:normal;font-variant:normal;font-weight:normal;font-stretch:normal;font-size:140.26776123px;line-height:1.25;font-family:'Nimbus Sans L';-inkscape-font-specification:'Nimbus Sans L, Normal';font-variant-ligatures:normal;font-variant-caps:normal;font-variant-numeric:normal;font-feature-settings:normal;text-align:start;letter-spacing:0px;word-spacing:0px;writing-mode:lr-tb;text-anchor:start;display:inline;fill:#bababa;fill-opacity:1;stroke:none;stroke-width:0.33405781"
       d="m 46.25504,202.4503 1.77901,33.62439 c 0.171294,3.23752 12.631453,-1.72036 10.279205,5.81892 -1.372544,1.66443 -3.868693,2.75502 -6.535204,2.88344 -5.044779,0.24291 -7.728879,-2.31069 -7.500031,-7.17373 l 0.126553,-2.68895 -20.951621,1.58617 -0.243755,3.08779 c -0.275196,3.48593 12.070692,12.93836 21.07917,12.50454 9.15267,-0.44077 26.600839,-7.94274 26.430042,-15.04234 l -0.839076,-34.87612 c 0,0 -6.724732,-0.0466 -10.828756,-4.2e-4 -4.10395,0.046 -12.795547,0.27628 -12.795547,0.27628 z" />
    <path
       inkscape:label="circle-top"
       inkscape:connector-curvature="0"
       id="path4782"
       d="m 70.471934,191.39387 a 3.8828008,12.255879 88.554475 0 1 -12.10998,4.20345 3.8828008,12.255879 88.554475 0 1 -12.3931,-3.55745 3.8828008,12.255879 88.554475 0 1 12.10991,-4.20345 3.8828008,12.255879 88.554475 0 1 12.39317,3.55745 z"
       style="display:inline;opacity:1;vector-effect:none;fill:#242424;fill-opacity:1;fill-rule:evenodd;stroke:none;stroke-width:1.85602283;stroke-linecap:butt;stroke-linejoin:miter;stroke-miterlimit:4;stroke-dasharray:none;stroke-dashoffset:0;stroke-opacity:1" />
    <path
       style="font-style:normal;font-variant:normal;font-weight:normal;font-stretch:normal;font-size:29.22245026px;line-height:1.25;font-family:Lato;-inkscape-font-specification:Lato;letter-spacing:0px;word-spacing:0px;display:inline;opacity:1;vector-effect:none;fill:#bababa;fill-opacity:1;fill-rule:evenodd;stroke:none;stroke-width:4.73102188;stroke-linecap:butt;stroke-linejoin:miter;stroke-miterlimit:4;stroke-dasharray:none;stroke-dashoffset:0;stroke-opacity:1"
       d="m 168.94262,196.04226 c 0,0 -25.91912,36.56431 -27.23057,59.90903 17.5421,-17.64052 64.69071,13.29616 91.30869,1.92069 -26.39185,-37.72545 -39.14836,-62.66908 -39.14836,-62.66908 0,0 -3.16749,3.68633 -12.54906,3.83359 -9.3808,0.0916 -12.3807,-2.99423 -12.3807,-2.99423 z"
       id="path4790"
       inkscape:connector-curvature="0"
       sodipodi:nodetypes="cccccc" />
    <path
       d="m 169.19902,202.4503 1.77901,33.62439 c 0.1713,3.23752 12.63146,-1.72036 10.27921,5.81892 -1.37254,1.66443 -3.86869,2.75502 -6.5352,2.88344 -5.04478,0.24291 -7.72888,-2.31069 -7.50004,-7.17373 l 0.12656,-2.68895 -20.95162,1.58617 -0.24376,3.08779 c -0.27519,3.48593 12.07069,12.93836 21.07917,12.50454 9.15267,-0.44077 26.60084,-7.94274 26.43004,-15.04234 l -0.83907,-34.87612 c 0,0 -6.72473,-0.0466 -10.82876,-4.2e-4 -4.10395,0.046 -12.79555,0.27628 -12.79555,0.27628 z"
       style="font-style:normal;font-variant:normal;font-weight:normal;font-stretch:normal;font-size:140.26776123px;line-height:1.25;font-family:'Nimbus Sans L';-inkscape-font-specification:'Nimbus Sans L, Normal';font-variant-ligatures:normal;font-variant-caps:normal;font-variant-numeric:normal;font-feature-settings:normal;text-align:start;letter-spacing:0px;word-spacing:0px;writing-mode:lr-tb;text-anchor:start;display:inline;fill:#242424;fill-opacity:1;stroke:none;stroke-width:0.33405781"
       id="path4792"
       inkscape:connector-curvature="0"
       sodipodi:nodetypes="cscsscczsscccc"
       inkscape:label="j-txt" />
    <path
       style="display:inline;opacity:1;vector-effect:none;fill:#bababa;fill-opacity:1;fill-rule:evenodd;stroke:none;stroke-width:1.85602283;stroke-linecap:butt;stroke-linejoin:miter;stroke-miterlimit:4;stroke-dasharray:none;stroke-dashoffset:0;stroke-opacity:1"
       d="m 193.41592,191.39387 a 3.8828008,12.255879 88.554475 0 1 -12.10998,4.20345 3.8828008,12.255879 88.554475 0 1 -12.3931,-3.55745 3.8828008,12.255879 88.554475 0 1 12.10991,-4.20345 3.8828008,12.255879 88.554475 0 1 12.39317,3.55745 z"
       id="path4794"
       inkscape:connector-curvature="0"
       inkscape:label="circle-top" />
    <path
       style="font-style:normal;font-variant:normal;font-weight:normal;font-stretch:normal;font-size:29.22245026px;line-height:1.25;font-family:Lato;-inkscape-font-specification:Lato;letter-spacing:0px;word-spacing:0px;display:inline;opacity:1;vector-effect:none;fill:#242424;fill-opacity:1;fill-rule:evenodd;stroke:none;stroke-width:17.88102722;stroke-linecap:butt;stroke-linejoin:miter;stroke-miterlimit:4;stroke-dasharray:none;stroke-dashoffset:0;stroke-opacity:1"
       d="M 1189.8418 1507.3652 A 14.675153 46.321431 88.554475 0 0 1185.2168 1507.4141 A 14.675153 46.321431 88.554475 0 0 1139.4473 1523.3008 A 14.675153 46.321431 88.554475 0 0 1186.2871 1536.7461 A 14.675153 46.321431 88.554475 0 0 1232.0566 1520.8594 A 14.675153 46.321431 88.554475 0 0 1189.8418 1507.3652 z M 1233.7812 1535.2559 C 1233.7812 1535.2559 1221.8095 1549.1876 1186.3516 1549.7441 C 1150.8966 1550.0903 1139.5586 1538.4277 1139.5586 1538.4277 C 1139.5586 1538.4277 1084.9307 1615.4983 1055.1992 1691.2754 L 1133.5332 1685.3457 L 1133.0566 1695.5078 C 1132.1917 1713.8878 1142.3355 1723.5392 1161.4023 1722.6211 C 1171.4805 1722.1357 1180.914 1718.0154 1186.1016 1711.7246 C 1194.9919 1683.2297 1147.8994 1701.9668 1147.252 1689.7305 L 1140.5273 1562.6465 C 1140.5273 1562.6465 1173.3777 1561.7754 1188.8887 1561.6016 C 1204.3999 1561.427 1229.8164 1561.6035 1229.8164 1561.6035 L 1232.9883 1693.4199 C 1233.5613 1717.2381 1181.6807 1742.2366 1145.8184 1748.7227 C 1223.5601 1762.5799 1318.1509 1799.2925 1381.7441 1772.1152 C 1281.9954 1629.5309 1233.7813 1535.2559 1233.7812 1535.2559 z M 1054.1367 1694.0215 C 1044.6155 1718.7855 1037.851 1743.3102 1036.6406 1764.8555 C 1052.7549 1748.6508 1075.4917 1743.3107 1102.1055 1743.8652 C 1076.2032 1733.2629 1052.684 1712.4075 1053.4258 1703.0117 L 1054.1367 1694.0215 z "
       transform="matrix(0.26458333,0,0,0.26458333,0,-211.00001)"
       id="path4804" />
    <path
       style="font-style:normal;font-variant:normal;font-weight:normal;font-stretch:normal;font-size:29.22245026px;line-height:1.25;font-family:Lato;-inkscape-font-specification:Lato;letter-spacing:0px;word-spacing:0px;display:inline;opacity:1;vector-effect:none;fill:#666666;fill-opacity:1;fill-rule:evenodd;stroke:none;stroke-width:17.88102722;stroke-linecap:butt;stroke-linejoin:miter;stroke-miterlimit:4;stroke-dasharray:none;stroke-dashoffset:0;stroke-opacity:1"
       d="M 1654.5117 1507.3652 A 14.675153 46.321431 88.554475 0 0 1649.8867 1507.4141 A 14.675153 46.321431 88.554475 0 0 1604.1172 1523.3008 A 14.675153 46.321431 88.554475 0 0 1650.957 1536.7461 A 14.675153 46.321431 88.554475 0 0 1696.7266 1520.8594 A 14.675153 46.321431 88.554475 0 0 1654.5117 1507.3652 z M 1698.4512 1535.2559 C 1698.4512 1535.2559 1686.4794 1549.1876 1651.0215 1549.7441 C 1615.5665 1550.0903 1604.2285 1538.4277 1604.2285 1538.4277 C 1604.2285 1538.4277 1549.6006 1615.4983 1519.8691 1691.2754 L 1598.2051 1685.3457 L 1597.7266 1695.5078 C 1596.8617 1713.8878 1607.0054 1723.5392 1626.0723 1722.6211 C 1636.1504 1722.1357 1645.5859 1718.0154 1650.7734 1711.7246 C 1659.6638 1683.2297 1612.5693 1701.9668 1611.9219 1689.7305 L 1605.1973 1562.6465 C 1605.1973 1562.6465 1638.0476 1561.7754 1653.5586 1561.6016 C 1669.0699 1561.427 1694.4863 1561.6035 1694.4863 1561.6035 L 1697.6582 1693.4199 C 1698.2312 1717.2381 1646.3506 1742.2366 1610.4883 1748.7227 C 1688.2301 1762.5799 1782.8208 1799.2925 1846.4141 1772.1152 C 1746.6653 1629.5309 1698.4512 1535.2559 1698.4512 1535.2559 z M 1518.8066 1694.0215 C 1509.2855 1718.7855 1502.5209 1743.3102 1501.3105 1764.8555 C 1517.4252 1748.6504 1540.1627 1743.3104 1566.7773 1743.8652 C 1540.8749 1733.2629 1517.354 1712.4075 1518.0957 1703.0117 L 1518.8066 1694.0215 z "
       transform="matrix(0.26458333,0,0,0.26458333,0,-211.00001)"
       id="path4810" />
  </g>
</svg>
