<?xml version="1.0" encoding="UTF-8" standalone="no"?>
<!-- Created with Inkscape (http://www.inkscape.org/) -->

<svg
   xmlns:dc="http://purl.org/dc/elements/1.1/"
   xmlns:cc="http://creativecommons.org/ns#"
   xmlns:rdf="http://www.w3.org/1999/02/22-rdf-syntax-ns#"
   xmlns:svg="http://www.w3.org/2000/svg"
   xmlns="http://www.w3.org/2000/svg"
   xmlns:sodipodi="http://sodipodi.sourceforge.net/DTD/sodipodi-0.dtd"
   xmlns:inkscape="http://www.inkscape.org/namespaces/inkscape"
   version="1.1"
   id="svg2"
   width="33"
   height="33"
   viewBox="0 0 33 33"
   sodipodi:docname="driver.svg"
   inkscape:version="0.92.1 unknown"
   inkscape:export-filename="/home/kibo/Kibojoe-Linux/Manjaro/pngs/driver.png"
   inkscape:export-xdpi="96"
   inkscape:export-ydpi="96">
  <metadata
     id="metadata8">
    <rdf:RDF>
      <cc:Work
         rdf:about="">
        <dc:format>image/svg+xml</dc:format>
        <dc:type
           rdf:resource="http://purl.org/dc/dcmitype/StillImage" />
        <dc:title></dc:title>
      </cc:Work>
    </rdf:RDF>
  </metadata>
  <defs
     id="defs6" />
  <sodipodi:namedview
     pagecolor="#ffffff"
     bordercolor="#666666"
     borderopacity="1"
     objecttolerance="10"
     gridtolerance="10"
     guidetolerance="10"
     inkscape:pageopacity="0"
     inkscape:pageshadow="2"
     inkscape:window-width="640"
     inkscape:window-height="480"
     id="namedview4"
     showgrid="false"
     inkscape:zoom="10.915961"
     inkscape:cx="15.494342"
     inkscape:cy="8.3819368"
     inkscape:current-layer="layer1" />
  <g
     inkscape:groupmode="layer"
     id="layer1"
     inkscape:label="icon"
     style="display:inline"
     transform="translate(0,1)">
    <path
       style="fill:#ff9100;fill-opacity:1;stroke:none"
       d="M 19.71875,2.1621092 A 4.4048581,10.105263 0 0 1 16.320312,5.847656 4.4048581,10.105263 0 0 1 12.947266,2.2441404 13.732794,13.732794 0 0 0 9.3515625,3.7988279 10.105263,4.4048581 45 0 1 9.4960938,8.675781 10.105263,4.4048581 45 0 1 4.6816406,8.5624998 13.732794,13.732794 0 0 0 3.2050781,12.1875 10.105263,4.4048581 0 0 1 6.6699219,15.5 10.105263,4.4048581 0 0 1 3.203125,18.816406 13.732794,13.732794 0 0 0 4.6835938,22.4375 a 4.4048581,10.105263 45 0 1 3.1992187,-0.755859 4.4048581,10.105263 45 0 1 1.6132813,0.642578 4.4048581,10.105263 45 0 1 -0.1367188,4.876953 13.732794,13.732794 0 0 0 3.595703,1.546875 4.4048581,10.105263 0 0 1 3.365234,-3.595703 4.4048581,10.105263 0 0 1 3.398438,3.685547 13.732794,13.732794 0 0 0 3.650391,-1.458985 10.105263,4.4048581 45 0 1 -0.22461,-5.054687 10.105263,4.4048581 45 0 1 1.777344,-0.648438 10.105263,4.4048581 45 0 1 3.339844,0.90625 13.732794,13.732794 0 0 0 1.527343,-3.632812 A 10.105263,4.4048581 0 0 1 25.970703,15.5 10.105263,4.4048581 0 0 1 29.796875,12.054688 13.732794,13.732794 0 0 0 28.265625,8.4199217 4.4048581,10.105263 45 0 1 23.144531,8.675781 4.4048581,10.105263 45 0 1 23.373047,3.6171873 13.732794,13.732794 0 0 0 19.71875,2.1621092 Z M 16.513672,9.9296878 A 5.5708504,5.5708504 0 0 1 22.085938,15.5 5.5708504,5.5708504 0 0 1 16.513672,21.070312 5.5708504,5.5708504 0 0 1 10.945312,15.5 5.5708504,5.5708504 0 0 1 16.513672,9.9296878 Z m 1.167969,0.6796872 a 1.6154193,3.7059621 0 0 1 -1.248047,1.351563 1.6154193,3.7059621 0 0 1 -1.236328,-1.322266 5.0363077,5.0363077 0 0 0 -1.31836,0.570312 3.7059621,1.6154193 45 0 1 0.05274,1.789063 3.7059621,1.6154193 45 0 1 -1.765625,-0.04297 5.0363077,5.0363077 0 0 0 -0.542969,1.330078 3.7059621,1.6154193 0 0 1 1.271479,1.214845 3.7059621,1.6154193 0 0 1 -1.271484,1.216797 5.0363077,5.0363077 0 0 0 0.542969,1.328125 1.6154193,3.7059621 45 0 1 1.173828,-0.277344 1.6154193,3.7059621 45 0 1 0.591797,0.234375 1.6154193,3.7059621 45 0 1 -0.05078,1.789063 5.0363077,5.0363077 0 0 0 1.320313,0.568359 1.6154193,3.7059621 0 0 1 1.232422,-1.320313 1.6154193,3.7059621 0 0 1 1.248047,1.351563 5.0363077,5.0363077 0 0 0 1.33789,-0.535156 3.7059621,1.6154193 45 0 1 -0.08203,-1.853516 3.7059621,1.6154193 45 0 1 0.652344,-0.236328 3.7059621,1.6154193 45 0 1 1.224609,0.332031 A 5.0363077,5.0363077 0 0 0 21.37305,16.765625 3.7059621,1.6154193 0 0 1 19.972656,15.5 a 3.7059621,1.6154193 0 0 1 1.404297,-1.263672 5.0363077,5.0363077 0 0 0 -0.5625,-1.332031 1.6154193,3.7059621 45 0 1 -1.876953,0.09375 1.6154193,3.7059621 45 0 1 0.08398,-1.855469 5.0363077,5.0363077 0 0 0 -1.339843,-0.533203 z m -1.175782,2.847656 A 2.0430305,2.0430305 0 0 1 18.548828,15.5 2.0430305,2.0430305 0 0 1 16.505859,17.542969 2.0430305,2.0430305 0 0 1 14.462891,15.5 2.0430305,2.0430305 0 0 1 16.505859,13.457031 Z"
       id="path4487"
       inkscape:connector-curvature="0" />
  </g>
</svg>
