<?xml version="1.0" encoding="UTF-8" standalone="no"?>
<!-- Created with Inkscape (http://www.inkscape.org/) -->

<svg
   xmlns:dc="http://purl.org/dc/elements/1.1/"
   xmlns:cc="http://creativecommons.org/ns#"
   xmlns:rdf="http://www.w3.org/1999/02/22-rdf-syntax-ns#"
   xmlns:svg="http://www.w3.org/2000/svg"
   xmlns="http://www.w3.org/2000/svg"
   xmlns:sodipodi="http://sodipodi.sourceforge.net/DTD/sodipodi-0.dtd"
   xmlns:inkscape="http://www.inkscape.org/namespaces/inkscape"
   version="1.1"
   id="svg2"
   width="33"
   height="33"
   viewBox="0 0 33 33"
   sodipodi:docname="edit.svg"
   inkscape:version="0.92.1 unknown"
   inkscape:export-filename="/home/beerto/Pictures/Ink/Linux/Manjaro/pngs/edit.png"
   inkscape:export-xdpi="96"
   inkscape:export-ydpi="96">
  <metadata
     id="metadata8">
    <rdf:RDF>
      <cc:Work
         rdf:about="">
        <dc:format>image/svg+xml</dc:format>
        <dc:type
           rdf:resource="http://purl.org/dc/dcmitype/StillImage" />
        <dc:title></dc:title>
      </cc:Work>
    </rdf:RDF>
  </metadata>
  <defs
     id="defs6" />
  <sodipodi:namedview
     pagecolor="#ffffff"
     bordercolor="#666666"
     borderopacity="1"
     objecttolerance="10"
     gridtolerance="10"
     guidetolerance="10"
     inkscape:pageopacity="0"
     inkscape:pageshadow="2"
     inkscape:window-width="640"
     inkscape:window-height="480"
     id="namedview4"
     showgrid="false"
     inkscape:zoom="5.7673397"
     inkscape:cx="-20.399827"
     inkscape:cy="-4.1309432"
     inkscape:current-layer="svg2"
     inkscape:snap-global="true" />
  <path
     style="opacity:1;vector-effect:none;fill:#ff9000;fill-opacity:1;fill-rule:evenodd;stroke:none;stroke-width:1.07467806;stroke-linecap:butt;stroke-linejoin:miter;stroke-miterlimit:4;stroke-dasharray:none;stroke-dashoffset:0;stroke-opacity:1"
     d="m 7.5394053,2.8851449 c -2.0779785,0 -3.7492662,1.6731891 -3.7492662,3.7511675 V 26.363688 c 0,2.077979 1.6712877,3.751167 3.7492662,3.751167 H 25.460594 c 2.077979,0 3.749267,-1.673188 3.749267,-3.751167 V 6.6363124 c 0,-2.0779784 -1.671288,-3.7511675 -3.749267,-3.7511675 z M 9.4311496,5.7579346 H 23.56885 c 1.63949,0 2.960247,1.3207571 2.960247,2.9602472 V 24.281819 c 0,1.63949 -1.320757,2.960247 -2.960247,2.960247 H 9.4311496 c -1.6394898,0 -2.9602472,-1.320757 -2.9602472,-2.960247 V 8.7181818 c 0,-1.6394901 1.3207572,-2.9602472 2.9602472,-2.9602472 z M 8.9387259,6.7389798 c -0.6178262,0 -1.114133,0.299866 -1.114133,0.674944 V 9.296162 c 0,0.365968 7.7287921,1.582405 8.6754071,1.574235 0.946615,0.0082 8.675406,-1.208267 8.675406,-1.574235 V 7.4139238 c 0,-0.375078 -0.496306,-0.6749438 -1.114132,-0.674944 H 16.5 Z m 6.2475101,0.2927927 h 2.627528 c 0.313891,0 0.566573,0.2526816 0.566573,0.5665727 v 1.1768741 c 0,0.313891 -0.252682,0.5665727 -0.566573,0.5665727 h -2.627528 c -0.313891,0 -0.566573,-0.2526817 -0.566573,-0.5665727 V 7.5983452 c 0,-0.313891 0.252682,-0.5665727 0.566573,-0.5665727 z M 10.433109,13.88578 c -0.5699963,0 -1.0285768,0.458581 -1.0285768,1.028577 v 0.42588 c 0,0.569996 0.4585805,1.028576 1.0285768,1.028576 h 12.133782 c 0.569996,0 1.028576,-0.45858 1.028576,-1.028576 v -0.42588 c 0,-0.569996 -0.45858,-1.028577 -1.028576,-1.028577 z m 1.692113,3.758773 c -0.313891,0 -0.566572,0.252681 -0.566572,0.566572 v 1.174974 c 0,0.31389 0.252681,0.566572 0.566572,0.566572 h 8.749556 c 0.313891,0 0.566572,-0.252682 0.566572,-0.566572 v -1.174974 c 0,-0.313891 -0.252681,-0.566572 -0.566572,-0.566572 z m -1.692113,3.583857 c -0.5699963,0 -1.0285768,0.45858 -1.0285768,1.028576 v 0.42588 c 0,0.569997 0.4585805,1.028577 1.0285768,1.028577 h 12.133782 c 0.569996,0 1.028576,-0.45858 1.028576,-1.028577 v -0.42588 c 0,-0.569996 -0.45858,-1.028576 -1.028576,-1.028576 z"
     id="rect4511"
     inkscape:connector-curvature="0" />
</svg>
