<?xml version="1.0" encoding="UTF-8" standalone="no"?>
<!-- Created with Inkscape (http://www.inkscape.org/) -->

<svg
   xmlns:dc="http://purl.org/dc/elements/1.1/"
   xmlns:cc="http://creativecommons.org/ns#"
   xmlns:rdf="http://www.w3.org/1999/02/22-rdf-syntax-ns#"
   xmlns:svg="http://www.w3.org/2000/svg"
   xmlns="http://www.w3.org/2000/svg"
   xmlns:sodipodi="http://sodipodi.sourceforge.net/DTD/sodipodi-0.dtd"
   xmlns:inkscape="http://www.inkscape.org/namespaces/inkscape"
   version="1.1"
   id="svg2"
   width="33"
   height="33"
   viewBox="0 0 33 33"
   sodipodi:docname="edit2.svg"
   inkscape:version="0.92.1 unknown"
   inkscape:export-filename="/home/beerto/Pictures/Ink/Linux/Manjaro/pngs/edit2.png"
   inkscape:export-xdpi="96"
   inkscape:export-ydpi="96">
  <metadata
     id="metadata8">
    <rdf:RDF>
      <cc:Work
         rdf:about="">
        <dc:format>image/svg+xml</dc:format>
        <dc:type
           rdf:resource="http://purl.org/dc/dcmitype/StillImage" />
        <dc:title></dc:title>
      </cc:Work>
    </rdf:RDF>
  </metadata>
  <defs
     id="defs6" />
  <sodipodi:namedview
     pagecolor="#ffffff"
     bordercolor="#666666"
     borderopacity="1"
     objecttolerance="10"
     gridtolerance="10"
     guidetolerance="10"
     inkscape:pageopacity="0"
     inkscape:pageshadow="2"
     inkscape:window-width="640"
     inkscape:window-height="480"
     id="namedview4"
     showgrid="false"
     inkscape:zoom="5.7673397"
     inkscape:cx="-17.581688"
     inkscape:cy="-11.357262"
     inkscape:current-layer="svg2"
     inkscape:snap-global="true" />
  <g
     id="g4493"
     transform="matrix(1,0,0,0.75193799,0.94182775,1.399507)">
    <g
       id="g4505" />
    <g
       id="g4514" />
  </g>
  <path
     style="opacity:1;vector-effect:none;fill:#ff9000;fill-opacity:1;fill-rule:evenodd;stroke:none;stroke-width:1.07467806;stroke-linecap:butt;stroke-linejoin:miter;stroke-miterlimit:4;stroke-dasharray:none;stroke-dashoffset:0;stroke-opacity:1"
     d="m 7.539063,2.8847653 c -2.077979,0 -3.748047,1.673975 -3.748047,3.751954 V 26.363282 c 0,2.077979 1.670068,3.751953 3.748047,3.751953 h 17.921875 c 2.077978,0 3.748046,-1.673974 3.748046,-3.751953 V 6.6367193 c 0,-2.077979 -1.670068,-3.751954 -3.748046,-3.751954 z m 14.496093,0.605469 h 1.06836 c 0.383512,0 0.691406,0.231154 0.691406,0.5195309 v 1.771485 c 1.530919,0.117178 2.734375,1.3757151 2.734375,2.9375 V 24.281251 c 0,1.639489 -1.321448,2.960936 -2.960938,2.960938 H 9.431641 c -1.63949,0 -2.960938,-1.321449 -2.960938,-2.960938 V 8.7187503 c 0,-1.60402 1.267355,-2.895718 2.857422,-2.951172 v -1.699219 c 0,-0.288377 0.307895,-0.521484 0.691406,-0.521484 h 1.06836 c 0.383512,0 0.691406,0.233107 0.691406,0.521484 v 1.689453 h 3.556641 v -1.71875 c 0,-0.288377 0.307894,-0.519531 0.691406,-0.519531 h 1.068359 c 0.383512,0 0.691406,0.231154 0.691406,0.519531 v 1.71875 h 3.556641 v -1.748047 c 0,-0.288377 0.307894,-0.519531 0.691406,-0.519531 z M 8.869141,6.4863283 c -0.383512,0 -0.691406,0.309847 -0.691406,0.693359 v 2.6894535 c 0,0.3835132 0.307894,0.6914072 0.691406,0.6914072 h 15.261718 c 0.383512,0 0.691407,-0.307894 0.691407,-0.6914072 V 7.1796873 c 0,-0.383512 -0.307895,-0.693359 -0.691407,-0.693359 h -0.335937 v 2.085937 c 0,0.288378 -0.307894,0.521485 -0.691406,0.521485 h -1.06836 c -0.383512,0 -0.691406,-0.233107 -0.691406,-0.521485 v -2.085937 h -3.556641 v 2.115234 c 0,0.288378 -0.307894,0.519532 -0.691406,0.519532 h -1.068359 c -0.383512,0 -0.691408,-0.231154 -0.691406,-0.519532 v -2.115234 h -3.556641 v 2.144531 c 0,0.288378 -0.307894,0.519531 -0.691406,0.519531 h -1.06836 c -0.383512,0 -0.691406,-0.231153 -0.691406,-0.519531 V 6.4863282 Z m 1.564453,7.4003917 c -0.569996,0 -1.029297,0.457349 -1.029297,1.027343 v 0.425782 c 0,0.569996 0.459301,1.029297 1.029297,1.029297 h 12.132812 c 0.569996,0 1.029297,-0.459301 1.029297,-1.029297 v -0.425782 c 0,-0.569993 -0.459301,-1.027343 -1.029297,-1.027343 z M 12.125,17.644531 c -0.313891,0 -0.566406,0.252516 -0.566406,0.566407 v 1.175782 c 0,0.31389 0.252515,0.566406 0.566406,0.566406 h 8.75 c 0.313891,0 0.566406,-0.252516 0.566406,-0.566406 v -1.175782 c 0,-0.313891 -0.252515,-0.566407 -0.566406,-0.566407 z m -1.691406,3.583986 c -0.569996,0 -1.029297,0.459301 -1.029297,1.029296 v 0.425782 c 0,0.569997 0.459301,1.027343 1.029297,1.027343 h 12.132812 c 0.569996,0 1.029297,-0.457347 1.029297,-1.027343 v -0.425782 c 0,-0.569995 -0.459301,-1.029296 -1.029297,-1.029296 z"
     id="path4522"
     inkscape:connector-curvature="0" />
  <g
     transform="matrix(1,0,0,0.75193799,0.94182775,1.399507)"
     id="g4530">
    <g
       id="g4526" />
    <g
       id="g4528" />
  </g>
</svg>
