<?xml version="1.0" encoding="UTF-8" standalone="no"?>
<!-- Created with Inkscape (http://www.inkscape.org/) -->

<svg
   xmlns:dc="http://purl.org/dc/elements/1.1/"
   xmlns:cc="http://creativecommons.org/ns#"
   xmlns:rdf="http://www.w3.org/1999/02/22-rdf-syntax-ns#"
   xmlns:svg="http://www.w3.org/2000/svg"
   xmlns="http://www.w3.org/2000/svg"
   xmlns:sodipodi="http://sodipodi.sourceforge.net/DTD/sodipodi-0.dtd"
   xmlns:inkscape="http://www.inkscape.org/namespaces/inkscape"
   version="1.1"
   id="svg2"
   width="33"
   height="33"
   viewBox="0 0 33 33"
   sodipodi:docname="findnone2.svg"
   inkscape:version="0.92.1 unknown"
   inkscape:export-filename="/home/beerto/Pictures/Ink/Linux/Manjaro/pngs/findnone2.png"
   inkscape:export-xdpi="96"
   inkscape:export-ydpi="96">
  <metadata
     id="metadata8">
    <rdf:RDF>
      <cc:Work
         rdf:about="">
        <dc:format>image/svg+xml</dc:format>
        <dc:type
           rdf:resource="http://purl.org/dc/dcmitype/StillImage" />
        <dc:title></dc:title>
      </cc:Work>
    </rdf:RDF>
  </metadata>
  <defs
     id="defs6" />
  <sodipodi:namedview
     pagecolor="#ffffff"
     bordercolor="#666666"
     borderopacity="1"
     objecttolerance="10"
     gridtolerance="10"
     guidetolerance="10"
     inkscape:pageopacity="0"
     inkscape:pageshadow="2"
     inkscape:window-width="640"
     inkscape:window-height="480"
     id="namedview4"
     showgrid="false"
     inkscape:zoom="7.71875"
     inkscape:cx="-7.7958386"
     inkscape:cy="15.357461"
     inkscape:current-layer="layer1"
     inkscape:snap-global="false" />
  <g
     aria-label="T"
     transform="matrix(1.0830723,0,0,0.92329939,0,1)"
     style="font-style:normal;font-weight:normal;font-size:15.34520054px;line-height:1.25;font-family:sans-serif;letter-spacing:0px;word-spacing:0px;fill:#000000;fill-opacity:1;stroke:#000000;stroke-width:0.99507672;stroke-miterlimit:4;stroke-dasharray:none;stroke-opacity:1"
     id="text4577" />
  <g
     inkscape:groupmode="layer"
     id="layer1"
     inkscape:label="test"
     transform="translate(0,1)">
    <g
       aria-label="?"
       transform="matrix(1.2275249,0,0,0.81464742,0.18321795,0)"
       style="font-style:normal;font-variant:normal;font-weight:bold;font-stretch:normal;font-size:22.55261993px;line-height:1.25;font-family:sans-serif;-inkscape-font-specification:'sans-serif Bold';letter-spacing:0px;word-spacing:0px;fill:#000000;fill-opacity:1;stroke:none;stroke-width:0.56381553"
       id="text822" />
    <path
       id="path4482"
       d="m 16.510083,3.5204682 c -10.1133625,0 -10.2645685,8.0765418 -10.2645695,8.0765418 v 1.154512 l -2.68882,2.423299 c -0.554648,0.500001 -0.653208,1.428102 -0.220146,2.080474 l 0.411725,0.62011 c 0.433062,0.65237 1.228375,0.775605 1.783023,0.275603 l 0.714218,-0.645316 v 9.97384 h 1.453644 l 2.3123855,-4.182795 2.314065,4.182795 h 1.754454 l 2.314066,-4.182795 2.314065,4.182795 h 1.754455 l 2.314065,-4.182795 2.314066,4.182795 h 1.596487 V 17.446874 l 0.781438,0.704134 c 0.554649,0.500002 1.348281,0.376767 1.781342,-0.275603 l 0.413407,-0.62011 c 0.433062,-0.652372 0.334501,-1.580473 -0.220147,-2.080474 l -2.75604,-2.483797 v -0.855381 c 0,0 -0.06382,-8.3151748 -10.177183,-8.3151748 z M 13.102004,9.499731 c 1.359365,-1.798e-4 2.461556,1.068156 2.46195,2.386328 5.63e-4,1.318827 -1.101909,2.388188 -2.46195,2.388008 -1.360041,1.8e-4 -2.462513,-1.069181 -2.46195,-2.388008 3.95e-4,-1.318172 1.102586,-2.3865078 2.46195,-2.386328 z m 6.787589,0 c 1.359365,-1.798e-4 2.461556,1.068156 2.461951,2.386328 5.62e-4,1.318827 -1.10191,2.388188 -2.461951,2.388008 -1.360041,1.8e-4 -2.462513,-1.069181 -2.46195,-2.388008 3.94e-4,-1.318172 1.102585,-2.3865078 2.46195,-2.386328 z M 16.5,16.510828 A 1.5664821,1.9021567 0 0 1 18.066237,18.413169 1.5664821,1.9021567 0 0 1 16.5,20.315508 1.5664821,1.9021567 0 0 1 14.933763,18.413169 1.5664821,1.9021567 0 0 1 16.5,16.510828 Z"
       style="fill:#ff9000;fill-opacity:1;stroke:none;stroke-width:1.3375752px;stroke-linecap:butt;stroke-linejoin:miter;stroke-opacity:1"
       inkscape:connector-curvature="0" />
  </g>
</svg>
