<?xml version="1.0" encoding="UTF-8" standalone="no"?>
<!-- Created with Inkscape (http://www.inkscape.org/) -->

<svg
   xmlns:dc="http://purl.org/dc/elements/1.1/"
   xmlns:cc="http://creativecommons.org/ns#"
   xmlns:rdf="http://www.w3.org/1999/02/22-rdf-syntax-ns#"
   xmlns:svg="http://www.w3.org/2000/svg"
   xmlns="http://www.w3.org/2000/svg"
   xmlns:sodipodi="http://sodipodi.sourceforge.net/DTD/sodipodi-0.dtd"
   xmlns:inkscape="http://www.inkscape.org/namespaces/inkscape"
   version="1.1"
   id="svg2"
   width="33"
   height="33"
   viewBox="0 0 33 33"
   sodipodi:docname="find.svg"
   inkscape:version="0.92.1 unknown"
   inkscape:export-filename="/home/kibo/Kibojoe-Linux/Manjaro/pngs/find.png"
   inkscape:export-xdpi="96"
   inkscape:export-ydpi="96">
  <metadata
     id="metadata8">
    <rdf:RDF>
      <cc:Work
         rdf:about="">
        <dc:format>image/svg+xml</dc:format>
        <dc:type
           rdf:resource="http://purl.org/dc/dcmitype/StillImage" />
        <dc:title></dc:title>
      </cc:Work>
    </rdf:RDF>
  </metadata>
  <defs
     id="defs6" />
  <sodipodi:namedview
     pagecolor="#ffffff"
     bordercolor="#666666"
     borderopacity="1"
     objecttolerance="10"
     gridtolerance="10"
     guidetolerance="10"
     inkscape:pageopacity="0"
     inkscape:pageshadow="2"
     inkscape:window-width="640"
     inkscape:window-height="480"
     id="namedview4"
     showgrid="false"
     inkscape:zoom="7.375"
     inkscape:cx="23.094959"
     inkscape:cy="7.3338225"
     inkscape:current-layer="layer1" />
  <g
     inkscape:groupmode="layer"
     id="layer1"
     inkscape:label="icons"
     transform="translate(0,1)">
    <path
       inkscape:connector-curvature="0"
       style="opacity:1;vector-effect:none;fill:#ff9000;fill-opacity:1;fill-rule:evenodd;stroke:none;stroke-width:1.00840342;stroke-linecap:butt;stroke-linejoin:miter;stroke-miterlimit:4;stroke-dasharray:none;stroke-dashoffset:0;stroke-opacity:1"
       d="m 19.921714,1.2058784 a 9.5878887,9.5878887 0 0 0 -9.587892,9.5878906 9.5878887,9.5878887 0 0 0 2.281251,6.207031 3.1177168,8.2091985 41.229869 0 0 -5.6386725,4.306641 3.1177168,8.2091985 41.229869 0 0 -2.9707031,8.177734 3.1177168,8.2091985 41.229869 0 0 7.7929696,-4.21875 3.1177168,8.2091985 41.229869 0 0 3.414062,-6.132812 9.5878887,9.5878887 0 0 0 4.708985,1.248047 9.5878887,9.5878887 0 0 0 9.58789,-9.587891 9.5878887,9.5878887 0 0 0 -9.58789,-9.5878906 z m 0,3.3554687 a 6.2321277,6.2321277 0 0 1 6.230468,6.2324219 6.2321277,6.2321277 0 0 1 -6.230468,6.230469 6.2321277,6.2321277 0 0 1 -6.232422,-6.230469 6.2321277,6.2321277 0 0 1 6.232422,-6.2324219 z"
       id="path4487" />
  </g>
</svg>
