<?xml version="1.0" encoding="UTF-8" standalone="no"?>
<!-- Created with Inkscape (http://www.inkscape.org/) -->

<svg
   xmlns:dc="http://purl.org/dc/elements/1.1/"
   xmlns:cc="http://creativecommons.org/ns#"
   xmlns:rdf="http://www.w3.org/1999/02/22-rdf-syntax-ns#"
   xmlns:svg="http://www.w3.org/2000/svg"
   xmlns="http://www.w3.org/2000/svg"
   xmlns:sodipodi="http://sodipodi.sourceforge.net/DTD/sodipodi-0.dtd"
   xmlns:inkscape="http://www.inkscape.org/namespaces/inkscape"
   version="1.1"
   id="svg2"
   width="33"
   height="33"
   viewBox="0 0 33 33"
   sodipodi:docname="findnone.svg"
   inkscape:version="0.92.1 unknown"
   inkscape:export-filename="/home/kibo/Kibojoe-Linux/Manjaro/pngs/find.none.png"
   inkscape:export-xdpi="96"
   inkscape:export-ydpi="96">
  <metadata
     id="metadata8">
    <rdf:RDF>
      <cc:Work
         rdf:about="">
        <dc:format>image/svg+xml</dc:format>
        <dc:type
           rdf:resource="http://purl.org/dc/dcmitype/StillImage" />
        <dc:title></dc:title>
      </cc:Work>
    </rdf:RDF>
  </metadata>
  <defs
     id="defs6" />
  <sodipodi:namedview
     pagecolor="#ffffff"
     bordercolor="#666666"
     borderopacity="1"
     objecttolerance="10"
     gridtolerance="10"
     guidetolerance="10"
     inkscape:pageopacity="0"
     inkscape:pageshadow="2"
     inkscape:window-width="640"
     inkscape:window-height="480"
     id="namedview4"
     showgrid="false"
     inkscape:zoom="10.915961"
     inkscape:cx="-4.6615052"
     inkscape:cy="11.24435"
     inkscape:current-layer="layer1"
     inkscape:snap-global="false" />
  <g
     aria-label="T"
     transform="matrix(1.0830723,0,0,0.92329939,0,1)"
     style="font-style:normal;font-weight:normal;font-size:15.34520054px;line-height:1.25;font-family:sans-serif;letter-spacing:0px;word-spacing:0px;fill:#000000;fill-opacity:1;stroke:#000000;stroke-width:0.99507672;stroke-miterlimit:4;stroke-dasharray:none;stroke-opacity:1"
     id="text4577" />
  <g
     inkscape:groupmode="layer"
     id="layer1"
     inkscape:label="test"
     transform="translate(0,1)">
    <path
       style="fill:#ff9000;fill-opacity:1;stroke:none;stroke-width:1.57066405;stroke-miterlimit:4;stroke-dasharray:none;stroke-opacity:1"
       d="M 16.255859,1.3667783 A 14.136813,7.9688652 88.486461 0 0 10.771484,5.347247 14.136813,7.9688652 88.486461 0 0 9.7558592,7.6109189 7.5290677,4.7863377 4.2977656 0 1 17.027344,5.4058408 7.5290677,4.7863377 4.2977656 0 1 23.052734,8.2456846 5.5210356,9.7943492 43.486461 0 0 19.050781,7.6265439 7.9688652,14.136813 88.486461 0 0 17.52539,7.5406064 7.9688652,14.136813 88.486461 0 0 13.53125,7.7730283 9.7943492,5.5210356 43.486461 0 0 9.4121092,8.7495908 7.9688652,14.136813 88.486461 0 0 6.6679686,9.9507628 7.9688652,14.136813 88.486461 0 0 6.3476561,21.228107 7.9688652,14.136813 88.486461 0 0 8.611328,22.243732 4.7863377,7.5290677 4.2977656 0 1 6.4062499,14.972247 4.7863377,7.5290677 4.2977656 0 1 9.2480467,8.9449033 9.7943492,5.5210356 43.486461 0 0 8.6289061,12.958575 a 14.136813,7.9688652 88.486461 0 0 0.1464844,5.498047 5.5210356,9.7943492 43.486461 0 0 5.1894535,4.914063 7.9688652,14.136813 88.486461 0 0 5.484374,-0.144532 9.7943492,5.5210356 43.486461 0 0 4.09375,-0.921874 9.7943492,5.5210356 43.486461 0 0 0.830079,-4.257813 A 14.136813,7.9688652 88.486461 0 0 24.228515,12.540607 5.5210356,9.7943492 43.486461 0 0 23.25,8.409747 14.136813,7.9688652 88.486461 0 0 22.048828,5.6675596 14.136813,7.9688652 88.486461 0 0 16.255859,1.3667783 Z m 7.662109,7.2226563 a 4.8478592,7.620669 3.9095053 0 1 2.611329,7.6367184 4.8478592,7.620669 3.9095053 0 1 -2.648438,5.931641 7.9688652,14.136813 88.486461 0 0 2.451172,-1.109375 7.9688652,14.136813 88.486461 0 0 0.320313,-11.2773442 7.9688652,14.136813 88.486461 0 0 -2.734376,-1.1816402 z m -7.816406,0.091797 c 2.198852,0 3.875801,0.3003766 5.029297,0.8984372 1.153496,0.5920802 1.730469,1.4592662 1.730469,2.6015632 0,0.586099 -0.175888,1.111637 -0.527344,1.578125 -0.351456,0.460507 -0.951729,0.95796 -1.798828,1.490234 l -0.865234,0.509766 c -0.612796,0.370797 -1.01388,0.671174 -1.203125,0.898437 -0.189246,0.221283 -0.283204,0.465248 -0.283203,0.734375 v 0.404297 h -4.88086 v -0.439453 c 0,-0.49041 0.149881,-0.924003 0.447266,-1.300781 0.297386,-0.382759 0.923667,-0.867026 1.878906,-1.453125 l 0.865234,-0.521485 c 0.513666,-0.310991 0.88679,-0.603798 1.121094,-0.878906 0.243315,-0.275108 0.365234,-0.549111 0.365234,-0.824219 0,-0.418643 -0.215876,-0.745271 -0.648437,-0.978515 -0.432561,-0.239225 -1.037495,-0.359375 -1.8125,-0.359375 -0.729947,0 -1.518136,0.103299 -2.365234,0.30664 -0.847099,0.197361 -1.729246,0.491999 -2.648438,0.886719 V 9.4175596 C 11.596273,9.1663739 12.591019,8.9805314 13.492187,8.8609189 14.393356,8.741307 15.263475,8.6812314 16.101562,8.6812316 Z M 13.302734,19.124591 h 4.88086 v 3.193359 h -4.88086 z M 9.8417967,22.88045 a 14.136813,7.9688652 88.486461 0 0 1.1093753,2.451172 14.136813,7.9688652 88.486461 0 0 11.277343,0.320313 14.136813,7.9688652 88.486461 0 0 1.181641,-2.734375 7.620669,4.8478592 3.9095053 0 1 -7.636719,2.611328 7.620669,4.8478592 3.9095053 0 1 -5.9316403,-2.648438 z"
       id="path4564"
       inkscape:connector-curvature="0" />
    <g
       aria-label="?"
       transform="matrix(1.2275249,0,0,0.81464742,0.18321795,0)"
       style="font-style:normal;font-variant:normal;font-weight:bold;font-stretch:normal;font-size:22.55261993px;line-height:1.25;font-family:sans-serif;-inkscape-font-specification:'sans-serif Bold';letter-spacing:0px;word-spacing:0px;fill:#000000;fill-opacity:1;stroke:none;stroke-width:0.56381553"
       id="text822" />
  </g>
</svg>
