<?xml version="1.0" encoding="UTF-8" standalone="no"?>
<!-- Created with Inkscape (http://www.inkscape.org/) -->

<svg
   xmlns:dc="http://purl.org/dc/elements/1.1/"
   xmlns:cc="http://creativecommons.org/ns#"
   xmlns:rdf="http://www.w3.org/1999/02/22-rdf-syntax-ns#"
   xmlns:svg="http://www.w3.org/2000/svg"
   xmlns="http://www.w3.org/2000/svg"
   xmlns:sodipodi="http://sodipodi.sourceforge.net/DTD/sodipodi-0.dtd"
   xmlns:inkscape="http://www.inkscape.org/namespaces/inkscape"
   version="1.1"
   id="svg2"
   width="33"
   height="33"
   viewBox="0 0 33 33"
   sodipodi:docname="gears.svg"
   inkscape:version="0.92.1 unknown"
   inkscape:export-filename="/home/beerto/Pictures/Ink/Linux/Manjaro/pngs/gears.png"
   inkscape:export-xdpi="96"
   inkscape:export-ydpi="96">
  <metadata
     id="metadata8">
    <rdf:RDF>
      <cc:Work
         rdf:about="">
        <dc:format>image/svg+xml</dc:format>
        <dc:type
           rdf:resource="http://purl.org/dc/dcmitype/StillImage" />
        <dc:title></dc:title>
      </cc:Work>
    </rdf:RDF>
  </metadata>
  <defs
     id="defs6" />
  <sodipodi:namedview
     pagecolor="#ffffff"
     bordercolor="#666666"
     borderopacity="1"
     objecttolerance="10"
     gridtolerance="10"
     guidetolerance="10"
     inkscape:pageopacity="0"
     inkscape:pageshadow="2"
     inkscape:window-width="640"
     inkscape:window-height="480"
     id="namedview4"
     showgrid="false"
     inkscape:zoom="7.71875"
     inkscape:cx="12.07142"
     inkscape:cy="2.8629318"
     inkscape:current-layer="layer1"
     inkscape:snap-global="false" />
  <g
     inkscape:groupmode="layer"
     id="layer1"
     inkscape:label="icon"
     style="display:inline"
     transform="translate(0,1)">
    <path
       style="fill:#ff9100;fill-opacity:1;stroke:none;stroke-width:0.78262782"
       d="M 12.756668,0.96202104 A 10.747668,10.747668 0 0 0 10.762528,1.1358492 7.9086602,3.4473646 66.269159 0 1 9.4851839,4.7335054 7.9086602,3.4473646 66.269159 0 1 6.0047152,3.2842867 10.747668,10.747668 0 0 0 3.8992464,5.5128023 7.9086602,3.4473646 21.269159 0 1 5.4871371,8.9112398 7.9086602,3.4473646 21.269159 0 1 2.0164339,10.346787 a 10.747668,10.747668 0 0 0 0.050781,3.060547 3.4473646,7.9086602 66.269159 0 1 2.546875,0.355468 3.4473646,7.9086602 66.269159 0 1 0.9960937,0.927735 3.4473646,7.9086602 66.269159 0 1 -1.484375,3.519531 10.747668,10.747668 0 0 0 2.1855469,2.146484 3.4473646,7.9086602 21.269159 0 1 3.4746094,-1.666015 3.4473646,7.9086602 21.269159 0 1 1.4316401,3.652344 10.747668,10.747668 0 0 0 3.078126,-0.02734 7.9086602,3.4473646 66.269159 0 1 1.271484,-3.75 7.9086602,3.4473646 66.269159 0 1 1.478516,0.03125 7.9086602,3.4473646 66.269159 0 1 2.179687,1.609375 10.747668,10.747668 0 0 0 2.144531,-2.216797 7.9086602,3.4473646 21.269159 0 1 -1.80664,-3.597656 7.9086602,3.4473646 21.269159 0 1 3.769531,-1.427735 10.747668,10.747668 0 0 0 -0.08398,-3.0859373 3.4473646,7.9086602 66.269159 0 1 -3.80664,-1.2675781 3.4473646,7.9086602 66.269159 0 1 1.601562,-3.625 10.747668,10.747668 0 0 0 -2.251953,-2.0976563 3.4473646,7.9086602 21.269159 0 1 -3.52539,1.7226563 3.4473646,7.9086602 21.269159 0 1 -1.4375,-3.5878907 10.747668,10.747668 0 0 0 -1.072266,-0.0605469 z m 0.02148,5.37499996 a 5.3710142,5.3710142 0 0 1 0.462891,0.029297 1.7227779,3.9522551 21.269159 0 0 0.720703,1.7910157 1.7227779,3.9522551 21.269159 0 0 1.759766,-0.8613282 5.3710142,5.3710142 0 0 1 1.125,1.0488282 1.7227779,3.9522551 66.269159 0 0 -0.800781,1.8125003 1.7227779,3.9522551 66.269159 0 0 1.902343,0.632812 5.3710142,5.3710142 0 0 1 0.04297,1.542969 3.9522551,1.7227779 21.269159 0 0 -1.882812,0.712891 3.9522551,1.7227779 21.269159 0 0 0.90039,1.798828 5.3710142,5.3710142 0 0 1 -1.070312,1.107422 3.9522551,1.7227779 66.269159 0 0 -1.087891,-0.804688 3.9522551,1.7227779 66.269159 0 0 -0.740234,-0.01563 3.9522551,1.7227779 66.269159 0 0 -0.634766,1.873047 5.3710142,5.3710142 0 0 1 -1.539063,0.01563 1.7227779,3.9522551 21.269159 0 0 -0.714843,-1.828125 1.7227779,3.9522551 21.269159 0 0 -1.7363281,0.833984 5.3710142,5.3710142 0 0 1 -1.0917968,-1.072265 1.7227779,3.9522551 66.269159 0 0 0.7421874,-1.759766 1.7227779,3.9522551 66.269159 0 0 -0.5,-0.462891 1.7227779,3.9522551 66.269159 0 0 -1.2714843,-0.177734 5.3710142,5.3710142 0 0 1 -0.025391,-1.53125 3.9522551,1.7227779 21.269159 0 0 1.734375,-0.714844 3.9522551,1.7227779 21.269159 0 0 -0.7949218,-1.7011716 5.3710142,5.3710142 0 0 1 1.0527344,-1.1113281 3.9522551,1.7227779 66.269159 0 0 1.7402342,0.7246094 3.9522551,1.7227779 66.269159 0 0 0.636719,-1.796875 5.3710142,5.3710142 0 0 1 1.070311,-0.085938 z m -0.197265,2.7109376 a 2.6558704,2.6558704 0 0 0 -2.400391,1.6914064 2.6558704,2.6558704 0 0 0 1.513672,3.4375 2.6558704,2.6558704 0 0 0 3.435547,-1.511719 2.6558704,2.6558704 0 0 0 -1.509766,-3.4375 2.6558704,2.6558704 0 0 0 -1.039062,-0.1796874 z m 10.519531,8.1679694 a 6.5838849,6.5838849 0 0 0 -1.742187,0.707031 4.8447448,2.1118118 46.320087 0 1 0.01758,2.33789 4.8447448,2.1118118 46.320087 0 1 -2.308594,-0.107421 6.5838849,6.5838849 0 0 0 -0.746094,1.722656 4.8447448,2.1118118 1.3200865 0 1 1.625,1.626953 4.8447448,2.1118118 1.3200865 0 1 -1.699219,1.550781 6.5838849,6.5838849 0 0 0 0.669922,1.751953 2.1118118,4.8447448 46.320087 0 1 1.539063,-0.326172 2.1118118,4.8447448 46.320087 0 1 0.769531,0.324219 2.1118118,4.8447448 46.320087 0 1 -0.121094,2.337891 6.5838849,6.5838849 0 0 0 1.708985,0.779297 2.1118118,4.8447448 1.3200865 0 1 1.652343,-1.685547 2.1118118,4.8447448 1.3200865 0 1 1.587893,1.802734 6.5838849,6.5838849 0 0 0 1.765625,-0.658203 4.8447448,2.1118118 46.320087 0 1 -0.05078,-2.425781 4.8447448,2.1118118 46.320087 0 1 0.857422,-0.291016 4.8447448,2.1118118 46.320087 0 1 1.591796,0.470703 6.5838849,6.5838849 0 0 0 0.771485,-1.724609 4.8447448,2.1118118 1.3200865 0 1 -1.792969,-1.693359 4.8447448,2.1118118 1.3200865 0 1 1.873047,-1.609376 6.5838849,6.5838849 0 0 0 -0.693359,-1.759765 2.1118118,4.8447448 46.320087 0 1 -2.457032,0.06445 2.1118118,4.8447448 46.320087 0 1 0.164063,-2.421875 6.5838849,6.5838849 0 0 0 -1.734375,-0.736328 2.1118118,4.8447448 1.3200865 0 1 -1.669922,1.728515 2.1118118,4.8447448 1.3200865 0 1 -1.578125,-1.765624 z m 0.779297,3.199218 a 1.0553518,2.4211013 1.3200865 0 0 0.789062,0.88086 1.0553518,2.4211013 1.3200865 0 0 0.832032,-0.863282 3.2902151,3.2902151 0 0 1 0.86914,0.369141 1.0553518,2.4211013 46.320087 0 0 -0.08398,1.210937 1.0553518,2.4211013 46.320087 0 0 1.228516,-0.0332 3.2902151,3.2902151 0 0 1 0.345703,0.878907 2.4211013,1.0553518 1.3200865 0 0 -0.935547,0.804687 2.4211013,1.0553518 1.3200865 0 0 0.896484,0.847656 3.2902151,3.2902151 0 0 1 -0.384766,0.861329 2.4211013,1.0553518 46.320087 0 0 -0.796874,-0.236329 2.4211013,1.0553518 46.320087 0 0 -0.427735,0.146485 2.4211013,1.0553518 46.320087 0 0 0.02539,1.210937 3.2902151,3.2902151 0 0 1 -0.882813,0.330078 1.0553518,2.4211013 1.3200865 0 0 -0.792969,-0.902343 1.0553518,2.4211013 1.3200865 0 0 -0.826171,0.841796 3.2902151,3.2902151 0 0 1 -0.853516,-0.388671 1.0553518,2.4211013 46.320087 0 0 0.06055,-1.167969 1.0553518,2.4211013 46.320087 0 0 -0.384766,-0.16211 1.0553518,2.4211013 46.320087 0 0 -0.769531,0.164063 3.2902151,3.2902151 0 0 1 -0.335937,-0.876953 2.4211013,1.0553518 1.3200865 0 0 0.849609,-0.773438 2.4211013,1.0553518 1.3200865 0 0 -0.8125,-0.814453 3.2902151,3.2902151 0 0 1 0.375,-0.859375 2.4211013,1.0553518 46.320087 0 0 1.152344,0.05273 2.4211013,1.0553518 46.320087 0 0 -0.0078,-1.167969 3.2902151,3.2902151 0 0 1 0.871094,-0.353516 z m 0.814453,1.56836 a 1.6269525,1.6269525 0 0 0 -1.664063,1.589843 1.6269525,1.6269525 0 0 0 1.589844,1.664063 1.6269525,1.6269525 0 0 0 1.664063,-1.589844 1.6269525,1.6269525 0 0 0 -1.589844,-1.664062 z"
       id="path4487"
       inkscape:connector-curvature="0" />
  </g>
</svg>
