<?xml version="1.0" encoding="UTF-8" standalone="no"?>
<!-- Created with Inkscape (http://www.inkscape.org/) -->

<svg
   xmlns:dc="http://purl.org/dc/elements/1.1/"
   xmlns:cc="http://creativecommons.org/ns#"
   xmlns:rdf="http://www.w3.org/1999/02/22-rdf-syntax-ns#"
   xmlns:svg="http://www.w3.org/2000/svg"
   xmlns="http://www.w3.org/2000/svg"
   xmlns:sodipodi="http://sodipodi.sourceforge.net/DTD/sodipodi-0.dtd"
   xmlns:inkscape="http://www.inkscape.org/namespaces/inkscape"
   version="1.1"
   id="svg2"
   width="33"
   height="33"
   viewBox="0 0 33 33"
   sodipodi:docname="help3.svg"
   inkscape:export-filename="/home/beerto/Pictures/Ink/Linux/Manjaro/pngs/help3.png"
   inkscape:export-xdpi="96"
   inkscape:export-ydpi="96"
   inkscape:version="0.92.1 unknown">
  <metadata
     id="metadata8">
    <rdf:RDF>
      <cc:Work
         rdf:about="">
        <dc:format>image/svg+xml</dc:format>
        <dc:type
           rdf:resource="http://purl.org/dc/dcmitype/StillImage" />
        <dc:title></dc:title>
      </cc:Work>
    </rdf:RDF>
  </metadata>
  <defs
     id="defs6" />
  <sodipodi:namedview
     pagecolor="#ffffff"
     bordercolor="#666666"
     borderopacity="1"
     objecttolerance="10"
     gridtolerance="10"
     guidetolerance="10"
     inkscape:pageopacity="0"
     inkscape:pageshadow="2"
     inkscape:window-width="640"
     inkscape:window-height="480"
     id="namedview4"
     showgrid="false"
     showguides="true"
     inkscape:zoom="5.2149126"
     inkscape:cx="-55.974038"
     inkscape:cy="0.43501046"
     inkscape:current-layer="svg2"
     inkscape:snap-global="false" />
  <g
     aria-label="?"
     transform="matrix(1.3912553,0,0,0.94289113,-2.5613723,-0.657245)"
     style="font-style:normal;font-variant:normal;font-weight:bold;font-stretch:normal;font-size:32.65782547px;line-height:1.25;font-family:sans-serif;-inkscape-font-specification:'sans-serif Bold';letter-spacing:0px;word-spacing:0px;fill:#000000;fill-opacity:1;stroke:none;stroke-width:0.81644559"
     id="text4493" />
  <g
     inkscape:groupmode="layer"
     id="layer2"
     inkscape:label="icon"
     transform="translate(0,1)" />
  <g
     aria-label="?"
     transform="matrix(1.3803116,0,0,0.70207997,-36.47575,-4.9264144)"
     style="font-style:normal;font-weight:normal;font-size:28.527565px;line-height:1.25;font-family:sans-serif;letter-spacing:0px;word-spacing:0px;fill:#ff9000;fill-opacity:1;stroke:none;stroke-width:0.71318913"
     id="text4488"
     inkscape:export-filename="/home/beerto/Pictures/Ink/Linux/Manjaro/pngs/help3.png"
     inkscape:export-xdpi="96"
     inkscape:export-ydpi="96">
    <path
       style="font-style:normal;font-variant:normal;font-weight:bold;font-stretch:normal;font-size:26.6257267px;font-family:sans-serif;-inkscape-font-specification:'sans-serif Bold';fill:#ff9000;fill-opacity:1;stroke-width:0.71318913"
       d="M 53.884766,7.8164062 A 14.45161,14.044835 0 0 0 39.431641,21.859375 14.45161,14.044835 0 0 0 53.884766,35.90625 14.45161,14.044835 0 0 0 68.335938,21.859375 14.45161,14.044835 0 0 0 53.884766,7.8164062 Z m 0,4.0683598 a 10.262738,9.973869 0 0 1 10.261718,9.974609 10.262738,9.973869 0 0 1 -10.261718,9.974609 10.262738,9.973869 0 0 1 -10.263672,-9.974609 10.262738,9.973869 0 0 1 10.263672,-9.974609 z m 2.435546,2.623046 c -1.139974,-0.04135 -2.448542,0.01073 -3.923828,0.158204 -1.124602,0.112421 -2.285467,0.291259 -3.482422,0.535156 -2.414209,0.78347 -1.506158,2.679159 -0.197265,2.601562 1.115789,-0.322754 2.163085,-0.532944 3.142578,-0.630859 1.039956,-0.103959 1.863714,-0.063 2.46875,0.125 0.604419,0.181855 0.927657,0.487419 0.970703,0.917969 0.02828,0.282933 -0.106083,0.582866 -0.404297,0.898437 -0.286122,0.314363 -0.758716,0.665947 -1.416015,1.054688 l -1.107422,0.65039 C 51.149545,21.549266 50.359703,22.132869 50,22.566406 c -0.360317,0.427387 -0.515265,0.892125 -0.464844,1.396485 l 0.04492,0.453125 6.546875,-0.654297 -0.04102,-0.416016 c -0.02767,-0.276781 0.07349,-0.54196 0.304687,-0.794922 0.230578,-0.259113 0.739268,-0.62044 1.523437,-1.083984 l 1.107422,-0.640625 c 1.081973,-0.661044 1.835503,-1.252688 2.259766,-1.773438 0.423649,-0.5269 0.605172,-1.092542 0.544922,-1.695312 -0.117437,-1.174787 -0.981133,-1.989169 -2.589844,-2.44336 -0.804663,-0.23017 -1.776041,-0.364903 -2.916016,-0.40625 z m -3.107421,10.205079 a 3.2082551,2.8763666 0 0 0 -3.208985,2.876953 3.2082551,2.8763666 0 0 0 3.208985,2.876953 3.2082551,2.8763666 0 0 0 3.208984,-2.876953 3.2082551,2.8763666 0 0 0 -3.208984,-2.876953 z"
       transform="matrix(0.71318914,0,0,1.4021526,-0.04977516,-0.13443684)"
       id="path4497"
       inkscape:connector-curvature="0" />
  </g>
</svg>
