<?xml version="1.0" encoding="UTF-8" standalone="no"?>
<!-- Created with Inkscape (http://www.inkscape.org/) -->

<svg
   xmlns:dc="http://purl.org/dc/elements/1.1/"
   xmlns:cc="http://creativecommons.org/ns#"
   xmlns:rdf="http://www.w3.org/1999/02/22-rdf-syntax-ns#"
   xmlns:svg="http://www.w3.org/2000/svg"
   xmlns="http://www.w3.org/2000/svg"
   xmlns:sodipodi="http://sodipodi.sourceforge.net/DTD/sodipodi-0.dtd"
   xmlns:inkscape="http://www.inkscape.org/namespaces/inkscape"
   version="1.1"
   id="svg2"
   width="33"
   height="33"
   viewBox="0 0 33 33"
   sodipodi:docname="help2.svg"
   inkscape:export-filename="/home/beerto/Pictures/Ink/Linux/Manjaro/pngs/help2.png"
   inkscape:export-xdpi="96"
   inkscape:export-ydpi="96"
   inkscape:version="0.92.1 unknown">
  <metadata
     id="metadata8">
    <rdf:RDF>
      <cc:Work
         rdf:about="">
        <dc:format>image/svg+xml</dc:format>
        <dc:type
           rdf:resource="http://purl.org/dc/dcmitype/StillImage" />
        <dc:title></dc:title>
      </cc:Work>
    </rdf:RDF>
  </metadata>
  <defs
     id="defs6" />
  <sodipodi:namedview
     pagecolor="#ffffff"
     bordercolor="#666666"
     borderopacity="1"
     objecttolerance="10"
     gridtolerance="10"
     guidetolerance="10"
     inkscape:pageopacity="0"
     inkscape:pageshadow="2"
     inkscape:window-width="640"
     inkscape:window-height="480"
     id="namedview4"
     showgrid="false"
     showguides="true"
     inkscape:zoom="5.2149126"
     inkscape:cx="-44.608024"
     inkscape:cy="2.167324"
     inkscape:current-layer="svg2"
     inkscape:snap-global="false" />
  <g
     aria-label="?"
     transform="matrix(1.3912553,0,0,0.94289113,-2.5613723,-0.657245)"
     style="font-style:normal;font-variant:normal;font-weight:bold;font-stretch:normal;font-size:32.65782547px;line-height:1.25;font-family:sans-serif;-inkscape-font-specification:'sans-serif Bold';letter-spacing:0px;word-spacing:0px;fill:#000000;fill-opacity:1;stroke:none;stroke-width:0.81644559"
     id="text4493" />
  <g
     inkscape:groupmode="layer"
     id="layer2"
     inkscape:label="icon"
     transform="translate(0,1)" />
  <path
     style="fill:#ff9000;fill-opacity:1;stroke:none;stroke-width:1.03606141;stroke-miterlimit:4;stroke-dasharray:none;stroke-opacity:1"
     d="M 16.498878,2.397597 C 8.3297767,2.3984005 1.707456,8.711488 1.706446,16.498877 1.7061206,24.287168 8.3288323,30.6016 16.498878,30.602403 24.669799,30.602779 31.293879,24.288002 31.293554,16.498877 31.292544,8.7106537 24.668855,2.3972208 16.498878,2.397597 Z m 0,2.849877 c 6.51885,-1.264e-4 11.803163,5.037154 11.803428,11.251403 -2.66e-4,6.21425 -5.284579,11.251531 -11.803428,11.251405 C 9.9809046,27.749228 4.6979607,22.712292 4.6976949,16.498877 4.6979595,10.285462 9.9809034,5.2485274 16.498878,5.247474 Z m -0.42636,1.1489267 C 10.130891,6.5879599 5.4855796,11.26438 5.6962738,16.84221 5.9072861,22.420174 10.895964,26.786775 16.837721,26.594623 22.779349,26.403064 27.424661,21.726645 27.213966,16.148814 27.002953,10.570851 22.014276,6.2042488 16.072518,6.3964007 Z m 2.237266,2.2305337 c 1.875005,0.06361 3.380563,0.3276288 4.512679,0.7876435 1.50924,0.6067391 2.285985,1.5419341 2.333757,2.8049961 0.02451,0.648062 -0.17982,1.23786 -0.612611,1.76827 -0.433042,0.523798 -1.182828,1.097394 -2.250729,1.721146 l -1.090583,0.601392 c -0.773122,0.435465 -1.278414,0.782059 -1.512455,1.041215 -0.234291,0.25254 -0.345611,0.525966 -0.334356,0.823547 l 0.01796,0.446556 -6.280949,0.204203 -0.01795,-0.484703 c -0.0205,-0.542258 0.153649,-1.029627 0.520607,-1.458598 0.366708,-0.435585 1.151379,-0.999725 2.356198,-1.687486 l 1.090582,-0.608124 c 0.648049,-0.365215 1.11696,-0.704845 1.406987,-1.018775 0.301628,-0.314303 0.449084,-0.624823 0.437579,-0.929015 -0.01752,-0.462902 -0.308723,-0.814751 -0.875159,-1.054678 -0.566683,-0.246539 -1.349837,-0.3531 -2.347221,-0.320892 -0.939396,0.03035 -1.949979,0.175294 -3.031641,0.435335 -1.081908,0.25343 -2.208537,0.61818 -3.3749716,1.092827 L 9.1408102,9.677125 C 10.533599,9.3540685 11.80759,9.1063145 12.962337,8.936606 c 1.154746,-0.1697085 2.271724,-0.2725986 3.350289,-0.3074276 0.707446,-0.022844 1.372157,-0.023445 1.997158,-0.00224 z M 16.269991,19.543983 a 3.0198899,3.0198899 0 0 1 3.02042,3.02042 3.0198899,3.0198899 0 0 1 -3.02042,3.018177 3.0198899,3.0198899 0 0 1 -3.020422,-3.018177 3.0198899,3.0198899 0 0 1 3.020422,-3.02042 z"
     id="path4487"
     inkscape:connector-curvature="0" />
</svg>
