<?xml version="1.0" encoding="UTF-8" standalone="no"?>
<!-- Created with Inkscape (http://www.inkscape.org/) -->

<svg
   xmlns:dc="http://purl.org/dc/elements/1.1/"
   xmlns:cc="http://creativecommons.org/ns#"
   xmlns:rdf="http://www.w3.org/1999/02/22-rdf-syntax-ns#"
   xmlns:svg="http://www.w3.org/2000/svg"
   xmlns="http://www.w3.org/2000/svg"
   xmlns:sodipodi="http://sodipodi.sourceforge.net/DTD/sodipodi-0.dtd"
   xmlns:inkscape="http://www.inkscape.org/namespaces/inkscape"
   version="1.1"
   id="svg2"
   width="33"
   height="33"
   viewBox="0 0 33 33"
   sodipodi:docname="kbd.svg"
   inkscape:version="0.92.1 unknown"
   inkscape:export-filename="/home/kibo/Kibojoe-Linux/Manjaro/pngs/kbd.png"
   inkscape:export-xdpi="96"
   inkscape:export-ydpi="96">
  <metadata
     id="metadata8">
    <rdf:RDF>
      <cc:Work
         rdf:about="">
        <dc:format>image/svg+xml</dc:format>
        <dc:type
           rdf:resource="http://purl.org/dc/dcmitype/StillImage" />
        <dc:title></dc:title>
      </cc:Work>
    </rdf:RDF>
  </metadata>
  <defs
     id="defs6" />
  <sodipodi:namedview
     pagecolor="#ffffff"
     bordercolor="#666666"
     borderopacity="1"
     objecttolerance="10"
     gridtolerance="10"
     guidetolerance="10"
     inkscape:pageopacity="0"
     inkscape:pageshadow="2"
     inkscape:window-width="640"
     inkscape:window-height="480"
     id="namedview4"
     showgrid="false"
     inkscape:zoom="2.7289902"
     inkscape:cx="-45.887328"
     inkscape:cy="-5.6304535"
     inkscape:current-layer="layer1" />
  <g
     inkscape:groupmode="layer"
     id="layer1"
     inkscape:label="icon"
     transform="translate(0,1)">
    <path
       inkscape:connector-curvature="0"
       style="fill:#ff8000;fill-opacity:1;stroke:none;stroke-width:1.35897255;stroke-miterlimit:4;stroke-dasharray:none;stroke-opacity:1"
       d="m 8.0136717,6.931641 c -1.7358954,0 -3.4500354,1.3620773 -3.84375,3.052734 l -2.5703125,11.03125 c -0.3937148,1.690657 0.6879327,3.052734 2.4238281,3.052734 H 24.986328 c 1.735896,0 3.450035,-1.362077 3.84375,-3.052734 L 31.400391,9.984375 C 31.794105,8.2937183 30.71246,6.931641 28.976562,6.931641 Z m 0,1.5234375 h 1.4042969 c 0.4938871,0 0.7794734,0.3828863 0.6425784,0.8574219 L 9.5468748,11.095703 c -0.136895,0.474536 -0.6447846,0.857422 -1.1386719,0.857422 H 7.003906 c -0.4938872,0 -0.7814262,-0.382886 -0.6445312,-0.857422 L 6.8749998,9.3125004 C 7.0118948,8.8379648 7.5197844,8.4550785 8.0136717,8.4550785 Z m 4.8652343,0 h 1.404297 c 0.493887,0 0.781426,0.3828863 0.644531,0.8574219 l -0.515625,1.7832026 c -0.136895,0.474536 -0.644788,0.857422 -1.138671,0.857422 h -1.404297 c -0.493888,0 -0.781427,-0.382886 -0.644532,-0.857422 l 0.515625,-1.7832026 c 0.136895,-0.4745356 0.644785,-0.8574219 1.138672,-0.8574219 z m 4.865235,0 h 1.404297 c 0.493887,0 0.781426,0.3828863 0.644531,0.8574219 l -0.513672,1.7832026 c -0.136895,0.474536 -0.644785,0.857422 -1.138672,0.857422 h -1.404297 c -0.493887,0 -0.781426,-0.382886 -0.644531,-0.857422 l 0.513672,-1.7832026 c 0.136895,-0.4745356 0.644784,-0.8574219 1.138672,-0.8574219 z m 4.867187,0 h 1.404297 c 0.493887,0 0.781426,0.3828863 0.644531,0.8574219 l -0.515625,1.7832026 c -0.136895,0.474536 -0.644784,0.857422 -1.138672,0.857422 h -1.404297 c -0.493887,0 -0.781426,-0.382886 -0.644531,-0.857422 L 21.472656,9.3125004 C 21.609551,8.8379648 22.117441,8.4550785 22.611328,8.4550785 Z M 9.2968748,13.767578 h 1.4042972 c 0.493888,0 0.779473,0.382886 0.642578,0.857422 l -0.513672,1.783203 c -0.136895,0.474536 -0.644784,0.857422 -1.138672,0.857422 H 8.2871092 c -0.4938872,0 -0.7814263,-0.382886 -0.6445313,-0.857422 L 8.1582029,14.625 c 0.136895,-0.474536 0.6447846,-0.857422 1.1386719,-0.857422 z m 4.8652342,0 h 1.404297 c 0.493887,0 0.781424,0.382886 0.644532,0.857422 l -0.515626,1.783203 c -0.136892,0.474536 -0.644784,0.857422 -1.138671,0.857422 h -1.404297 c -0.493888,0 -0.781427,-0.382886 -0.644532,-0.857422 L 13.023438,14.625 c 0.136891,-0.474536 0.644784,-0.857422 1.138671,-0.857422 z m 4.865235,0 h 1.404297 c 0.493887,0 0.781426,0.382886 0.644531,0.857422 L 20.5625,16.408203 c -0.136895,0.474536 -0.644785,0.857422 -1.138672,0.857422 h -1.404297 c -0.493887,0 -0.781426,-0.382886 -0.644531,-0.857422 L 17.888672,14.625 c 0.136895,-0.474536 0.644784,-0.857422 1.138672,-0.857422 z m 4.867187,0 h 1.404297 c 0.493887,0 0.781426,0.382886 0.644531,0.857422 l -0.515625,1.783203 c -0.136895,0.474536 -0.644784,0.857422 -1.138672,0.857422 h -1.404296 c -0.493887,0 -0.781427,-0.382886 -0.644532,-0.857422 L 22.755859,14.625 c 0.136895,-0.474536 0.644785,-0.857422 1.138672,-0.857422 z M 9.6386717,18.851562 H 22.101562 c 0.494928,0 0.781229,0.380933 0.640626,0.855469 l -0.529297,1.785157 c -0.140604,0.474535 -0.651557,0.857421 -1.146485,0.857421 H 8.6015623 c -0.4949279,0 -0.7812282,-0.382886 -0.640625,-0.857421 l 0.5292969,-1.785157 c 0.1406032,-0.474536 0.6535096,-0.855469 1.1484375,-0.855469 z m -4.4335938,0.02344 h 1.4042969 c 0.4938872,0 0.7814264,0.380933 0.6445312,0.855469 l -0.515625,1.785156 c -0.1368949,0.474534 -0.6447846,0.85742 -1.1386718,0.85742 H 4.1953123 c -0.4938872,0 -0.7794732,-0.382886 -0.6425781,-0.857422 L 4.066406,19.730469 C 4.2033013,19.255933 4.7111907,18.875 5.2050779,18.875 Z m 19.9707031,0 h 1.404297 c 0.493887,0 0.781426,0.380933 0.644531,0.855469 l -0.515625,1.785156 c -0.136895,0.474536 -0.644784,0.857422 -1.138672,0.857422 h -1.402343 c -0.493887,0 -0.781427,-0.382886 -0.644531,-0.857422 l 0.513671,-1.785156 c 0.136895,-0.474536 0.644785,-0.855469 1.138672,-0.855469 z"
       id="rect4489" />
  </g>
</svg>
