<?xml version="1.0" encoding="UTF-8" standalone="no"?>
<!-- Created with Inkscape (http://www.inkscape.org/) -->

<svg
   xmlns:dc="http://purl.org/dc/elements/1.1/"
   xmlns:cc="http://creativecommons.org/ns#"
   xmlns:rdf="http://www.w3.org/1999/02/22-rdf-syntax-ns#"
   xmlns:svg="http://www.w3.org/2000/svg"
   xmlns="http://www.w3.org/2000/svg"
   xmlns:sodipodi="http://sodipodi.sourceforge.net/DTD/sodipodi-0.dtd"
   xmlns:inkscape="http://www.inkscape.org/namespaces/inkscape"
   version="1.1"
   id="svg2"
   width="33"
   height="33"
   viewBox="0 0 33 33"
   sodipodi:docname="lang.svg"
   inkscape:version="0.92.1 unknown"
   inkscape:export-filename="/home/kibo/Kibojoe-Linux/Manjaro/pngs/lang.png"
   inkscape:export-xdpi="96"
   inkscape:export-ydpi="96">
  <metadata
     id="metadata8">
    <rdf:RDF>
      <cc:Work
         rdf:about="">
        <dc:format>image/svg+xml</dc:format>
        <dc:type
           rdf:resource="http://purl.org/dc/dcmitype/StillImage" />
        <dc:title></dc:title>
      </cc:Work>
    </rdf:RDF>
  </metadata>
  <defs
     id="defs6" />
  <sodipodi:namedview
     pagecolor="#ffffff"
     bordercolor="#666666"
     borderopacity="1"
     objecttolerance="10"
     gridtolerance="10"
     guidetolerance="10"
     inkscape:pageopacity="0"
     inkscape:pageshadow="2"
     inkscape:window-width="640"
     inkscape:window-height="480"
     id="namedview4"
     showgrid="false"
     inkscape:zoom="3.859375"
     inkscape:cx="-65.799389"
     inkscape:cy="-4.3108894"
     inkscape:current-layer="svg2" />
  <path
     style="fill:#ff8000;fill-opacity:1;stroke:none;stroke-width:0.77486914"
     d="m 16.5,2.941408 a 13.558129,13.558129 0 0 0 -1.046875,0.04492 c -1.087509,1.255351 -2.592804,3.285994 -3.794922,6.041016 2.349166,-0.623785 4.599957,-0.768159 6.695312,-0.574219 1.20593,0.111617 2.355257,0.33867 3.449219,0.638672 C 20.611129,6.338309 19.110774,4.304511 18.017578,3.035156 A 13.558129,13.558129 0 0 0 16.5,2.941406 Z M 13.273438,3.345705 A 13.558129,13.558129 0 0 0 3.3398435,13.281252 C 5.5406605,11.581193 7.7103225,10.387917 9.8144525,9.609377 10.775542,7.076246 12.079435,4.95633 13.273438,3.345705 Z m 6.984374,0.138672 c 1.179542,1.611237 2.454073,3.706245 3.390625,6.203125 2.338805,0.874539 4.323011,2.049236 5.892578,3.164062 A 13.558129,13.558129 0 0 0 20.257812,3.484377 Z m -3.875,6.349609 c -1.714293,0.01414 -3.523398,0.299999 -5.404296,0.935547 -1.1470385,3.341229 -1.5722515,7.315985 -0.07813,11.685547 4.357482,1.486456 8.321297,1.06105 11.656249,-0.08008 1.447694,-4.296745 1.041463,-8.20903 -0.07422,-11.509766 -1.329248,-0.450081 -2.753116,-0.795452 -4.265625,-0.947265 -0.598267,-0.06005 -1.210154,-0.08913 -1.833986,-0.08398 z m -7.1894535,1.636719 c -2.001667,0.903269 -4.075272,2.222442 -6.201171,4.070313 a 13.558129,13.558129 0 0 0 -0.05078,0.958984 13.558129,13.558129 0 0 0 0.06445,1.224609 c 2.101109,1.8233 4.153156,3.143972 6.132813,4.041016 -1.017622,-3.760666 -0.787024,-7.263673 0.05469,-10.294922 z m 15.0664065,0.08789 c 0.815796,2.98996 1.035398,6.434095 0.05078,10.128906 2.446875,-1.067642 4.342107,-2.375424 5.613281,-3.417969 a 13.558129,13.558129 0 0 0 0.134766,-1.769531 13.558129,13.558129 0 0 0 -0.08594,-1.462891 c -1.279825,-1.055914 -3.20949,-2.392752 -5.712891,-3.478515 z M 3.4414055,20.072267 a 13.558129,13.558129 0 0 0 9.6074225,9.521484 C 11.541927,27.569161 10.47849,25.574202 9.7480465,23.632813 7.6976805,22.866128 5.5835335,21.712187 3.4414055,20.072267 Z m 25.9980475,0.417968 c -1.539288,1.082695 -3.470729,2.214104 -5.730469,3.066407 -0.713361,1.917347 -1.752371,3.887038 -3.220703,5.886718 a 13.558129,13.558129 0 0 0 8.951172,-8.953125 z m -7.583985,3.671875 c -3.021301,0.836803 -6.511706,1.06478 -10.255859,0.05859 0.848535,1.869037 2.052199,3.799058 3.720703,5.777344 A 13.558129,13.558129 0 0 0 16.5,30.058594 13.558129,13.558129 0 0 0 18.158203,29.939453 c 1.660453,-1.978717 2.855868,-3.908244 3.697265,-5.777343 z"
     id="path4487"
     inkscape:connector-curvature="0" />
  <g
     inkscape:groupmode="layer"
     id="layer1"
     inkscape:label="icon"
     style="display:inline"
     transform="translate(0,1)" />
</svg>
