<?xml version="1.0" encoding="UTF-8" standalone="no"?>
<!-- Created with Inkscape (http://www.inkscape.org/) -->

<svg
   xmlns:dc="http://purl.org/dc/elements/1.1/"
   xmlns:cc="http://creativecommons.org/ns#"
   xmlns:rdf="http://www.w3.org/1999/02/22-rdf-syntax-ns#"
   xmlns:svg="http://www.w3.org/2000/svg"
   xmlns="http://www.w3.org/2000/svg"
   xmlns:sodipodi="http://sodipodi.sourceforge.net/DTD/sodipodi-0.dtd"
   xmlns:inkscape="http://www.inkscape.org/namespaces/inkscape"
   version="1.1"
   id="svg2"
   width="33"
   height="33"
   viewBox="0 0 33 33"
   sodipodi:docname="memtest.svg"
   inkscape:version="0.92.1 unknown"
   inkscape:export-filename="/home/kibo/Kibojoe-Linux/Manjaro/pngs/memtest.png"
   inkscape:export-xdpi="96"
   inkscape:export-ydpi="96">
  <metadata
     id="metadata8">
    <rdf:RDF>
      <cc:Work
         rdf:about="">
        <dc:format>image/svg+xml</dc:format>
        <dc:type
           rdf:resource="http://purl.org/dc/dcmitype/StillImage" />
        <dc:title></dc:title>
      </cc:Work>
    </rdf:RDF>
  </metadata>
  <defs
     id="defs6" />
  <sodipodi:namedview
     pagecolor="#ffffff"
     bordercolor="#666666"
     borderopacity="1"
     objecttolerance="10"
     gridtolerance="10"
     guidetolerance="10"
     inkscape:pageopacity="0"
     inkscape:pageshadow="2"
     inkscape:window-width="640"
     inkscape:window-height="480"
     id="namedview4"
     showgrid="false"
     inkscape:zoom="7.71875"
     inkscape:cx="10.129687"
     inkscape:cy="9.3156192"
     inkscape:current-layer="layer1" />
  <g
     inkscape:groupmode="layer"
     id="layer1"
     inkscape:label="icon"
     style="display:inline"
     transform="translate(0,1)">
    <path
       style="fill:#ff9100;fill-opacity:1;stroke:none;stroke-width:0.99553823"
       d="M 19.706283,2.221141 A 4.3852048,10.060176 0 0 1 16.323167,5.8889147 4.3852048,10.060176 0 0 1 12.964205,2.3022254 13.671523,13.671523 0 0 0 9.3809649,3.8497292 10.060176,4.3852048 45 0 1 9.5258817,8.7044399 10.060176,4.3852048 45 0 1 4.733278,8.592302 13.671523,13.671523 0 0 0 3.2634082,12.203144 10.060176,4.3852048 0 0 1 6.7138068,15.5 a 10.060176,4.3852048 0 0 1 -3.4521237,3.302031 13.671523,13.671523 0 0 0 1.4733201,3.605667 4.3852048,10.060176 45 0 1 3.1829927,-0.752187 4.3852048,10.060176 45 0 1 1.6078858,0.638324 4.3852048,10.060176 45 0 1 -0.1345656,4.856436 13.671523,13.671523 0 0 0 3.5815139,1.537153 4.3852048,10.060176 0 0 1 3.350337,-3.578064 4.3852048,10.060176 0 0 1 3.383116,3.669499 13.671523,13.671523 0 0 0 3.63327,-1.454343 10.060176,4.3852048 45 0 1 -0.22255,-5.030681 10.060176,4.3852048 45 0 1 1.768329,-0.645224 10.060176,4.3852048 45 0 1 3.324458,0.900554 13.671523,13.671523 0 0 0 1.521627,-3.616018 A 10.060176,4.3852048 0 0 1 25.929077,15.5 10.060176,4.3852048 0 0 1 29.738317,12.070304 13.671523,13.671523 0 0 0 28.214966,8.4508356 4.3852048,10.060176 45 0 1 23.117003,8.7044399 4.3852048,10.060176 45 0 1 23.343004,3.6685832 13.671523,13.671523 0 0 0 19.706283,2.221141 Z m -1.60616,6.6420173 a 6.8321747,6.8321747 0 0 1 1.81836,0.7245837 2.1914519,5.0274485 45 0 0 -0.113863,2.517066 2.1914519,5.0274485 45 0 0 2.548119,-0.127665 6.8321747,6.8321747 0 0 1 0.762538,1.809734 5.0274485,2.1914519 0 0 0 -1.90462,1.713123 5.0274485,2.1914519 0 0 0 1.899445,1.716573 6.8321747,6.8321747 0 0 1 -0.759088,1.806284 5.0274485,2.1914519 45 0 0 -1.661367,-0.450277 5.0274485,2.1914519 45 0 0 -0.885027,0.322612 5.0274485,2.1914519 45 0 0 0.112138,2.513615 6.8321747,6.8321747 0 0 1 -1.816635,0.728035 2.1914519,5.0274485 0 0 0 -1.68897,-1.835612 2.1914519,5.0274485 0 0 0 -1.675169,1.789032 6.8321747,6.8321747 0 0 1 -1.789031,-0.769439 2.1914519,5.0274485 45 0 0 0.06728,-2.425631 A 2.1914519,5.0274485 45 0 0 12.210292,18.57603 2.1914519,5.0274485 45 0 0 10.619659,18.952124 6.8321747,6.8321747 0 0 1 9.8829979,17.149291 5.0274485,2.1914519 0 0 0 11.608198,15.5 5.0274485,2.1914519 0 0 0 9.8829979,13.852435 a 6.8321747,6.8321747 0 0 1 0.7349361,-1.804559 5.0274485,2.1914519 45 0 0 2.396302,0.05693 5.0274485,2.1914519 45 0 0 -0.07246,-2.42563 6.8321747,6.8321747 0 0 1 1.789032,-0.7746149 2.1914519,5.0274485 0 0 0 1.680344,1.7924819 2.1914519,5.0274485 0 0 0 1.68897,-1.8338867 z"
       id="path4487"
       inkscape:connector-curvature="0" />
  </g>
</svg>
