<?xml version="1.0" encoding="UTF-8" standalone="no"?>
<!-- Created with Inkscape (http://www.inkscape.org/) -->

<svg
   xmlns:dc="http://purl.org/dc/elements/1.1/"
   xmlns:cc="http://creativecommons.org/ns#"
   xmlns:rdf="http://www.w3.org/1999/02/22-rdf-syntax-ns#"
   xmlns:svg="http://www.w3.org/2000/svg"
   xmlns="http://www.w3.org/2000/svg"
   xmlns:sodipodi="http://sodipodi.sourceforge.net/DTD/sodipodi-0.dtd"
   xmlns:inkscape="http://www.inkscape.org/namespaces/inkscape"
   version="1.1"
   id="svg2"
   width="33"
   height="33"
   viewBox="0 0 33 33"
   sodipodi:docname="time.svg"
   inkscape:export-filename="/home/beerto/Pictures/Ink/Linux/Manjaro/pngs/time.png"
   inkscape:export-xdpi="96"
   inkscape:export-ydpi="96"
   inkscape:version="0.92.1 unknown">
  <metadata
     id="metadata8">
    <rdf:RDF>
      <cc:Work
         rdf:about="">
        <dc:format>image/svg+xml</dc:format>
        <dc:type
           rdf:resource="http://purl.org/dc/dcmitype/StillImage" />
        <dc:title></dc:title>
      </cc:Work>
    </rdf:RDF>
  </metadata>
  <defs
     id="defs6" />
  <sodipodi:namedview
     pagecolor="#ffffff"
     bordercolor="#666666"
     borderopacity="1"
     objecttolerance="10"
     gridtolerance="10"
     guidetolerance="10"
     inkscape:pageopacity="0"
     inkscape:pageshadow="2"
     inkscape:window-width="640"
     inkscape:window-height="480"
     id="namedview4"
     showgrid="false"
     showguides="true"
     inkscape:zoom="1.84375"
     inkscape:cx="-100.06823"
     inkscape:cy="22.584396"
     inkscape:current-layer="text4488"
     inkscape:snap-global="false" />
  <g
     aria-label="?"
     transform="matrix(1.3912553,0,0,0.94289113,-2.5613723,-0.657245)"
     style="font-style:normal;font-variant:normal;font-weight:bold;font-stretch:normal;font-size:32.65782547px;line-height:1.25;font-family:sans-serif;-inkscape-font-specification:'sans-serif Bold';letter-spacing:0px;word-spacing:0px;fill:#000000;fill-opacity:1;stroke:none;stroke-width:0.81644559"
     id="text4493" />
  <g
     inkscape:groupmode="layer"
     id="layer2"
     inkscape:label="icon"
     transform="translate(0,1)" />
  <g
     aria-label="?"
     transform="matrix(1.3803116,0,0,0.70207997,-36.97575,-4.4264144)"
     style="font-style:normal;font-weight:normal;font-size:28.527565px;line-height:1.25;font-family:sans-serif;letter-spacing:0px;word-spacing:0px;fill:#ff9000;fill-opacity:1;stroke:none;stroke-width:0.71318913"
     id="text4488"
     inkscape:export-filename="/home/beerto/Pictures/Ink/Linux/Manjaro/pngs/help3.png"
     inkscape:export-xdpi="96"
     inkscape:export-ydpi="96">
    <path
       style="font-style:normal;font-variant:normal;font-weight:bold;font-stretch:normal;font-size:26.6257267px;font-family:sans-serif;-inkscape-font-specification:'sans-serif Bold';fill:#ff9000;fill-opacity:1;stroke-width:0.71318913"
       d="M 38.741796,10.113153 C 33.049658,10.112053 28.435776,18.9276 28.43502,29.80353 28.434164,40.681599 33.048539,49.50061 38.741796,49.499471 44.434509,49.499142 49.0494,40.680559 49.048572,29.80353 49.047816,18.928639 44.43339,10.113483 38.741796,10.113153 Z m -0.546186,1.429903 h 1.092371 c 0.553251,0 0.998982,1.654418 0.998982,3.70829 v 0.520217 c -0.148322,-1.250805 -0.527037,-2.142072 -0.977757,-2.142072 h -1.147555 c -0.434347,0 -0.80554,0.823782 -0.965022,2.002977 v -0.381122 c 0,-2.053872 0.445731,-3.70829 0.998981,-3.70829 z m -1.051336,4.617975 c -0.01864,0.246694 -0.03113,0.499954 -0.03113,0.765026 v 9.781205 a 2.2666576,4.4563211 0 0 0 -0.63816,3.09905 2.2666576,4.4563211 0 0 0 2.266812,4.456623 2.2666576,4.4563211 0 0 0 1.631481,-1.365918 h 5.208573 c 0.102312,0 0.201179,-0.01635 0.298563,-0.03617 -0.730369,6.251129 -3.646763,10.926692 -7.138617,10.927353 -4.042795,7.02e-4 -7.320036,-6.260132 -7.319736,-13.984674 -2.59e-4,-6.675243 2.448372,-12.249615 5.722214,-13.642499 z m 3.180894,0.0028 c 2.727605,1.153668 4.881355,5.206057 5.52836,10.387662 -0.08907,-0.01647 -0.178574,-0.03338 -0.271678,-0.03338 h -5.225552 v -9.592034 c 0,-0.264086 -0.01268,-0.516387 -0.03113,-0.762244 z m 5.940122,10.518412 h 0.212248 c 1.087708,0 1.962589,0.876321 1.962589,1.964029 v 2.150418 c 0,1.087711 -0.874881,1.964031 -1.962589,1.964031 h -0.284413 c 0.661025,-0.292646 1.131991,-1.039363 1.131991,-1.925084 v -2.25613 c 0,-0.854023 -0.43611,-1.583767 -1.059826,-1.897264 z m -7.523494,0.308792 a 1.4316706,2.8147098 0 0 1 1.431968,2.815295 1.4316706,2.8147098 0 0 1 -1.431968,2.815295 1.4316706,2.8147098 0 0 1 -1.431968,-2.815295 1.4316706,2.8147098 0 0 1 1.431968,-2.815295 z"
       id="path4497"
       inkscape:connector-curvature="0" />
  </g>
</svg>
