<?xml version="1.0" encoding="UTF-8" standalone="no"?>
<!-- Created with Inkscape (http://www.inkscape.org/) -->

<svg
   xmlns:dc="http://purl.org/dc/elements/1.1/"
   xmlns:cc="http://creativecommons.org/ns#"
   xmlns:rdf="http://www.w3.org/1999/02/22-rdf-syntax-ns#"
   xmlns:svg="http://www.w3.org/2000/svg"
   xmlns="http://www.w3.org/2000/svg"
   xmlns:sodipodi="http://sodipodi.sourceforge.net/DTD/sodipodi-0.dtd"
   xmlns:inkscape="http://www.inkscape.org/namespaces/inkscape"
   version="1.1"
   id="svg2"
   width="33"
   height="33"
   viewBox="0 0 33 33"
   sodipodi:docname="type.svg"
   inkscape:version="0.92.1 unknown"
   inkscape:export-filename="/home/beerto/Pictures/Ink/Linux/Manjaro/pngs/type.png"
   inkscape:export-xdpi="96"
   inkscape:export-ydpi="96">
  <metadata
     id="metadata8">
    <rdf:RDF>
      <cc:Work
         rdf:about="">
        <dc:format>image/svg+xml</dc:format>
        <dc:type
           rdf:resource="http://purl.org/dc/dcmitype/StillImage" />
        <dc:title></dc:title>
      </cc:Work>
    </rdf:RDF>
  </metadata>
  <defs
     id="defs6" />
  <sodipodi:namedview
     pagecolor="#ffffff"
     bordercolor="#666666"
     borderopacity="1"
     objecttolerance="10"
     gridtolerance="10"
     guidetolerance="10"
     inkscape:pageopacity="0"
     inkscape:pageshadow="2"
     inkscape:window-width="640"
     inkscape:window-height="480"
     id="namedview4"
     showgrid="false"
     inkscape:snap-global="false"
     inkscape:zoom="5.7673397"
     inkscape:cx="-5.8186624"
     inkscape:cy="1.0868436"
     inkscape:current-layer="svg2" />
  <path
     style="opacity:1;vector-effect:none;fill:#ff9000;fill-opacity:1;fill-rule:evenodd;stroke:none;stroke-width:1.07467806;stroke-linecap:butt;stroke-linejoin:miter;stroke-miterlimit:4;stroke-dasharray:none;stroke-dashoffset:0;stroke-opacity:1"
     d="m 7.5390629,2.884766 c -2.077978,0 -3.7480469,1.673975 -3.7480469,3.751953 v 19.726562 c 0,2.077979 1.6700689,3.751953 3.7480469,3.751953 H 25.460938 c 2.077978,0 3.748046,-1.673974 3.748046,-3.751953 V 6.636719 c 0,-2.077978 -1.670068,-3.751953 -3.748046,-3.751953 z M 9.431641,5.757813 h 14.136718 c 1.63949,0 2.960938,1.321447 2.960938,2.960937 v 15.5625 c 0,1.63949 -1.321448,2.960937 -2.960938,2.960938 H 9.431641 c -1.6394891,0 -2.9609376,-1.321448 -2.9609376,-2.960938 V 8.71875 c 0,-1.63949 1.3214475,-2.960937 2.9609376,-2.960937 z m 13.61914,0.810546 c -0.270361,0.01922 -0.545164,0.141098 -0.761719,0.363282 l -1.59375,1.636718 3.201172,3.121094 1.595704,-1.636719 c 0.433109,-0.444367 0.461883,-1.110633 0.06641,-1.496093 L 23.78516,6.826172 C 23.587421,6.633442 23.321146,6.549138 23.050785,6.568359 Z m -3.830078,3.511719 -10.0058588,10.265625 -0.037109,-0.03711 c 0,0 -2.1547304,4.046638 -1.453125,4.730468 0.8510321,0.829471 4.6933598,-1.572265 4.6933598,-1.572265 L 22.421875,13.201172 Z"
     id="rect4511"
     inkscape:connector-curvature="0" />
</svg>
