<?xml version="1.0" encoding="UTF-8" standalone="no"?>
<!-- Created with Inkscape (http://www.inkscape.org/) -->

<svg
   xmlns:dc="http://purl.org/dc/elements/1.1/"
   xmlns:cc="http://creativecommons.org/ns#"
   xmlns:rdf="http://www.w3.org/1999/02/22-rdf-syntax-ns#"
   xmlns:svg="http://www.w3.org/2000/svg"
   xmlns="http://www.w3.org/2000/svg"
   xmlns:sodipodi="http://sodipodi.sourceforge.net/DTD/sodipodi-0.dtd"
   xmlns:inkscape="http://www.inkscape.org/namespaces/inkscape"
   version="1.1"
   id="svg2"
   width="449"
   height="121.70141"
   viewBox="0 0 449 121.70141"
   sodipodi:docname="panel1.svg"
   inkscape:version="0.92.1 15371"
   inkscape:export-filename="/home/galviiz/Pictures/Kibojoe-Linux/Panel/panel2.png"
   inkscape:export-xdpi="96"
   inkscape:export-ydpi="96"
   style="enable-background:new">
  <metadata
     id="metadata8">
    <rdf:RDF>
      <cc:Work
         rdf:about="">
        <dc:format>image/svg+xml</dc:format>
        <dc:type
           rdf:resource="http://purl.org/dc/dcmitype/StillImage" />
        <dc:title />
      </cc:Work>
    </rdf:RDF>
  </metadata>
  <defs
     id="defs6">
    <inkscape:path-effect
       effect="skeletal"
       id="path-effect4214"
       is_visible="true"
       pattern="M 0,0 H 1"
       copytype="single_stretched"
       prop_scale="1"
       scale_y_rel="false"
       spacing="0"
       normal_offset="0"
       tang_offset="0"
       prop_units="false"
       vertical_pattern="false"
       fuse_tolerance="0" />
    <inkscape:path-effect
       effect="skeletal"
       id="path-effect4205"
       is_visible="true"
       pattern="M 0,0 H 1"
       copytype="single_stretched"
       prop_scale="1"
       scale_y_rel="false"
       spacing="0"
       normal_offset="0"
       tang_offset="0"
       prop_units="false"
       vertical_pattern="false"
       fuse_tolerance="0" />
    <inkscape:path-effect
       effect="skeletal"
       id="path-effect4196"
       is_visible="true"
       pattern="M 0,0 H 1"
       copytype="single_stretched"
       prop_scale="1"
       scale_y_rel="false"
       spacing="0"
       normal_offset="0"
       tang_offset="0"
       prop_units="false"
       vertical_pattern="false"
       fuse_tolerance="0" />
    <inkscape:path-effect
       effect="skeletal"
       id="path-effect4196-3"
       is_visible="true"
       pattern="M 0,0 H 1"
       copytype="single_stretched"
       prop_scale="1"
       scale_y_rel="false"
       spacing="0"
       normal_offset="0"
       tang_offset="0"
       prop_units="false"
       vertical_pattern="false"
       fuse_tolerance="0" />
    <inkscape:path-effect
       effect="skeletal"
       id="path-effect4205-6"
       is_visible="true"
       pattern="M 0,0 H 1"
       copytype="single_stretched"
       prop_scale="1"
       scale_y_rel="false"
       spacing="0"
       normal_offset="0"
       tang_offset="0"
       prop_units="false"
       vertical_pattern="false"
       fuse_tolerance="0" />
    <inkscape:path-effect
       effect="skeletal"
       id="path-effect4214-7"
       is_visible="true"
       pattern="M 0,0 H 1"
       copytype="single_stretched"
       prop_scale="1"
       scale_y_rel="false"
       spacing="0"
       normal_offset="0"
       tang_offset="0"
       prop_units="false"
       vertical_pattern="false"
       fuse_tolerance="0" />
  </defs>
  <sodipodi:namedview
     pagecolor="#ffffff"
     bordercolor="#000000"
     borderopacity="1"
     objecttolerance="10"
     gridtolerance="10"
     guidetolerance="10"
     inkscape:pageopacity="0"
     inkscape:pageshadow="2"
     inkscape:window-width="1280"
     inkscape:window-height="995"
     id="namedview4"
     showgrid="false"
     inkscape:zoom="1.1181421"
     inkscape:cx="204.99615"
     inkscape:cy="6.9646428"
     inkscape:window-x="0"
     inkscape:window-y="0"
     inkscape:window-maximized="1"
     inkscape:current-layer="g4673"
     inkscape:showpageshadow="false">
    <sodipodi:guide
       position="0,-68.298592"
       orientation="0,449"
       id="guide4487"
       inkscape:locked="false" />
    <sodipodi:guide
       position="449,-68.298592"
       orientation="-190,0"
       id="guide4489"
       inkscape:locked="false" />
    <sodipodi:guide
       position="449,121.70141"
       orientation="0,-449"
       id="guide4491"
       inkscape:locked="false" />
    <sodipodi:guide
       position="0,121.70141"
       orientation="190,0"
       id="guide4493"
       inkscape:locked="false" />
  </sodipodi:namedview>
  <g
     inkscape:groupmode="layer"
     id="layer2"
     inkscape:label="panel"
     style="display:inline">
    <rect
       style="opacity:1;fill:#b6855e;fill-opacity:1"
       id="rect4531"
       width="449"
       height="121.70141"
       x="0"
       y="0"
       ry="29.243586" />
  </g>
  <g
     inkscape:groupmode="layer"
     id="layer3"
     inkscape:label="logo"
     style="display:inline;opacity:1">
    <g
       style="display:inline;opacity:1"
       transform="matrix(0.83530313,0,0,0.83530313,-236.60841,10.141369)"
       id="layer1-3"
       inkscape:label="logo">
      <g
         transform="matrix(0.4889051,0,0,0.4889051,96.251704,89.386199)"
         id="g4617">
        <g
           transform="translate(44.820764,1.6530494)"
           id="g4622" />
      </g>
      <g
         transform="matrix(3.2971642,0,0,3.2971642,-500.11406,-484.78406)"
         id="g4673">
        <g
           style="fill:#c1a07e;fill-opacity:1;enable-background:new"
           id="g4557"
           transform="matrix(0.0765365,0,0,0.0765365,196.3869,150.92847)" />
        <path
           style="font-style:normal;font-variant:normal;font-weight:normal;font-stretch:normal;font-size:29.22245026px;line-height:1.25;font-family:Lato;-inkscape-font-specification:Lato;letter-spacing:0px;word-spacing:0px;display:inline;opacity:1;vector-effect:none;fill:#dab791;fill-opacity:1;fill-rule:evenodd;stroke:none;stroke-width:1.98632944;stroke-linecap:butt;stroke-linejoin:miter;stroke-miterlimit:4;stroke-dasharray:none;stroke-dashoffset:0;stroke-opacity:1"
           d="m 270.16222,155.15505 c 0,0 -12.17339,13.25857 -12.77918,22.16417 8.10324,-6.69307 30.40642,3.48813 42.17829,0.93421 4.39568,-1.10538 -17.93959,-23.42423 -17.93959,-23.42423 0,0 -0.57293,1.07776 -4.90657,1.11328 -4.33327,0.0143 -6.55295,-0.78743 -6.55295,-0.78743 z"
           id="path4702-6"
           inkscape:connector-curvature="0"
           sodipodi:nodetypes="cccccc" />
        <path
           style="font-style:normal;font-variant:normal;font-weight:normal;font-stretch:normal;font-size:140.26776123px;line-height:1.25;font-family:'Nimbus Sans L';-inkscape-font-specification:'Nimbus Sans L, Normal';font-variant-ligatures:normal;font-variant-caps:normal;font-variant-numeric:normal;font-feature-settings:normal;text-align:start;letter-spacing:0px;word-spacing:0px;writing-mode:lr-tb;text-anchor:start;display:inline;fill:#171410;fill-opacity:1;stroke:none;stroke-width:0.1506775"
           d="m 270.16222,155.15505 4.48951,10.78794 c 0.52389,1.25887 6.41086,-0.88866 6.6321,1.97442 -0.40698,0.64869 -1.52672,1.1048 -2.92607,1.20466 -2.64745,0.18895 -4.58195,-0.71307 -5.41296,-2.53477 l -0.45949,-1.00728 -10.81221,0.89112 c 0,0 -0.23833,-0.15719 0.40524,1.26791 0.64356,1.42509 9.35932,5.44135 14.09813,5.35577 4.73891,-0.0856 12.06624,-4.58082 10.7852,-7.22858 l -5.33993,-11.03704 c 0,0 -2.68488,0.79096 -5.15679,0.96016 -2.4719,0.1692 -6.30273,-0.63431 -6.30273,-0.63431 z"
           id="path4721-7"
           inkscape:connector-curvature="0" />
        <path
           inkscape:label="circle-top"
           inkscape:connector-curvature="0"
           id="path4723-5"
           d="m 281.69859,152.59626 a 1.9988449,6.3092601 88.554475 0 1 -6.23415,2.16391 1.9988449,6.3092601 88.554475 0 1 -6.3799,-1.83135 1.9988449,6.3092601 88.554475 0 1 6.23411,-2.16391 1.9988449,6.3092601 88.554475 0 1 6.37994,1.83135 z"
           style="display:inline;opacity:1;vector-effect:none;fill:#171410;fill-opacity:1;fill-rule:evenodd;stroke:none;stroke-width:0.95547044;stroke-linecap:butt;stroke-linejoin:miter;stroke-miterlimit:4;stroke-dasharray:none;stroke-dashoffset:0;stroke-opacity:1" />
      </g>
    </g>
  </g>
  <g
     inkscape:groupmode="layer"
     id="layer4"
     inkscape:label="Font"
     transform="matrix(0.83530313,0,0,0.83530313,-236.60841,10.141369)"
     style="display:none"
     sodipodi:insensitive="true">
    <text
       xml:space="preserve"
       style="font-style:normal;font-variant:normal;font-weight:normal;font-stretch:normal;font-size:59.01847839px;line-height:1.25;font-family:monospace;-inkscape-font-specification:monospace;letter-spacing:0px;word-spacing:0px;display:inline;opacity:1;fill:#090f17;fill-opacity:1;stroke:none;stroke-width:1.47546208"
       x="608.06946"
       y="65.72966"
       id="text4604"
       transform="scale(0.82928745,1.2058545)"><tspan
         sodipodi:role="line"
         id="tspan4602"
         x="608.06946"
         y="65.72966"
         style="font-style:normal;font-variant:normal;font-weight:bold;font-stretch:normal;font-size:39.34565353px;font-family:Lato;-inkscape-font-specification:'Lato Bold';fill:#090f17;fill-opacity:1;stroke-width:1.47546208">Kibojoe Linux</tspan></text>
  </g>
  <g
     inkscape:groupmode="layer"
     id="layer5"
     inkscape:label="font-object-(wont-change)"
     style="display:inline">
    <g
       aria-label="Kibojoe Linux"
       transform="scale(0.82928745,1.2058545)"
       style="font-style:normal;font-variant:normal;font-weight:normal;font-stretch:normal;font-size:49.29831696px;line-height:1.25;font-family:monospace;-inkscape-font-specification:monospace;letter-spacing:0px;word-spacing:0px;display:inline;opacity:1;fill:#e8dbcc;fill-opacity:1;stroke:none;stroke-width:1.23245811"
       id="text4604-2">
      <path
         d="m 225.62396,39.355188 h 6.17834 v 8.745959 l 8.90644,-8.745959 h 7.17329 l -11.53825,11.345675 12.72577,12.613438 h -7.73496 l -9.53229,-9.436007 v 9.436007 h -6.17834 z"
         style="font-style:normal;font-variant:normal;font-weight:bold;font-stretch:normal;font-size:32.86554718px;font-family:Lato;-inkscape-font-specification:'Lato Bold';fill:#e8dbcc;fill-opacity:1;stroke-width:1.23245811"
         id="path4645"
         inkscape:connector-curvature="0" />
      <path
         d="m 250.85084,45.340954 h 5.74505 v 17.973347 h -5.74505 z m 0,-6.996766 h 5.74505 v 4.685908 h -5.74505 z"
         style="font-style:normal;font-variant:normal;font-weight:bold;font-stretch:normal;font-size:32.86554718px;font-family:Lato;-inkscape-font-specification:'Lato Bold';fill:#e8dbcc;fill-opacity:1;stroke-width:1.23245811"
         id="path4647"
         inkscape:connector-curvature="0" />
      <path
         d="m 271.71276,59.607298 q 1.84548,0 2.80834,-1.348001 0.9789,-1.348001 0.9789,-3.915622 0,-2.567621 -0.9789,-3.915622 -0.96286,-1.348001 -2.80834,-1.348001 -1.84548,0 -2.84043,1.364049 -0.97891,1.348001 -0.97891,3.899574 0,2.551573 0.97891,3.915622 0.99495,1.348001 2.84043,1.348001 z m -3.81934,-11.634532 q 1.18753,-1.572668 2.63182,-2.310859 1.44428,-0.754239 3.32185,-0.754239 3.32186,0 5.4562,2.647859 2.13433,2.631812 2.13433,6.788148 0,4.156336 -2.13433,6.804195 -2.13434,2.631812 -5.4562,2.631812 -1.87757,0 -3.32185,-0.738191 -1.44429,-0.754239 -2.63182,-2.326907 v 2.599717 h -5.74505 V 38.344188 h 5.74505 z"
         style="font-style:normal;font-variant:normal;font-weight:bold;font-stretch:normal;font-size:32.86554718px;font-family:Lato;-inkscape-font-specification:'Lato Bold';fill:#e8dbcc;fill-opacity:1;stroke-width:1.23245811"
         id="path4649"
         inkscape:connector-curvature="0" />
      <path
         d="m 294.25968,49.015862 q -1.90967,0 -2.92067,1.380096 -0.99495,1.364049 -0.99495,3.947717 0,2.583669 0.99495,3.963765 1.011,1.364048 2.92067,1.364048 1.87757,0 2.87253,-1.364048 0.99495,-1.380096 0.99495,-3.963765 0,-2.583668 -0.99495,-3.947717 -0.99496,-1.380096 -2.87253,-1.380096 z m 0,-4.108194 q 4.63777,0 7.23748,2.503431 2.61577,2.50343 2.61577,6.932576 0,4.429146 -2.61577,6.932576 -2.59971,2.503431 -7.23748,2.503431 -4.65381,0 -7.28562,-2.503431 -2.61577,-2.50343 -2.61577,-6.932576 0,-4.429146 2.61577,-6.932576 2.63181,-2.503431 7.28562,-2.503431 z"
         style="font-style:normal;font-variant:normal;font-weight:bold;font-stretch:normal;font-size:32.86554718px;font-family:Lato;-inkscape-font-specification:'Lato Bold';fill:#e8dbcc;fill-opacity:1;stroke-width:1.23245811"
         id="path4651"
         inkscape:connector-curvature="0" />
      <path
         d="m 308.30136,45.340954 h 5.74505 v 17.652394 q 0,3.610717 -1.73314,5.504337 -1.73315,1.909668 -5.02291,1.909668 h -2.84043 V 66.63616 h 0.99495 q 1.63686,0 2.24667,-0.738191 0.60981,-0.738191 0.60981,-2.904621 z m 0,-6.996766 h 5.74505 v 4.685908 h -5.74505 z"
         style="font-style:normal;font-variant:normal;font-weight:bold;font-stretch:normal;font-size:32.86554718px;font-family:Lato;-inkscape-font-specification:'Lato Bold';fill:#e8dbcc;fill-opacity:1;stroke-width:1.23245811"
         id="path4653"
         inkscape:connector-curvature="0" />
      <path
         d="m 328.15228,49.015862 q -1.90967,0 -2.92067,1.380096 -0.99495,1.364049 -0.99495,3.947717 0,2.583669 0.99495,3.963765 1.011,1.364048 2.92067,1.364048 1.87757,0 2.87252,-1.364048 0.99496,-1.380096 0.99496,-3.963765 0,-2.583668 -0.99496,-3.947717 -0.99495,-1.380096 -2.87252,-1.380096 z m 0,-4.108194 q 4.63776,0 7.23748,2.503431 2.61576,2.50343 2.61576,6.932576 0,4.429146 -2.61576,6.932576 -2.59972,2.503431 -7.23748,2.503431 -4.65381,0 -7.28563,-2.503431 -2.61576,-2.50343 -2.61576,-6.932576 0,-4.429146 2.61576,-6.932576 2.63182,-2.503431 7.28563,-2.503431 z"
         style="font-style:normal;font-variant:normal;font-weight:bold;font-stretch:normal;font-size:32.86554718px;font-family:Lato;-inkscape-font-specification:'Lato Bold';fill:#e8dbcc;fill-opacity:1;stroke-width:1.23245811"
         id="path4655"
         inkscape:connector-curvature="0" />
      <path
         d="m 360.1352,54.279485 v 1.636858 h -13.43186 q 0.20862,2.022001 1.46033,3.033002 1.25172,1.011001 3.49839,1.011001 1.81338,0 3.707,-0.529572 1.90967,-0.545619 3.91562,-1.636858 v 4.429146 q -2.03805,0.770286 -4.0761,1.155429 -2.03805,0.401191 -4.0761,0.401191 -4.87848,0 -7.59053,-2.471335 -2.696,-2.487383 -2.696,-6.964672 0,-4.397051 2.64786,-6.916529 2.66391,-2.519478 7.31772,-2.519478 4.23658,0 6.7721,2.551574 2.55157,2.551573 2.55157,6.820243 z m -5.90552,-1.909668 q 0,-1.636859 -0.96286,-2.631812 -0.94681,-1.011001 -2.48738,-1.011001 -1.66896,0 -2.71205,0.946811 -1.0431,0.930762 -1.29986,2.696002 z"
         style="font-style:normal;font-variant:normal;font-weight:bold;font-stretch:normal;font-size:32.86554718px;font-family:Lato;-inkscape-font-specification:'Lato Bold';fill:#e8dbcc;fill-opacity:1;stroke-width:1.23245811"
         id="path4657"
         inkscape:connector-curvature="0" />
      <path
         d="m 376.15074,39.355188 h 6.17834 V 58.64444 h 10.8482 v 4.669861 h -17.02654 z"
         style="font-style:normal;font-variant:normal;font-weight:bold;font-stretch:normal;font-size:32.86554718px;font-family:Lato;-inkscape-font-specification:'Lato Bold';fill:#e8dbcc;fill-opacity:1;stroke-width:1.23245811"
         id="path4659"
         inkscape:connector-curvature="0" />
      <path
         d="m 396.82008,45.340954 h 5.74505 v 17.973347 h -5.74505 z m 0,-6.996766 h 5.74505 v 4.685908 h -5.74505 z"
         style="font-style:normal;font-variant:normal;font-weight:bold;font-stretch:normal;font-size:32.86554718px;font-family:Lato;-inkscape-font-specification:'Lato Bold';fill:#e8dbcc;fill-opacity:1;stroke-width:1.23245811"
         id="path4661"
         inkscape:connector-curvature="0" />
      <path
         d="m 426.18725,52.369817 v 10.944484 h -5.77715 v -1.781287 -6.595577 q 0,-2.326906 -0.11233,-3.209526 -0.0963,-0.882619 -0.35305,-1.299858 -0.337,-0.561667 -0.91472,-0.866572 -0.57771,-0.320952 -1.3159,-0.320952 -1.79734,0 -2.82439,1.396143 -1.02704,1.380097 -1.02704,3.835384 v 8.842245 h -5.74506 V 45.340954 h 5.74506 v 2.631812 q 1.29985,-1.572668 2.76019,-2.310859 1.46033,-0.754239 3.22557,-0.754239 3.11324,0 4.71801,1.909668 1.62081,1.909668 1.62081,5.552481 z"
         style="font-style:normal;font-variant:normal;font-weight:bold;font-stretch:normal;font-size:32.86554718px;font-family:Lato;-inkscape-font-specification:'Lato Bold';fill:#e8dbcc;fill-opacity:1;stroke-width:1.23245811"
         id="path4663"
         inkscape:connector-curvature="0" />
      <path
         d="m 431.35459,56.317534 v -10.97658 h 5.77715 v 1.797335 q 0,1.460334 -0.0161,3.674907 -0.016,2.198526 -0.016,2.936717 0,2.16643 0.11234,3.129288 0.11233,0.94681 0.38514,1.380096 0.35305,0.561667 0.91472,0.866572 0.57771,0.304905 1.3159,0.304905 1.79734,0 2.82438,-1.380096 1.02705,-1.380096 1.02705,-3.835384 v -8.87434 h 5.74505 v 17.973347 h -5.74505 v -2.599717 q -1.29985,1.572668 -2.76019,2.326907 -1.44429,0.738191 -3.19348,0.738191 -3.11324,0 -4.7501,-1.909668 -1.62081,-1.909668 -1.62081,-5.55248 z"
         style="font-style:normal;font-variant:normal;font-weight:bold;font-stretch:normal;font-size:32.86554718px;font-family:Lato;-inkscape-font-specification:'Lato Bold';fill:#e8dbcc;fill-opacity:1;stroke-width:1.23245811"
         id="path4665"
         inkscape:connector-curvature="0" />
      <path
         d="m 459.51818,54.119008 -6.48324,-8.778054 h 6.08205 l 3.67491,5.327814 3.72305,-5.327814 h 6.08205 l -6.48325,8.745959 6.8042,9.227388 h -6.08205 l -4.044,-5.680862 -3.99586,5.680862 h -6.08206 z"
         style="font-style:normal;font-variant:normal;font-weight:bold;font-stretch:normal;font-size:32.86554718px;font-family:Lato;-inkscape-font-specification:'Lato Bold';fill:#e8dbcc;fill-opacity:1;stroke-width:1.23245811"
         id="path4667"
         inkscape:connector-curvature="0" />
    </g>
  </g>
</svg>
